<svg width="51" height="52" viewBox="0 0 51 52" fill="none" xmlns="http://www.w3.org/2000/svg">
<path d="M33.2802 51.6741H17.0695C7.62224 51.6741 0 43.9933 0 34.5938V17.4062C0 7.95296 7.67592 0.325928 17.0695 0.325928H33.2802C42.7275 0.325928 50.3497 8.00667 50.3497 17.4062V34.5401C50.4034 43.9933 42.7275 51.6741 33.2802 51.6741Z" fill="#6C63FF"/>
<path d="M16.3179 9.34998C21.4709 9.77967 26.4093 11.8207 30.2741 15.2045C34.9441 19.1792 37.3059 24.6577 37.3059 31.6402V31.6939C37.3059 37.7633 32.3676 42.6511 26.3556 42.6511C26.302 42.6511 26.1946 42.6511 26.1409 42.6511H25.7652C20.5047 42.5436 16.3179 38.2467 16.3716 32.983L16.3179 9.34998Z" fill="white"/>
</svg>
