<svg width="48" height="49" viewBox="0 0 48 49" fill="none" xmlns="http://www.w3.org/2000/svg">
<rect y="0.348145" width="48" height="48" rx="24" fill="#F9FFFB"/>
<path d="M25.6667 22.0981V24.5148H27.8333C28 24.5148 28.0833 24.6815 28.0833 24.8481L27.75 26.4315C27.75 26.5148 27.5833 26.5981 27.5 26.5981H25.6667V32.6815H23.1667V26.6815H21.75C21.5833 26.6815 21.5 26.5981 21.5 26.4315V24.8481C21.5 24.6815 21.5833 24.5981 21.75 24.5981H23.1667V21.8481C23.1667 20.4315 24.25 19.3481 25.6667 19.3481H27.9167C28.0833 19.3481 28.1667 19.4315 28.1667 19.5981V21.5981C28.1667 21.7648 28.0833 21.8481 27.9167 21.8481H25.9167C25.75 21.8481 25.6667 21.9315 25.6667 22.0981Z" stroke="#6C63FF" stroke-miterlimit="10" stroke-linecap="round"/>
<path d="M26.5 32.6816H21.5C17.3333 32.6816 15.6667 31.0149 15.6667 26.8482V21.8482C15.6667 17.6816 17.3333 16.0149 21.5 16.0149H26.5C30.6667 16.0149 32.3333 17.6816 32.3333 21.8482V26.8482C32.3333 31.0149 30.6667 32.6816 26.5 32.6816Z" stroke="#6C63FF" stroke-linecap="round" stroke-linejoin="round"/>
</svg>
