<svg width="832" height="562" viewBox="0 0 832 562" fill="none" xmlns="http://www.w3.org/2000/svg">
<g clip-path="url(#clip0_3_1357)">
<path d="M56.4243 423.498C52.4783 423.498 48.5242 423.661 44.6627 423.989L44.1007 424.036C18.4874 426.301 -0.24759 439.437 0.522926 454.594L0.671885 457.334C0.770116 459.067 0.874777 460.93 0.960924 462.996C1.00758 464.015 2.39813 464.797 4.12839 464.797H634.154C678.574 464.527 722.833 464.188 765.694 463.788C773.733 463.805 781.766 463.389 789.76 462.541C801.672 461.131 809.939 458.337 815.037 453.998H815.039C821.378 448.617 821.578 441.842 821.195 434.187C820.414 418.729 819.639 402.491 818.866 386.302C818.184 372.034 817.504 357.804 816.824 344.18C816.404 336.096 815.47 328.959 808.271 323.505C800.467 317.607 786.235 314.617 765.97 314.617C765.725 314.617 765.482 314.617 765.234 314.618C701.724 314.844 638.795 336.682 608.646 368.96C605.174 372.677 601.939 376.656 598.81 380.505C594.187 386.191 589.407 392.069 583.704 397.326C580.616 400.211 577.276 402.814 573.725 405.105C573.48 405.274 573.2 405.455 572.904 405.627C572.226 406.069 571.517 406.495 570.826 406.874C566.781 409.211 562.519 411.148 558.1 412.661L557.654 412.81C557.318 412.93 556.954 413.05 556.59 413.16C554.038 413.979 551.387 414.688 548.731 415.261C537.238 417.794 524.17 418.401 509.89 417.064C496.777 415.803 483.833 413.165 471.271 409.194C458.048 405.015 445.672 399.804 433.702 394.766C428.445 392.552 423.007 390.263 417.576 388.094C416.555 387.686 415.551 387.287 414.532 386.888C407.899 384.303 401.885 382.168 396.148 380.361C381.934 375.867 367.219 373.141 352.338 372.247C336.543 371.382 322.624 373.013 310.976 377.083C307.765 378.201 304.639 379.549 301.62 381.114C287.825 388.279 279.32 398.852 271.097 409.078C260.866 421.796 250.288 434.949 229.399 441.767C205.295 449.642 170.112 446.371 145.22 440.681C137.394 438.892 129.577 436.834 122.018 434.843C118.965 434.039 115.91 433.24 112.852 432.447C106.844 430.896 101.927 429.707 97.3781 428.704L95.9393 428.384C95.1389 428.21 94.3378 428.036 93.5222 427.87C88.1189 426.736 83.0875 425.843 78.1326 425.141L76.9603 424.97C74.6101 424.66 72.4129 424.403 70.2567 424.186L69.396 424.101C65.173 423.699 60.8027 423.498 56.4243 423.498Z" fill="#F2F2F2"/>
<path d="M707.908 440.414C725.636 424.438 752.004 416.406 774.122 425.364C751.434 437.961 733.932 458.177 724.714 482.437C721.192 491.805 718.251 502.592 709.591 507.608C704.202 510.729 697.497 510.881 691.455 509.375C685.412 507.868 679.874 504.848 674.411 501.857L672.857 501.822C679.835 479.001 690.18 456.389 707.908 440.414Z" fill="#E6E6E6"/>
<path d="M773.999 425.849C754.409 428.38 736.116 437.02 721.716 450.541C718.564 453.397 715.883 456.731 713.769 460.422C711.827 464.084 710.9 468.199 711.086 472.34C711.182 476.205 711.728 480.147 710.882 483.967C710.42 485.917 709.552 487.746 708.334 489.336C707.115 490.926 705.574 492.241 703.812 493.193C699.484 495.682 694.519 496.466 689.638 497.064C684.218 497.729 678.577 498.333 673.886 501.373C673.317 501.741 672.779 500.838 673.347 500.47C681.509 495.181 691.838 497.105 700.615 493.575C704.711 491.928 708.335 489.036 709.618 484.665C710.739 480.842 710.18 476.776 710.05 472.864C709.809 468.827 710.561 464.793 712.239 461.113C714.157 457.327 716.706 453.894 719.776 450.963C726.583 444.253 734.402 438.656 742.947 434.375C752.672 429.436 763.171 426.196 773.989 424.797C774.659 424.711 774.664 425.763 773.999 425.849Z" fill="white"/>
<path d="M726.096 445.915C724.156 443.191 723.247 439.866 723.532 436.533C723.816 433.201 725.276 430.078 727.651 427.723C728.133 427.248 728.893 427.975 728.411 428.45C726.195 430.64 724.836 433.548 724.577 436.652C724.318 439.756 725.177 442.85 726.999 445.375C727.395 445.925 726.489 446.461 726.096 445.915Z" fill="white"/>
<path d="M710.78 470.387C717.512 471.58 724.446 470.192 730.199 466.499C730.769 466.133 731.307 467.036 730.738 467.402C724.744 471.234 717.525 472.664 710.522 471.407C709.855 471.287 710.116 470.268 710.78 470.387Z" fill="white"/>
<path d="M752.758 430.828C753.289 432.038 754.112 433.097 755.154 433.911C756.196 434.724 757.424 435.266 758.727 435.488C759.395 435.6 759.134 436.619 758.47 436.508C757.031 436.256 755.676 435.656 754.523 434.76C753.37 433.864 752.454 432.699 751.855 431.367C751.788 431.246 751.769 431.104 751.803 430.97C751.837 430.836 751.92 430.72 752.037 430.646C752.157 430.575 752.3 430.554 752.435 430.588C752.57 430.622 752.686 430.708 752.758 430.828Z" fill="white"/>
<path d="M798.478 502.405C798.059 502.347 797.639 502.289 797.214 502.238C791.571 501.489 785.876 501.2 780.186 501.373C779.746 501.379 779.3 501.392 778.861 501.411C765.157 501.975 751.677 505.078 739.106 510.563C734.105 512.75 729.279 515.314 724.667 518.233C718.299 522.266 711.715 527.144 704.596 528.789C703.856 528.969 703.105 529.102 702.347 529.189L672.934 503.721C672.897 503.63 672.853 503.545 672.815 503.453L671.594 502.49C671.821 502.323 672.06 502.154 672.288 501.987C672.419 501.889 672.557 501.798 672.689 501.7C672.778 501.637 672.868 501.574 672.946 501.512C672.975 501.49 673.006 501.47 673.03 501.455C673.107 501.393 673.185 501.343 673.257 501.288C674.592 500.342 675.937 499.405 677.29 498.474C677.296 498.468 677.296 498.468 677.308 498.467C687.551 491.281 698.611 485.336 710.256 480.755C710.605 480.623 710.96 480.484 711.323 480.364C716.567 478.414 721.961 476.896 727.452 475.825C730.461 475.248 733.497 474.824 736.549 474.555C744.435 473.873 752.379 474.436 760.091 476.223C775.463 479.787 789.524 488.228 797.852 501.393C798.065 501.73 798.271 502.061 798.478 502.405Z" fill="#E6E6E6"/>
<path d="M798.089 502.721C780.924 492.948 761.116 488.832 741.478 490.958C737.242 491.34 733.093 492.388 729.184 494.063C725.429 495.817 722.211 498.545 719.867 501.963C717.617 505.107 715.679 508.582 712.704 511.124C711.162 512.402 709.367 513.34 707.436 513.876C705.506 514.412 703.485 514.534 701.504 514.234C696.55 513.614 692.114 511.251 687.856 508.79C683.129 506.057 678.261 503.144 672.685 502.746C672.009 502.698 672.124 501.652 672.798 501.701C682.5 502.392 689.589 510.148 698.722 512.614C702.984 513.764 707.618 513.638 711.274 510.919C714.471 508.542 716.473 504.96 718.723 501.758C720.962 498.389 723.991 495.621 727.546 493.693C731.358 491.825 735.459 490.619 739.675 490.127C749.149 488.868 758.762 489.106 768.162 490.833C778.902 492.745 789.235 496.479 798.714 501.875C799.301 502.21 798.672 503.053 798.089 502.721Z" fill="white"/>
<path d="M747.761 489.901C747.852 486.558 749.128 483.355 751.361 480.866C753.595 478.377 756.64 476.763 759.954 476.312C760.625 476.223 760.795 477.261 760.123 477.35C757.036 477.764 754.2 479.268 752.124 481.591C750.049 483.913 748.872 486.9 748.807 490.014C748.791 490.691 747.746 490.574 747.761 489.901Z" fill="white"/>
<path d="M720.798 500.219C725.455 505.225 731.827 508.291 738.644 508.807C739.32 508.857 739.206 509.903 738.531 509.852C731.438 509.302 724.813 506.098 719.978 500.879C719.518 500.381 720.34 499.724 720.798 500.219Z" fill="white"/>
<path d="M778.132 493.907C777.827 495.194 777.847 496.536 778.189 497.812C778.531 499.089 779.185 500.261 780.092 501.223C780.558 501.714 779.736 502.371 779.272 501.882C778.275 500.815 777.555 499.52 777.174 498.11C776.793 496.7 776.762 495.218 777.086 493.794C777.105 493.657 777.176 493.533 777.284 493.446C777.391 493.36 777.528 493.318 777.666 493.328C777.804 493.344 777.931 493.413 778.018 493.522C778.105 493.63 778.146 493.769 778.132 493.907Z" fill="white"/>
<path d="M243.833 456.302C258.349 434.284 284.316 418.357 310.465 421.784C289.703 441.569 276.608 468.061 273.498 496.571C272.338 507.571 272.193 519.926 264.325 527.7C259.43 532.537 252.302 534.566 245.42 534.635C238.538 534.705 231.775 533.016 225.1 531.337L223.428 531.732C224.542 505.383 229.317 478.321 243.833 456.302Z" fill="#E6E6E6"/>
<path d="M310.467 422.337C290.22 430.495 273.058 444.825 261.418 463.292C258.842 467.223 256.902 471.536 255.668 476.071C254.609 480.528 254.763 485.187 256.114 489.564C257.292 493.671 258.972 497.735 259.13 502.057C259.179 504.27 258.759 506.468 257.898 508.508C257.037 510.547 255.755 512.382 254.136 513.891C250.198 517.756 245.107 519.977 240.052 521.975C234.44 524.193 228.576 526.408 224.404 530.965C223.898 531.517 223.071 530.701 223.576 530.149C230.835 522.221 242.417 521.406 250.823 515.189C254.745 512.287 257.816 508.187 257.972 503.154C258.108 498.753 256.379 494.561 255.151 490.413C253.771 486.162 253.452 481.638 254.223 477.236C255.222 472.652 256.993 468.272 259.461 464.283C264.874 455.213 271.68 447.051 279.628 440.095C288.656 432.107 298.983 425.721 310.164 421.215C310.856 420.936 311.155 422.061 310.467 422.337Z" fill="white"/>
<path d="M264.816 457.125C261.983 454.752 260.086 451.448 259.463 447.805C258.841 444.162 259.534 440.416 261.418 437.236C261.801 436.594 262.817 437.16 262.433 437.803C260.673 440.76 260.028 444.25 260.615 447.641C261.201 451.033 262.981 454.103 265.632 456.297C266.208 456.775 265.389 457.6 264.816 457.125Z" fill="white"/>
<path d="M255.243 487.561C262.775 486.964 269.804 483.549 274.931 477.999C275.438 477.449 276.265 478.265 275.759 478.815C270.413 484.581 263.09 488.119 255.251 488.723C254.504 488.78 254.5 487.617 255.243 487.561Z" fill="white"/>
<path d="M289.135 433.572C290.039 434.719 291.215 435.623 292.555 436.203C293.896 436.783 295.36 437.021 296.815 436.896C297.561 436.829 297.565 437.992 296.824 438.058C295.215 438.189 293.599 437.924 292.116 437.286C290.634 436.649 289.33 435.658 288.319 434.4C288.213 434.289 288.154 434.143 288.153 433.99C288.152 433.837 288.209 433.69 288.313 433.578C288.421 433.469 288.569 433.407 288.722 433.406C288.876 433.405 289.024 433.464 289.135 433.572Z" fill="white"/>
<path d="M357.946 497.406C357.482 497.461 357.017 497.516 356.547 497.579C350.303 498.348 344.132 499.623 338.095 501.391C337.626 501.521 337.153 501.659 336.689 501.801C322.189 506.217 308.634 513.286 296.715 522.649C291.975 526.379 287.526 530.465 283.406 534.87C277.717 540.954 272.033 548.004 264.876 551.743C264.134 552.142 263.368 552.494 262.582 552.798L224.039 533.741C223.973 533.654 223.903 533.575 223.837 533.488L222.263 532.797C222.459 532.555 222.669 532.309 222.865 532.066C222.979 531.926 223.101 531.789 223.214 531.648C223.293 531.555 223.371 531.463 223.437 531.375C223.463 531.344 223.489 531.313 223.511 531.291C223.576 531.203 223.646 531.128 223.707 531.049C224.872 529.666 226.049 528.289 227.238 526.918C227.242 526.909 227.242 526.909 227.255 526.905C236.338 516.48 246.371 506.721 257.567 498.796C257.904 498.557 258.244 498.31 258.599 498.08C263.665 494.536 269.012 491.412 274.588 488.738C277.645 487.284 280.774 485.986 283.963 484.849C292.208 481.925 300.861 480.317 309.606 480.083C327.038 479.619 344.425 484.735 356.995 496.498C357.316 496.799 357.629 497.096 357.946 497.406Z" fill="#E6E6E6"/>
<path d="M357.618 497.853C336.54 492.175 314.21 493.284 293.798 501.021C289.374 502.608 285.229 504.883 281.513 507.762C277.985 510.683 275.303 514.496 273.746 518.804C272.214 522.792 271.108 527.048 268.633 530.594C267.339 532.391 265.68 533.893 263.765 535.003C261.85 536.114 259.722 536.806 257.52 537.036C252.049 537.752 246.647 536.459 241.409 535.011C235.592 533.403 229.576 531.641 223.501 532.768C222.765 532.904 222.597 531.754 223.331 531.618C233.9 529.658 243.639 535.981 254.094 536.078C258.972 536.123 263.893 534.698 267.047 530.773C269.806 527.342 270.949 522.953 272.466 518.902C273.923 514.677 276.392 510.873 279.658 507.822C283.215 504.764 287.267 502.333 291.639 500.634C301.421 496.651 311.769 494.232 322.303 493.464C334.321 492.52 346.411 493.64 358.051 496.774C358.772 496.968 358.333 498.046 357.618 497.853Z" fill="white"/>
<path d="M300.224 498.143C299.391 494.542 299.865 490.762 301.561 487.478C303.258 484.194 306.066 481.621 309.485 480.216C310.178 479.935 310.648 480.998 309.954 481.28C306.768 482.582 304.152 484.98 302.579 488.041C301.006 491.102 300.578 494.624 301.374 497.973C301.546 498.701 300.395 498.866 300.224 498.143Z" fill="white"/>
<path d="M274.257 516.68C280.63 520.738 288.298 522.244 295.733 520.899C296.469 520.765 296.638 521.915 295.902 522.049C288.163 523.434 280.186 521.85 273.564 517.613C272.933 517.209 273.629 516.278 274.257 516.68Z" fill="white"/>
<path d="M333.821 493.978C333.853 495.439 334.247 496.868 334.968 498.139C335.69 499.409 336.715 500.481 337.952 501.257C338.588 501.653 337.891 502.584 337.259 502.19C335.896 501.326 334.765 500.141 333.965 498.74C333.166 497.338 332.721 495.761 332.671 494.148C332.654 493.997 332.695 493.844 332.786 493.721C332.877 493.599 333.011 493.515 333.161 493.488C333.314 493.467 333.468 493.506 333.592 493.598C333.715 493.689 333.798 493.826 333.821 493.978Z" fill="white"/>
<path d="M347.144 291.225C348.107 290.267 348.849 289.109 349.316 287.833C349.783 286.557 349.965 285.194 349.849 283.84C349.733 282.487 349.321 281.175 348.643 279.998C347.965 278.82 347.037 277.806 345.924 277.026L361.095 203.601L344.727 208.765L332.521 279.797C331.335 281.753 330.907 284.077 331.32 286.327C331.732 288.577 332.955 290.598 334.757 292.006C336.56 293.415 338.816 294.113 341.099 293.969C343.382 293.825 345.533 292.849 347.144 291.225Z" fill="#FFB6B6"/>
<path d="M382.211 94.9576L372.072 87.304C372.072 87.304 363.128 86.6706 361.544 102.801C359.96 118.931 350.041 180.838 350.041 180.838L334.527 252.697L356.003 257.411L372.62 179.862L389.255 126.361L382.211 94.9576Z" fill="#E6E6E6"/>
<path d="M374.487 227.923L325.852 190.106C325.094 189.516 324.602 188.649 324.483 187.696C324.364 186.743 324.627 185.782 325.216 185.023L358.306 142.464C358.897 141.706 359.764 141.214 360.716 141.095C361.669 140.976 362.631 141.239 363.39 141.828L412.024 179.645C412.782 180.235 413.274 181.102 413.393 182.055C413.513 183.008 413.249 183.97 412.66 184.729L379.57 227.287C378.979 228.045 378.113 228.537 377.16 228.657C376.207 228.776 375.245 228.512 374.487 227.923Z" fill="#3F3D56"/>
<path d="M374.219 224.01L329.71 189.401C329.038 188.877 328.601 188.107 328.495 187.261C328.389 186.415 328.623 185.561 329.146 184.887L359.144 146.306C359.668 145.633 360.437 145.196 361.284 145.09C362.13 144.984 362.983 145.219 363.657 145.741L408.166 180.35C408.839 180.875 409.276 181.644 409.382 182.49C409.488 183.337 409.253 184.19 408.731 184.864L378.733 223.445C378.209 224.118 377.439 224.555 376.593 224.661C375.747 224.767 374.893 224.533 374.219 224.01Z" fill="white"/>
<path d="M335.545 188.42C335.377 188.289 335.268 188.096 335.242 187.885C335.215 187.673 335.274 187.46 335.404 187.291L350.537 167.828C350.668 167.66 350.861 167.55 351.072 167.524C351.177 167.511 351.283 167.518 351.385 167.546C351.487 167.574 351.582 167.622 351.666 167.687C351.749 167.752 351.819 167.832 351.871 167.924C351.923 168.016 351.957 168.117 351.97 168.222C351.983 168.327 351.975 168.433 351.947 168.535C351.92 168.637 351.872 168.732 351.807 168.815L336.674 188.279C336.543 188.447 336.35 188.556 336.139 188.582C335.927 188.609 335.714 188.55 335.545 188.42Z" fill="#E4E4E4"/>
<path d="M338.054 190.37C337.885 190.239 337.776 190.047 337.75 189.835C337.723 189.623 337.782 189.41 337.912 189.242L353.046 169.778C353.176 169.61 353.369 169.501 353.58 169.474C353.792 169.448 354.006 169.506 354.174 169.637C354.342 169.768 354.452 169.961 354.478 170.172C354.505 170.384 354.446 170.597 354.315 170.766L339.182 190.229C339.051 190.397 338.859 190.506 338.647 190.533C338.435 190.559 338.222 190.501 338.054 190.37Z" fill="#E4E4E4"/>
<path d="M349.135 181.294C348.967 181.163 348.858 180.97 348.831 180.759C348.805 180.547 348.863 180.334 348.994 180.165L355.554 171.729C355.618 171.645 355.699 171.575 355.791 171.523C355.883 171.47 355.984 171.437 356.089 171.423C356.194 171.41 356.3 171.418 356.402 171.446C356.504 171.474 356.599 171.521 356.683 171.586C356.766 171.651 356.836 171.732 356.888 171.824C356.941 171.916 356.974 172.017 356.987 172.122C357 172.227 356.992 172.333 356.964 172.435C356.936 172.537 356.888 172.632 356.823 172.716L350.263 181.153C350.132 181.321 349.94 181.43 349.728 181.457C349.517 181.483 349.304 181.424 349.135 181.294Z" fill="#E4E4E4"/>
<path d="M352.517 197.85C352.349 197.719 352.239 197.527 352.213 197.315C352.186 197.104 352.245 196.89 352.376 196.722L376.266 165.996C376.331 165.912 376.412 165.842 376.503 165.79C376.595 165.738 376.696 165.704 376.801 165.691C376.906 165.678 377.012 165.686 377.114 165.714C377.216 165.742 377.311 165.79 377.394 165.854C377.478 165.919 377.548 166 377.6 166.092C377.652 166.183 377.686 166.284 377.699 166.389C377.712 166.494 377.704 166.6 377.676 166.702C377.648 166.804 377.601 166.899 377.536 166.983L353.645 197.709C353.514 197.877 353.322 197.986 353.11 198.013C352.899 198.039 352.685 197.981 352.517 197.85Z" fill="#E4E4E4"/>
<path d="M355.025 199.801C354.857 199.669 354.748 199.477 354.721 199.266C354.695 199.054 354.753 198.841 354.884 198.672L378.774 167.946C378.839 167.862 378.92 167.793 379.012 167.74C379.103 167.688 379.204 167.655 379.309 167.641C379.414 167.628 379.52 167.636 379.622 167.664C379.724 167.692 379.819 167.74 379.903 167.805C379.986 167.869 380.056 167.95 380.108 168.042C380.16 168.134 380.194 168.235 380.207 168.34C380.22 168.444 380.212 168.551 380.184 168.652C380.156 168.754 380.109 168.85 380.044 168.933L356.153 199.659C356.022 199.827 355.83 199.937 355.618 199.963C355.407 199.99 355.193 199.931 355.025 199.801Z" fill="#E4E4E4"/>
<path d="M360.718 204.228C360.55 204.096 360.441 203.904 360.415 203.693C360.388 203.481 360.447 203.268 360.577 203.099L384.468 172.373C384.533 172.29 384.613 172.22 384.705 172.168C384.797 172.115 384.898 172.082 385.003 172.069C385.108 172.055 385.214 172.063 385.316 172.091C385.417 172.119 385.513 172.167 385.596 172.232C385.679 172.297 385.749 172.377 385.801 172.469C385.854 172.561 385.887 172.662 385.9 172.767C385.913 172.871 385.906 172.978 385.878 173.08C385.85 173.181 385.802 173.277 385.737 173.36L361.847 204.086C361.716 204.254 361.523 204.364 361.312 204.39C361.1 204.417 360.887 204.358 360.718 204.228Z" fill="#E4E4E4"/>
<path d="M363.227 206.178C363.058 206.047 362.949 205.854 362.923 205.643C362.896 205.431 362.955 205.218 363.085 205.049L386.976 174.323C387.041 174.24 387.121 174.17 387.213 174.118C387.305 174.066 387.406 174.032 387.511 174.019C387.616 174.006 387.722 174.013 387.824 174.041C387.926 174.069 388.021 174.117 388.104 174.182C388.188 174.247 388.257 174.327 388.31 174.419C388.362 174.511 388.395 174.612 388.409 174.717C388.422 174.822 388.414 174.928 388.386 175.03C388.358 175.132 388.31 175.227 388.245 175.31L364.355 206.037C364.224 206.205 364.031 206.314 363.82 206.341C363.608 206.367 363.395 206.309 363.227 206.178Z" fill="#E4E4E4"/>
<path d="M368.92 210.605C368.752 210.474 368.643 210.282 368.616 210.07C368.59 209.858 368.648 209.645 368.779 209.477L392.669 178.75C392.734 178.667 392.815 178.597 392.907 178.545C392.998 178.493 393.1 178.459 393.204 178.446C393.309 178.433 393.415 178.441 393.517 178.469C393.619 178.497 393.714 178.544 393.798 178.609C393.881 178.674 393.951 178.755 394.003 178.846C394.055 178.938 394.089 179.039 394.102 179.144C394.115 179.249 394.107 179.355 394.079 179.457C394.051 179.559 394.004 179.654 393.939 179.737L370.048 210.464C369.917 210.632 369.725 210.741 369.513 210.768C369.302 210.794 369.088 210.736 368.92 210.605Z" fill="#E4E4E4"/>
<path d="M371.428 212.555C371.26 212.424 371.151 212.232 371.124 212.02C371.098 211.809 371.156 211.595 371.287 211.427L395.178 180.701C395.309 180.533 395.501 180.424 395.712 180.398C395.923 180.372 396.136 180.431 396.304 180.561C396.472 180.692 396.582 180.884 396.608 181.095C396.635 181.306 396.577 181.519 396.447 181.688L372.557 212.414C372.425 212.582 372.233 212.692 372.022 212.718C371.81 212.744 371.597 212.686 371.428 212.555Z" fill="#E4E4E4"/>
<path d="M331.499 248.239C331.682 248.239 331.829 248.091 331.829 247.909C331.829 247.727 331.682 247.579 331.499 247.579C331.317 247.579 331.169 247.727 331.169 247.909C331.169 248.091 331.317 248.239 331.499 248.239Z" fill="white"/>
<path d="M379.605 20.7555C378.443 26.9944 376.539 33.0719 373.933 38.858C359.009 70.4314 401.511 60.1401 416.699 60.1401C433.306 60.1401 449.195 68.8729 446.768 30.07C445.732 13.4952 433.306 0 416.699 0C402.514 0 382.571 6.3051 379.605 20.7555Z" fill="#2F2E41"/>
<path d="M432.179 483.824H418.03L411.297 429.247H432.179V483.824Z" fill="#FFB6B6"/>
<path d="M439.647 508.339H429.5L427.689 498.759L423.05 508.339H396.139C394.849 508.34 393.592 507.927 392.553 507.163C391.514 506.398 390.747 505.322 390.363 504.09C389.979 502.859 389.999 501.536 390.42 500.317C390.84 499.097 391.64 498.044 392.701 497.311L414.192 482.469V472.784L436.797 474.133L439.647 508.339Z" fill="#2F2E41"/>
<path d="M516.238 465.967L504.884 474.411L466.916 434.634L483.673 422.172L516.238 465.967Z" fill="#FFB6B6"/>
<path d="M536.859 481.184L528.717 487.239L521.547 480.632L523.541 491.087L501.946 507.146C500.911 507.916 499.657 508.335 498.367 508.342C497.077 508.348 495.818 507.942 494.775 507.183C493.733 506.424 492.96 505.351 492.569 504.122C492.179 502.892 492.192 501.57 492.607 500.348L500.996 475.613L495.217 467.842L514.161 455.435L536.859 481.184Z" fill="#2F2E41"/>
<path d="M385.839 232.647L453.004 222.186L439.647 182.003H385.839V232.647Z" fill="#FFB6B6"/>
<path d="M448.652 202.241C448.652 202.241 475.497 225.435 463.111 291.555L447.989 356.342L489.188 427.871L468.239 439.298L417.469 368.731L394.237 314.234L381.948 218.722L448.652 202.241Z" fill="#2F2E41"/>
<path d="M407.042 329.765L405.427 354.772L410.154 428.824L433.621 436.904L438.065 361.03L407.042 329.765Z" fill="#2F2E41"/>
<path d="M399.828 68.4626L425.79 69.4755L436.137 86.6518L459.744 91.2605L445.651 162.558L448.243 203.14L424.736 202.997C407.796 202.893 391.413 209.048 378.731 220.281L379.434 167.602L369.323 128.278L371.596 87.0449L390.587 84.6709L399.828 68.4626Z" fill="#E6E6E6"/>
<path d="M414.211 60.1327C427.706 60.1327 438.646 49.1926 438.646 35.6974C438.646 22.2021 427.706 11.2621 414.211 11.2621C400.716 11.2621 389.777 22.2021 389.777 35.6974C389.777 49.1926 400.716 60.1327 414.211 60.1327Z" fill="#FFB6B6"/>
<path d="M397.618 10.7889C401.899 8.17859 406.804 6.76654 411.818 6.70043C416.832 6.63432 421.772 7.9166 426.121 10.4132C430.47 12.9097 434.068 16.5289 436.54 20.8922C439.011 25.2556 440.265 30.2028 440.171 35.2167C427.72 38.3428 414.64 40.7351 401.362 35.9644L398.227 28.29L396.378 35.9701C392.334 37.6229 388.28 39.0213 384.226 35.9542C384.061 30.9544 385.211 25.9988 387.561 21.5827C389.91 17.1666 393.378 13.4446 397.618 10.7889Z" fill="#2F2E41"/>
<path d="M455.225 252.405L458.519 282.298C458.748 283.044 459.211 283.697 459.838 284.16C460.466 284.624 461.226 284.874 462.006 284.874H477.19C477.97 284.874 478.73 284.624 479.358 284.16C479.985 283.697 480.448 283.044 480.677 282.298L483.405 259.386C484.193 259.772 485.061 259.966 485.938 259.951C486.815 259.937 487.676 259.714 488.45 259.302C489.224 258.889 489.889 258.299 490.391 257.58C490.892 256.86 491.216 256.032 491.335 255.163C491.454 254.294 491.365 253.409 491.076 252.581C490.786 251.754 490.304 251.006 489.67 250.401C489.035 249.795 488.266 249.349 487.425 249.099C486.585 248.849 485.697 248.802 484.834 248.962C484.494 248.56 484.07 248.237 483.592 248.016C483.113 247.795 482.593 247.681 482.066 247.682H458.713C458.142 247.682 457.579 247.816 457.069 248.074C456.559 248.331 456.117 248.704 455.778 249.163C455.438 249.623 455.212 250.155 455.116 250.718C455.02 251.281 455.057 251.859 455.225 252.405ZM483.882 257.837L485.553 252.405C485.747 251.778 485.766 251.11 485.609 250.473C485.68 250.469 485.747 250.452 485.82 250.452C486.869 250.452 487.875 250.869 488.617 251.611C489.359 252.353 489.776 253.359 489.776 254.408C489.776 255.458 489.359 256.464 488.617 257.206C487.875 257.948 486.869 258.365 485.82 258.365C485.139 258.361 484.471 258.179 483.882 257.837Z" fill="#6C63FF"/>
<path d="M478.12 284.895C477.162 283.932 476.426 282.77 475.966 281.492C475.505 280.214 475.33 278.85 475.453 277.497C475.576 276.144 475.995 274.834 476.679 273.66C477.363 272.486 478.296 271.476 479.413 270.702L464.615 197.201L480.956 202.448L492.801 273.542C493.977 275.504 494.393 277.829 493.969 280.077C493.546 282.325 492.313 284.34 490.503 285.739C488.693 287.138 486.433 287.825 484.151 287.67C481.869 287.514 479.723 286.527 478.12 284.895Z" fill="#FFB6B6"/>
<path d="M449.605 98.9143L459.744 91.2607C459.744 91.2607 468.688 90.6273 470.272 106.757C471.856 122.887 481.775 184.794 481.775 184.794L497.289 256.654L475.813 261.368L459.196 183.819L442.562 130.318L449.605 98.9143Z" fill="#E6E6E6"/>
<path d="M362.1 165.822C365.27 165.822 367.84 163.253 367.84 160.083C367.84 156.913 365.27 154.343 362.1 154.343C358.93 154.343 356.361 156.913 356.361 160.083C356.361 163.253 358.93 165.822 362.1 165.822Z" fill="#6C63FF"/>
<path d="M179.084 550.406L191.045 550.405L196.735 504.27L179.082 504.27L179.084 550.406Z" fill="#FFB6B6"/>
<path d="M176.033 546.5L179.4 546.5L192.543 541.155L199.588 546.499C203.569 546.5 207.388 548.081 210.203 550.896C213.018 553.711 214.6 557.53 214.6 561.511V561.999L176.034 562L176.033 546.5Z" fill="#2F2E41"/>
<path d="M225.434 542.868L237.102 545.503L252.814 501.754L235.594 497.866L225.434 542.868Z" fill="#FFB6B6"/>
<path d="M223.318 538.387L226.602 539.128L240.601 536.809L246.295 543.575L246.296 543.575C250.179 544.452 253.555 546.836 255.681 550.202C257.807 553.568 258.509 557.641 257.632 561.524L257.524 562L219.905 553.506L223.318 538.387Z" fill="#2F2E41"/>
<path d="M157.187 313.09L168.003 434.273C168.003 434.273 163.951 507.026 177.027 532.627H195.993L205.383 427.629L206.562 357.154L247.221 416.611L221.324 530.911L244.665 532.997L286.689 408.956L240.521 292.51L157.187 313.09Z" fill="#2F2E41"/>
<path d="M168.515 120.109C183.92 120.109 196.408 107.62 196.408 92.2145C196.408 76.809 183.92 64.3203 168.515 64.3203C153.11 64.3203 140.622 76.809 140.622 92.2145C140.622 107.62 153.11 120.109 168.515 120.109Z" fill="#FFB8B8"/>
<path d="M217.549 146.691L194.666 136.872L183.526 125.056L155.697 129.544L148.314 142.204L124.412 164.43L152.416 291.054L151.568 318.71C151.568 318.71 169.491 326.779 247.221 308.201C248.153 307.978 246.202 307.002 246.202 307.002L217.549 146.691Z" fill="#3F3D56"/>
<path d="M139.51 108.042C139.316 107.777 139.123 107.51 138.933 107.24C138.856 107.402 138.795 107.569 138.707 107.727L139.51 108.042Z" fill="#2F2E41"/>
<path d="M196.261 71.8111C194.397 67.7492 191.073 64.5375 186.949 62.8142C182.862 61.1656 178.294 61.1696 174.209 62.8253C170.522 60.4955 166.425 58.6484 162.11 58.4196C157.795 58.1908 153.232 59.7917 150.573 63.3157C149.98 64.2459 149.305 65.1221 148.558 65.9342C146.42 67.9137 143.172 67.6281 140.331 67.2234C141.605 68.3156 142.88 69.4077 144.155 70.4999C142.612 70.9029 141.07 71.3059 139.527 71.7088C141.327 72.8007 143.127 73.8925 144.927 74.9843C139.701 78.121 137.326 84.9673 137.953 91.1852C138.547 97.0721 141.389 102.455 144.786 107.24C146.142 104.38 145.85 100.958 145.827 97.7363C145.804 94.3327 146.406 90.4677 149.133 88.5655C150.973 87.2824 153.339 87.2251 155.557 87.2373C166.747 87.2987 177.925 87.9965 189.036 89.3274C190.544 89.3927 192.014 89.8191 193.323 90.5707C195.78 92.247 196.259 95.7065 196.505 98.7415C197.804 93.7302 198.439 88.5704 198.395 83.3939C198.504 79.426 197.777 75.4795 196.261 71.8111Z" fill="#2F2E41"/>
<path d="M204.946 398.04C229.192 398.04 248.848 378.384 248.848 354.137C248.848 329.889 229.192 310.233 204.946 310.233C180.699 310.233 161.043 329.889 161.043 354.137C161.043 378.384 180.699 398.04 204.946 398.04Z" fill="white"/>
<path d="M204.946 309.257C202.689 309.258 200.435 309.427 198.204 309.765C197.063 309.931 195.951 310.145 194.848 310.409C186.749 312.276 179.328 316.356 173.412 322.195C167.497 328.034 163.321 335.402 161.349 343.477C159.377 351.551 159.687 360.015 162.244 367.923C164.802 375.832 169.507 382.874 175.834 388.264C176.585 388.899 177.346 389.513 178.136 390.099C183.832 394.345 190.454 397.179 197.459 398.366C204.464 399.553 211.65 399.059 218.427 396.926C225.203 394.793 231.377 391.081 236.438 386.096C241.5 381.111 245.306 374.995 247.542 368.251C249.779 361.508 250.382 354.329 249.302 347.307C248.222 340.285 245.49 333.62 241.331 327.86C237.172 322.1 231.705 317.41 225.379 314.175C219.053 310.941 212.05 309.256 204.946 309.257ZM204.946 397.065C195.818 397.074 186.928 394.158 179.58 388.742C178.78 388.157 178.009 387.552 177.258 386.908C171.094 381.708 166.52 374.876 164.062 367.196C161.603 359.515 161.359 351.297 163.357 343.484C165.355 335.671 169.515 328.579 175.359 323.023C181.204 317.466 188.496 313.669 196.4 312.067C197.492 311.843 198.585 311.667 199.697 311.531C201.438 311.315 203.191 311.207 204.946 311.209C216.33 311.209 227.249 315.731 235.299 323.782C243.35 331.832 247.872 342.751 247.872 354.137C247.872 365.522 243.35 376.441 235.299 384.491C227.249 392.542 216.33 397.065 204.946 397.065Z" fill="#3F3D56"/>
<path d="M183.412 345.356H226.479C228.057 345.356 229.336 344.077 229.336 342.499V342.359C229.336 340.781 228.057 339.502 226.479 339.502H183.412C181.834 339.502 180.556 340.781 180.556 342.359V342.499C180.556 344.077 181.834 345.356 183.412 345.356Z" fill="#6C63FF"/>
<path d="M183.412 357.063H226.479C228.057 357.063 229.336 355.784 229.336 354.207V354.066C229.336 352.489 228.057 351.21 226.479 351.21H183.412C181.834 351.21 180.556 352.489 180.556 354.066V354.207C180.556 355.784 181.834 357.063 183.412 357.063Z" fill="#6C63FF"/>
<path d="M183.412 368.771H226.479C228.057 368.771 229.336 367.492 229.336 365.914V365.774C229.336 364.196 228.057 362.917 226.479 362.917H183.412C181.834 362.917 180.556 364.196 180.556 365.774V365.914C180.556 367.492 181.834 368.771 183.412 368.771Z" fill="#6C63FF"/>
<path d="M696.115 548.917L683.573 548.916L677.607 500.539L696.117 500.54L696.115 548.917Z" fill="#9E616A"/>
<path d="M636.781 548.917L624.24 548.916L618.274 500.539L636.784 500.54L636.781 548.917Z" fill="#9E616A"/>
<path d="M637.223 562L598.657 561.999V561.511C598.657 557.53 600.239 553.711 603.054 550.896C605.869 548.081 609.687 546.5 613.668 546.499H613.669L620.714 541.155L633.857 546.5L637.224 546.5L637.223 562Z" fill="#2F2E41"/>
<path d="M698.165 562L659.599 561.999V561.511C659.599 557.53 661.181 553.711 663.996 550.896C666.811 548.081 670.629 546.5 674.61 546.499H674.611L681.656 541.155L694.799 546.5L698.166 546.5L698.165 562Z" fill="#2F2E41"/>
<path d="M624.479 262.61L605.419 378.674L610.606 395.97L603.799 408.219L613.795 515.795L609.738 524.728L621.074 531.72H644.143L645.367 434.331L651.066 420.032V412.152L662.666 352.766L664.801 435.932L668.176 450.253L665.341 460.45L669.045 467.594L678.882 533.842H704.75L702.749 518.43C705.002 517.289 706.812 515.431 707.895 513.15C708.978 510.868 709.271 508.291 708.729 505.824L707.246 499.069L710.622 479.094L716.769 367.658L715.036 277.744L684.776 254.604L624.479 262.61Z" fill="#2F2E41"/>
<path d="M668.176 113.57C681.449 113.57 692.209 102.81 692.209 89.5363C692.209 76.2629 681.449 65.5027 668.176 65.5027C654.903 65.5027 644.143 76.2629 644.143 89.5363C644.143 102.81 654.903 113.57 668.176 113.57Z" fill="#9E616A"/>
<path d="M615.667 308.668C616.713 307.587 617.509 306.29 617.999 304.869C618.49 303.447 618.663 301.935 618.506 300.439C618.349 298.944 617.866 297.5 617.09 296.212C616.315 294.923 615.267 293.82 614.02 292.98L623.365 257.637L605.36 263.694L599.246 296.327C597.974 298.516 597.549 301.096 598.052 303.578C598.555 306.06 599.951 308.27 601.975 309.791C603.999 311.313 606.511 312.038 609.034 311.831C611.558 311.624 613.918 310.499 615.667 308.668Z" fill="#9E616A"/>
<path d="M625.502 138.982L621.637 138.18L618.341 140.005C618.341 140.005 609.134 152.281 609.134 163.534C609.134 174.788 597.881 283.227 597.881 283.227L618.341 292.434L634.709 207.524L625.502 138.982Z" fill="#E6E6E6"/>
<path d="M689.222 71.9153C689.222 71.9153 695.508 59.8985 681.679 58.8061C681.679 58.8061 669.89 48.1115 657.873 56.851C657.873 56.851 651.319 56.851 647.735 64.2683C647.735 64.2683 642.58 62.3131 641.447 67.5456C641.447 67.5456 637.675 78.47 641.447 88.3019C645.219 98.1339 646.472 99.2263 646.472 99.2263C646.472 99.2263 640.274 78.6131 655.361 77.5207C670.448 76.4282 687.331 66.9994 688.588 79.0162C689.846 91.033 691.738 93.9938 691.738 93.9938C691.738 93.9938 703.68 76.8313 689.222 71.9153Z" fill="#2F2E41"/>
<path d="M777.013 408.219C775.199 408.222 773.448 407.554 772.096 406.344L699.365 341.599C697.9 340.291 697.012 338.456 696.899 336.495C696.785 334.534 697.453 332.608 698.757 331.139L745.35 278.796C746.657 277.33 748.493 276.443 750.454 276.329C752.415 276.215 754.341 276.883 755.81 278.188L828.541 342.933C830.009 344.24 830.897 346.076 831.011 348.037C831.125 349.998 830.455 351.925 829.149 353.392L782.556 405.735C781.911 406.464 781.128 407.058 780.252 407.482C779.376 407.906 778.424 408.153 777.452 408.206C777.305 408.215 777.159 408.219 777.013 408.219Z" fill="white"/>
<path d="M777.012 408.695C775.082 408.698 773.218 407.987 771.78 406.7L699.049 341.955C697.489 340.563 696.545 338.609 696.424 336.522C696.302 334.435 697.014 332.385 698.402 330.822L744.994 278.479C746.386 276.919 748.34 275.975 750.426 275.854C752.513 275.733 754.563 276.444 756.126 277.832L828.858 342.577C830.42 343.968 831.365 345.922 831.487 348.009C831.608 350.097 830.895 352.147 829.505 353.709L782.912 406.053C782.225 406.828 781.392 407.46 780.459 407.911C779.527 408.363 778.514 408.625 777.48 408.682C777.323 408.691 777.168 408.695 777.012 408.695ZM750.887 277.744C750.043 277.742 749.207 277.92 748.437 278.265C747.666 278.61 746.978 279.115 746.417 279.746L699.825 332.089C698.772 333.274 698.232 334.829 698.324 336.412C698.416 337.995 699.132 339.477 700.315 340.532L773.046 405.277C773.633 405.799 774.317 406.201 775.058 406.459C775.8 406.717 776.586 406.826 777.37 406.781C778.154 406.735 778.921 406.535 779.628 406.193C780.335 405.851 780.967 405.373 781.489 404.786L828.082 352.443C829.137 351.258 829.677 349.703 829.585 348.12C829.493 346.537 828.776 345.055 827.592 344L754.86 279.255C753.766 278.279 752.352 277.742 750.887 277.744Z" fill="#3F3D56"/>
<path d="M803.387 358.647C802.601 358.649 801.843 358.36 801.257 357.837L744.165 307.015C743.849 306.735 743.592 306.396 743.407 306.017C743.222 305.638 743.114 305.226 743.089 304.804C743.064 304.383 743.122 303.961 743.26 303.563C743.399 303.164 743.614 302.797 743.895 302.482C744.175 302.167 744.515 301.91 744.895 301.726C745.275 301.543 745.687 301.436 746.109 301.412C746.53 301.389 746.951 301.448 747.35 301.588C747.748 301.727 748.114 301.944 748.429 302.226L805.52 353.048C806.006 353.48 806.349 354.05 806.503 354.681C806.657 355.313 806.616 355.976 806.385 356.584C806.153 357.191 805.743 357.714 805.207 358.082C804.672 358.451 804.037 358.648 803.387 358.647Z" fill="#6C63FF"/>
<path d="M792.497 370.88C791.712 370.882 790.953 370.593 790.367 370.07L733.276 319.248C732.962 318.968 732.705 318.629 732.522 318.25C732.339 317.871 732.232 317.46 732.207 317.039C732.183 316.619 732.242 316.198 732.38 315.801C732.518 315.403 732.734 315.037 733.013 314.722C733.293 314.408 733.632 314.152 734.011 313.968C734.39 313.785 734.802 313.678 735.222 313.654C735.642 313.629 736.063 313.688 736.461 313.826C736.858 313.964 737.225 314.18 737.539 314.46L794.631 365.282C795.116 365.714 795.459 366.284 795.614 366.915C795.768 367.547 795.727 368.21 795.495 368.817C795.264 369.425 794.853 369.947 794.317 370.316C793.782 370.684 793.147 370.881 792.497 370.88Z" fill="#6C63FF"/>
<path d="M781.607 383.116C780.822 383.117 780.063 382.828 779.477 382.305L722.385 331.483C722.07 331.203 721.814 330.864 721.63 330.485C721.446 330.106 721.339 329.694 721.314 329.274C721.289 328.853 721.348 328.432 721.486 328.034C721.624 327.636 721.84 327.269 722.12 326.954C722.4 326.64 722.74 326.383 723.119 326.2C723.498 326.016 723.91 325.91 724.331 325.885C724.751 325.861 725.172 325.92 725.57 326.059C725.968 326.198 726.335 326.413 726.649 326.694L783.74 377.517C784.226 377.949 784.569 378.518 784.723 379.149C784.878 379.781 784.836 380.444 784.605 381.052C784.374 381.659 783.963 382.182 783.428 382.551C782.892 382.919 782.257 383.116 781.607 383.116Z" fill="#6C63FF"/>
<path d="M716.319 310.754C715.586 309.44 715.15 307.982 715.042 306.482C714.934 304.982 715.156 303.477 715.692 302.072C716.229 300.667 717.067 299.397 718.147 298.351C719.228 297.305 720.525 296.508 721.946 296.018L722.008 259.46L737.849 269.946L735.362 303.053C736.028 305.496 735.774 308.099 734.65 310.367C733.525 312.636 731.608 314.413 729.26 315.362C726.913 316.311 724.299 316.367 721.914 315.517C719.528 314.668 717.538 312.973 716.319 310.754Z" fill="#9E616A"/>
<path d="M717.783 149L724.86 142.178L730.059 145.931C730.059 145.931 735.174 152.069 739.265 170.483C743.357 188.897 739.265 290.176 739.265 290.176L716.76 287.107L719.829 233.91L710.622 188.897L717.783 149Z" fill="#E6E6E6"/>
<path d="M728.233 143.842L704.39 132.453L688.202 117.438L658.683 117.217L649.161 129.596L624.023 138.136L628.212 224.821L625.356 231.487C625.356 231.487 627.346 233.285 628.255 234.29C629.165 235.296 626.999 243.714 626.999 243.714L625.778 252.873L629.165 255.293L624.761 260.494L623.668 268.693C623.668 268.693 700.527 249.589 715.049 281.236C715.816 282.908 713.927 266.567 713.927 266.567L712.038 254.604L713.912 243.866L716.769 241.009L711.978 236.218L715.049 213.484L728.233 143.842Z" fill="#3F3D56"/>
<path d="M187.525 336.017C188.117 334.514 188.372 332.9 188.272 331.288C188.173 329.677 187.721 328.106 186.949 326.688C186.177 325.27 185.104 324.038 183.804 323.08C182.505 322.121 181.011 321.459 179.428 321.141L174.131 282.247L158.774 295.672L166.158 330.547C165.799 333.242 166.441 335.975 167.963 338.228C169.484 340.482 171.779 342.098 174.413 342.773C177.046 343.447 179.836 343.131 182.252 341.886C184.669 340.641 186.545 338.553 187.525 336.017Z" fill="#FFB8B8"/>
<path d="M127.359 163.719L123.196 164.516L120.68 167.684C120.68 167.684 116.61 183.65 121.247 194.807C125.884 205.965 159.408 318.121 159.408 318.121L183.488 318.819L164.73 227.885L127.359 163.719Z" fill="#3F3D56"/>
<path d="M222.288 330.311C221.178 329.138 220.34 327.735 219.831 326.203C219.323 324.67 219.156 323.045 219.344 321.441C219.531 319.837 220.068 318.294 220.917 316.92C221.765 315.546 222.905 314.375 224.255 313.489L214.668 275.425L233.923 282.155L240.074 317.269C241.412 319.636 241.836 322.411 241.264 325.069C240.693 327.727 239.166 330.083 236.973 331.691C234.781 333.298 232.075 334.046 229.368 333.792C226.662 333.537 224.142 332.299 222.288 330.311Z" fill="#FFB8B8"/>
<path d="M213.875 148.004L218.035 147.192L221.55 149.193C221.55 149.193 231.28 162.49 231.137 174.572C230.995 186.654 241.705 303.222 241.705 303.222L219.622 312.848L203.123 221.478L213.875 148.004Z" fill="#3F3D56"/>
</g>
<defs>
<clipPath id="clip0_3_1357">
<rect width="831" height="562" fill="white" transform="translate(0.5)"/>
</clipPath>
</defs>
</svg>
