<svg width="200" height="52" viewBox="0 0 200 52" fill="none" xmlns="http://www.w3.org/2000/svg">
<path d="M34.1052 51.3481H17.8945C8.44724 51.3481 0.825001 43.6674 0.825001 34.2679V17.0802C0.825001 7.62703 8.50092 0 17.8945 0H34.1052C43.5525 0 51.1747 7.68074 51.1747 17.0802V34.2142C51.2284 43.6674 43.5525 51.3481 34.1052 51.3481Z" fill="#2F2E41"/>
<path d="M17.1429 9.02393C22.296 9.45362 27.2343 11.4947 31.0991 14.8785C35.7691 18.8531 38.1309 24.3317 38.1309 31.3142V31.3679C38.1309 37.4373 33.1926 42.325 27.1806 42.325C27.127 42.325 27.0196 42.325 26.9659 42.325H26.5902C21.3298 42.2176 17.1429 37.9207 17.1966 32.6569L17.1429 9.02393Z" fill="white"/>
<path d="M71.591 36.6741C71.015 36.6741 70.567 36.5247 70.247 36.2261C69.9483 35.9061 69.799 35.4581 69.799 34.8821V15.9061C69.799 15.3301 69.9483 14.8927 70.247 14.5941C70.567 14.2741 71.015 14.1141 71.591 14.1141H77.767C81.479 14.1141 84.3377 15.0847 86.343 17.0261C88.3697 18.9461 89.383 21.7301 89.383 25.3781C89.383 27.1914 89.127 28.8021 88.615 30.2101C88.103 31.6181 87.3457 32.8021 86.343 33.7621C85.3617 34.7007 84.1563 35.4261 82.727 35.9381C81.2977 36.4287 79.6443 36.6741 77.767 36.6741H71.591ZM73.127 33.8901H77.575C78.983 33.8901 80.199 33.7194 81.223 33.3781C82.2683 33.0154 83.143 32.4821 83.847 31.7781C84.551 31.0741 85.0737 30.1887 85.415 29.1221C85.7563 28.0554 85.927 26.8074 85.927 25.3781C85.927 22.5407 85.223 20.4181 83.815 19.0101C82.4283 17.6021 80.3483 16.8981 77.575 16.8981H73.127V33.8901ZM100.562 36.9621C98.9836 36.9621 97.6183 36.6314 96.4663 35.9701C95.3356 35.3087 94.4503 34.3701 93.8103 33.1541C93.1703 31.9381 92.8503 30.5087 92.8503 28.8661C92.8503 27.6074 93.0316 26.4874 93.3943 25.5061C93.7569 24.5247 94.2689 23.6821 94.9303 22.9781C95.6129 22.2527 96.4236 21.7087 97.3623 21.3461C98.3223 20.9621 99.3889 20.7701 100.562 20.7701C102.12 20.7701 103.464 21.1007 104.594 21.7621C105.746 22.4234 106.642 23.3621 107.282 24.5781C107.922 25.7727 108.242 27.2021 108.242 28.8661C108.242 30.1034 108.061 31.2234 107.698 32.2261C107.336 33.2287 106.813 34.0821 106.13 34.7861C105.469 35.4901 104.658 36.0341 103.698 36.4181C102.76 36.7807 101.714 36.9621 100.562 36.9621ZM100.562 34.4661C101.437 34.4661 102.205 34.2527 102.866 33.8261C103.528 33.3994 104.04 32.7701 104.402 31.9381C104.786 31.1061 104.978 30.0821 104.978 28.8661C104.978 27.0314 104.573 25.6447 103.762 24.7061C102.952 23.7674 101.885 23.2981 100.562 23.2981C99.6663 23.2981 98.8876 23.5114 98.2263 23.9381C97.5649 24.3434 97.0423 24.9621 96.6583 25.7941C96.2956 26.6261 96.1143 27.6501 96.1143 28.8661C96.1143 30.6794 96.5196 32.0661 97.3303 33.0261C98.1409 33.9861 99.2183 34.4661 100.562 34.4661ZM117.196 36.9621C115.532 36.9621 114.273 36.4821 113.42 35.5221C112.588 34.5407 112.172 33.1327 112.172 31.2981V15.5221C112.172 14.9887 112.311 14.5834 112.588 14.3061C112.865 14.0287 113.26 13.8901 113.772 13.8901C114.284 13.8901 114.679 14.0287 114.956 14.3061C115.255 14.5834 115.404 14.9887 115.404 15.5221V31.1061C115.404 32.1727 115.617 32.9727 116.044 33.5061C116.492 34.0181 117.132 34.2741 117.964 34.2741C118.156 34.2741 118.327 34.2741 118.476 34.2741C118.625 34.2527 118.775 34.2314 118.924 34.2101C119.18 34.1887 119.361 34.2634 119.468 34.4341C119.575 34.5834 119.628 34.9034 119.628 35.3941C119.628 35.8421 119.532 36.1941 119.34 36.4501C119.148 36.6847 118.839 36.8341 118.412 36.8981C118.22 36.9194 118.017 36.9301 117.804 36.9301C117.591 36.9514 117.388 36.9621 117.196 36.9621ZM123.853 36.8661C123.341 36.8661 122.947 36.7167 122.669 36.4181C122.392 36.0981 122.253 35.6607 122.253 35.1061V22.6261C122.253 22.0714 122.392 21.6447 122.669 21.3461C122.947 21.0474 123.341 20.8981 123.853 20.8981C124.365 20.8981 124.76 21.0474 125.037 21.3461C125.336 21.6447 125.485 22.0714 125.485 22.6261V35.1061C125.485 35.6607 125.347 36.0981 125.069 36.4181C124.792 36.7167 124.387 36.8661 123.853 36.8661ZM123.853 17.5701C123.213 17.5701 122.712 17.4101 122.349 17.0901C122.008 16.7701 121.837 16.3221 121.837 15.7461C121.837 15.1487 122.008 14.7007 122.349 14.4021C122.712 14.0821 123.213 13.9221 123.853 13.9221C124.493 13.9221 124.984 14.0821 125.325 14.4021C125.688 14.7007 125.869 15.1487 125.869 15.7461C125.869 16.3221 125.688 16.7701 125.325 17.0901C124.984 17.4101 124.493 17.5701 123.853 17.5701ZM136.287 36.9621C134.921 36.9621 133.716 36.6421 132.671 36.0021C131.647 35.3407 130.847 34.4021 130.271 33.1861C129.695 31.9487 129.407 30.5087 129.407 28.8661C129.407 27.1807 129.695 25.7407 130.271 24.5461C130.847 23.3514 131.647 22.4234 132.671 21.7621C133.716 21.1007 134.921 20.7701 136.287 20.7701C137.652 20.7701 138.825 21.1114 139.807 21.7941C140.809 22.4554 141.481 23.3514 141.823 24.4821H141.471V15.5221C141.471 14.9887 141.609 14.5834 141.887 14.3061C142.164 14.0287 142.559 13.8901 143.071 13.8901C143.583 13.8901 143.977 14.0287 144.255 14.3061C144.553 14.5834 144.703 14.9887 144.703 15.5221V35.2661C144.703 35.7781 144.564 36.1834 144.287 36.4821C144.009 36.7594 143.615 36.8981 143.103 36.8981C142.591 36.8981 142.196 36.7594 141.919 36.4821C141.641 36.1834 141.503 35.7781 141.503 35.2661V32.4501L141.855 33.1541C141.513 34.3061 140.841 35.2341 139.839 35.9381C138.857 36.6207 137.673 36.9621 136.287 36.9621ZM137.119 34.4661C137.993 34.4661 138.761 34.2527 139.423 33.8261C140.084 33.3994 140.596 32.7701 140.959 31.9381C141.343 31.1061 141.535 30.0821 141.535 28.8661C141.535 27.0314 141.129 25.6447 140.319 24.7061C139.508 23.7674 138.441 23.2981 137.119 23.2981C136.223 23.2981 135.444 23.5114 134.783 23.9381C134.121 24.3434 133.599 24.9621 133.215 25.7941C132.852 26.6261 132.671 27.6501 132.671 28.8661C132.671 30.6794 133.076 32.0661 133.887 33.0261C134.697 33.9861 135.775 34.4661 137.119 34.4661ZM150.149 36.6741C149.807 36.6741 149.53 36.5994 149.317 36.4501C149.103 36.2794 148.954 36.0661 148.869 35.8101C148.805 35.5327 148.805 35.2447 148.869 34.9461C148.954 34.6261 149.125 34.3274 149.381 34.0501L158.085 22.7541V23.5541H149.957C149.551 23.5541 149.242 23.4474 149.029 23.2341C148.815 22.9994 148.709 22.6901 148.709 22.3061C148.709 21.9007 148.815 21.5914 149.029 21.3781C149.242 21.1647 149.551 21.0581 149.957 21.0581H159.621C160.026 21.0581 160.346 21.1434 160.581 21.3141C160.837 21.4847 160.997 21.6981 161.061 21.9541C161.146 22.2101 161.157 22.4874 161.093 22.7861C161.029 23.0847 160.869 23.3727 160.613 23.6501L151.781 35.0741V34.2101H160.325C161.178 34.2101 161.605 34.6154 161.605 35.4261C161.605 35.8101 161.487 36.1194 161.253 36.3541C161.039 36.5674 160.73 36.6741 160.325 36.6741H150.149ZM171.281 36.9621C169.702 36.9621 168.337 36.6314 167.185 35.9701C166.054 35.3087 165.169 34.3701 164.529 33.1541C163.889 31.9381 163.569 30.5087 163.569 28.8661C163.569 27.6074 163.75 26.4874 164.113 25.5061C164.476 24.5247 164.988 23.6821 165.649 22.9781C166.332 22.2527 167.142 21.7087 168.081 21.3461C169.041 20.9621 170.108 20.7701 171.281 20.7701C172.838 20.7701 174.182 21.1007 175.313 21.7621C176.465 22.4234 177.361 23.3621 178.001 24.5781C178.641 25.7727 178.961 27.2021 178.961 28.8661C178.961 30.1034 178.78 31.2234 178.417 32.2261C178.054 33.2287 177.532 34.0821 176.849 34.7861C176.188 35.4901 175.377 36.0341 174.417 36.4181C173.478 36.7807 172.433 36.9621 171.281 36.9621ZM171.281 34.4661C172.156 34.4661 172.924 34.2527 173.585 33.8261C174.246 33.3994 174.758 32.7701 175.121 31.9381C175.505 31.1061 175.697 30.0821 175.697 28.8661C175.697 27.0314 175.292 25.6447 174.481 24.7061C173.67 23.7674 172.604 23.2981 171.281 23.2981C170.385 23.2981 169.606 23.5114 168.945 23.9381C168.284 24.3434 167.761 24.9621 167.377 25.7941C167.014 26.6261 166.833 27.6501 166.833 28.8661C166.833 30.6794 167.238 32.0661 168.049 33.0261C168.86 33.9861 169.937 34.4661 171.281 34.4661ZM184.491 36.8981C183.979 36.8981 183.584 36.7594 183.307 36.4821C183.029 36.1834 182.891 35.7781 182.891 35.2661V22.4661C182.891 21.9327 183.029 21.5274 183.307 21.2501C183.584 20.9727 183.968 20.8341 184.459 20.8341C184.971 20.8341 185.355 20.9727 185.611 21.2501C185.888 21.5274 186.027 21.9327 186.027 22.4661V24.9621L185.675 24.3861C186.144 23.1914 186.88 22.2954 187.883 21.6981C188.885 21.0794 190.037 20.7701 191.339 20.7701C192.576 20.7701 193.6 21.0047 194.411 21.4741C195.243 21.9221 195.861 22.6154 196.267 23.5541C196.672 24.4714 196.875 25.6341 196.875 27.0421V35.2661C196.875 35.7781 196.736 36.1834 196.459 36.4821C196.181 36.7594 195.787 36.8981 195.275 36.8981C194.741 36.8981 194.336 36.7594 194.059 36.4821C193.781 36.1834 193.643 35.7781 193.643 35.2661V27.2341C193.643 25.8901 193.376 24.9087 192.843 24.2901C192.331 23.6714 191.52 23.3621 190.411 23.3621C189.109 23.3621 188.064 23.7674 187.275 24.5781C186.507 25.3887 186.123 26.4767 186.123 27.8421V35.2661C186.123 36.3541 185.579 36.8981 184.491 36.8981Z" fill="white"/>
</svg>
