<svg width="199" height="52" viewBox="0 0 199 52" fill="none" xmlns="http://www.w3.org/2000/svg">
<path d="M33.2802 51.6741H17.0695C7.62224 51.6741 0 43.9933 0 34.5938V17.4062C0 7.95296 7.67592 0.325928 17.0695 0.325928H33.2802C42.7275 0.325928 50.3497 8.00667 50.3497 17.4062V34.5401C50.4034 43.9933 42.7275 51.6741 33.2802 51.6741Z" fill="#6C63FF"/>
<path d="M16.3179 9.34998C21.4709 9.77967 26.4093 11.8207 30.2741 15.2045C34.9441 19.1792 37.3059 24.6577 37.3059 31.6402V31.6939C37.3059 37.7633 32.3676 42.6511 26.3556 42.6511C26.302 42.6511 26.1946 42.6511 26.1409 42.6511H25.7652C20.5047 42.5436 16.3179 38.2467 16.3716 32.983L16.3179 9.34998Z" fill="white"/>
<path d="M70.766 37C70.19 37 69.742 36.8507 69.422 36.552C69.1233 36.232 68.974 35.784 68.974 35.208V16.232C68.974 15.656 69.1233 15.2187 69.422 14.92C69.742 14.6 70.19 14.44 70.766 14.44H76.942C80.654 14.44 83.5127 15.4107 85.518 17.352C87.5447 19.272 88.558 22.056 88.558 25.704C88.558 27.5173 88.302 29.128 87.79 30.536C87.278 31.944 86.5207 33.128 85.518 34.088C84.5367 35.0267 83.3313 35.752 81.902 36.264C80.4727 36.7547 78.8193 37 76.942 37H70.766ZM72.302 34.216H76.75C78.158 34.216 79.374 34.0453 80.398 33.704C81.4433 33.3413 82.318 32.808 83.022 32.104C83.726 31.4 84.2487 30.5147 84.59 29.448C84.9313 28.3813 85.102 27.1333 85.102 25.704C85.102 22.8667 84.398 20.744 82.99 19.336C81.6033 17.928 79.5233 17.224 76.75 17.224H72.302V34.216ZM99.7373 37.288C98.1586 37.288 96.7933 36.9573 95.6413 36.296C94.5106 35.6347 93.6253 34.696 92.9853 33.48C92.3453 32.264 92.0253 30.8347 92.0253 29.192C92.0253 27.9333 92.2066 26.8133 92.5693 25.832C92.9319 24.8507 93.4439 24.008 94.1053 23.304C94.7879 22.5787 95.5986 22.0347 96.5373 21.672C97.4973 21.288 98.5639 21.096 99.7373 21.096C101.295 21.096 102.639 21.4267 103.769 22.088C104.921 22.7493 105.817 23.688 106.457 24.904C107.097 26.0987 107.417 27.528 107.417 29.192C107.417 30.4293 107.236 31.5493 106.873 32.552C106.511 33.5547 105.988 34.408 105.305 35.112C104.644 35.816 103.833 36.36 102.873 36.744C101.935 37.1067 100.889 37.288 99.7373 37.288ZM99.7373 34.792C100.612 34.792 101.38 34.5787 102.041 34.152C102.703 33.7253 103.215 33.096 103.577 32.264C103.961 31.432 104.153 30.408 104.153 29.192C104.153 27.3573 103.748 25.9707 102.937 25.032C102.127 24.0933 101.06 23.624 99.7373 23.624C98.8413 23.624 98.0626 23.8373 97.4013 24.264C96.7399 24.6693 96.2173 25.288 95.8333 26.12C95.4706 26.952 95.2893 27.976 95.2893 29.192C95.2893 31.0053 95.6946 32.392 96.5053 33.352C97.3159 34.312 98.3933 34.792 99.7373 34.792ZM116.371 37.288C114.707 37.288 113.448 36.808 112.595 35.848C111.763 34.8667 111.347 33.4587 111.347 31.624V15.848C111.347 15.3147 111.486 14.9093 111.763 14.632C112.04 14.3547 112.435 14.216 112.947 14.216C113.459 14.216 113.854 14.3547 114.131 14.632C114.43 14.9093 114.579 15.3147 114.579 15.848V31.432C114.579 32.4987 114.792 33.2987 115.219 33.832C115.667 34.344 116.307 34.6 117.139 34.6C117.331 34.6 117.502 34.6 117.651 34.6C117.8 34.5787 117.95 34.5573 118.099 34.536C118.355 34.5147 118.536 34.5893 118.643 34.76C118.75 34.9093 118.803 35.2293 118.803 35.72C118.803 36.168 118.707 36.52 118.515 36.776C118.323 37.0107 118.014 37.16 117.587 37.224C117.395 37.2453 117.192 37.256 116.979 37.256C116.766 37.2773 116.563 37.288 116.371 37.288ZM123.028 37.192C122.516 37.192 122.122 37.0427 121.844 36.744C121.567 36.424 121.428 35.9867 121.428 35.432V22.952C121.428 22.3973 121.567 21.9707 121.844 21.672C122.122 21.3733 122.516 21.224 123.028 21.224C123.54 21.224 123.935 21.3733 124.212 21.672C124.511 21.9707 124.66 22.3973 124.66 22.952V35.432C124.66 35.9867 124.522 36.424 124.244 36.744C123.967 37.0427 123.562 37.192 123.028 37.192ZM123.028 17.896C122.388 17.896 121.887 17.736 121.524 17.416C121.183 17.096 121.012 16.648 121.012 16.072C121.012 15.4747 121.183 15.0267 121.524 14.728C121.887 14.408 122.388 14.248 123.028 14.248C123.668 14.248 124.159 14.408 124.5 14.728C124.863 15.0267 125.044 15.4747 125.044 16.072C125.044 16.648 124.863 17.096 124.5 17.416C124.159 17.736 123.668 17.896 123.028 17.896ZM135.462 37.288C134.096 37.288 132.891 36.968 131.846 36.328C130.822 35.6667 130.022 34.728 129.446 33.512C128.87 32.2747 128.582 30.8347 128.582 29.192C128.582 27.5067 128.87 26.0667 129.446 24.872C130.022 23.6773 130.822 22.7493 131.846 22.088C132.891 21.4267 134.096 21.096 135.462 21.096C136.827 21.096 138 21.4373 138.982 22.12C139.984 22.7813 140.656 23.6773 140.998 24.808H140.646V15.848C140.646 15.3147 140.784 14.9093 141.062 14.632C141.339 14.3547 141.734 14.216 142.246 14.216C142.758 14.216 143.152 14.3547 143.43 14.632C143.728 14.9093 143.878 15.3147 143.878 15.848V35.592C143.878 36.104 143.739 36.5093 143.462 36.808C143.184 37.0853 142.79 37.224 142.278 37.224C141.766 37.224 141.371 37.0853 141.094 36.808C140.816 36.5093 140.678 36.104 140.678 35.592V32.776L141.03 33.48C140.688 34.632 140.016 35.56 139.014 36.264C138.032 36.9467 136.848 37.288 135.462 37.288ZM136.294 34.792C137.168 34.792 137.936 34.5787 138.598 34.152C139.259 33.7253 139.771 33.096 140.134 32.264C140.518 31.432 140.71 30.408 140.71 29.192C140.71 27.3573 140.304 25.9707 139.494 25.032C138.683 24.0933 137.616 23.624 136.294 23.624C135.398 23.624 134.619 23.8373 133.958 24.264C133.296 24.6693 132.774 25.288 132.39 26.12C132.027 26.952 131.846 27.976 131.846 29.192C131.846 31.0053 132.251 32.392 133.062 33.352C133.872 34.312 134.95 34.792 136.294 34.792ZM149.324 37C148.982 37 148.705 36.9253 148.492 36.776C148.278 36.6053 148.129 36.392 148.044 36.136C147.98 35.8587 147.98 35.5707 148.044 35.272C148.129 34.952 148.3 34.6533 148.556 34.376L157.26 23.08V23.88H149.132C148.726 23.88 148.417 23.7733 148.204 23.56C147.99 23.3253 147.884 23.016 147.884 22.632C147.884 22.2267 147.99 21.9173 148.204 21.704C148.417 21.4907 148.726 21.384 149.132 21.384H158.796C159.201 21.384 159.521 21.4693 159.756 21.64C160.012 21.8107 160.172 22.024 160.236 22.28C160.321 22.536 160.332 22.8133 160.268 23.112C160.204 23.4107 160.044 23.6987 159.788 23.976L150.956 35.4V34.536H159.5C160.353 34.536 160.78 34.9413 160.78 35.752C160.78 36.136 160.662 36.4453 160.428 36.68C160.214 36.8933 159.905 37 159.5 37H149.324ZM170.456 37.288C168.877 37.288 167.512 36.9573 166.36 36.296C165.229 35.6347 164.344 34.696 163.704 33.48C163.064 32.264 162.744 30.8347 162.744 29.192C162.744 27.9333 162.925 26.8133 163.288 25.832C163.651 24.8507 164.163 24.008 164.824 23.304C165.507 22.5787 166.317 22.0347 167.256 21.672C168.216 21.288 169.283 21.096 170.456 21.096C172.013 21.096 173.357 21.4267 174.488 22.088C175.64 22.7493 176.536 23.688 177.176 24.904C177.816 26.0987 178.136 27.528 178.136 29.192C178.136 30.4293 177.955 31.5493 177.592 32.552C177.229 33.5547 176.707 34.408 176.024 35.112C175.363 35.816 174.552 36.36 173.592 36.744C172.653 37.1067 171.608 37.288 170.456 37.288ZM170.456 34.792C171.331 34.792 172.099 34.5787 172.76 34.152C173.421 33.7253 173.933 33.096 174.296 32.264C174.68 31.432 174.872 30.408 174.872 29.192C174.872 27.3573 174.467 25.9707 173.656 25.032C172.845 24.0933 171.779 23.624 170.456 23.624C169.56 23.624 168.781 23.8373 168.12 24.264C167.459 24.6693 166.936 25.288 166.552 26.12C166.189 26.952 166.008 27.976 166.008 29.192C166.008 31.0053 166.413 32.392 167.224 33.352C168.035 34.312 169.112 34.792 170.456 34.792ZM183.666 37.224C183.154 37.224 182.759 37.0853 182.482 36.808C182.204 36.5093 182.066 36.104 182.066 35.592V22.792C182.066 22.2587 182.204 21.8533 182.482 21.576C182.759 21.2987 183.143 21.16 183.634 21.16C184.146 21.16 184.53 21.2987 184.786 21.576C185.063 21.8533 185.202 22.2587 185.202 22.792V25.288L184.85 24.712C185.319 23.5173 186.055 22.6213 187.058 22.024C188.06 21.4053 189.212 21.096 190.514 21.096C191.751 21.096 192.775 21.3307 193.586 21.8C194.418 22.248 195.036 22.9413 195.442 23.88C195.847 24.7973 196.05 25.96 196.05 27.368V35.592C196.05 36.104 195.911 36.5093 195.634 36.808C195.356 37.0853 194.962 37.224 194.45 37.224C193.916 37.224 193.511 37.0853 193.234 36.808C192.956 36.5093 192.818 36.104 192.818 35.592V27.56C192.818 26.216 192.551 25.2347 192.018 24.616C191.506 23.9973 190.695 23.688 189.586 23.688C188.284 23.688 187.239 24.0933 186.45 24.904C185.682 25.7147 185.298 26.8027 185.298 28.168V35.592C185.298 36.68 184.754 37.224 183.666 37.224Z" fill="#333745"/>
</svg>
