<svg width="48" height="49" viewBox="0 0 48 49" fill="none" xmlns="http://www.w3.org/2000/svg">
<rect y="0.348145" width="48" height="48" rx="24" fill="#F9FFFB"/>
<path d="M19.75 31.5149C21 32.2649 22.5 32.6816 24 32.6816C28.5833 32.6816 32.3333 28.9316 32.3333 24.3482C32.3333 19.7649 28.5833 16.0149 24 16.0149C19.4167 16.0149 15.6667 19.7649 15.6667 24.3482C15.6667 25.8482 16.0833 27.2649 16.75 28.5149L16.1071 30.9875C15.9124 31.7365 16.6056 32.4133 17.3497 32.2007L19.75 31.5149Z" stroke="#6C63FF" stroke-miterlimit="10" stroke-linecap="round" stroke-linejoin="round"/>
<path d="M27.75 26.7219C27.75 26.8569 27.72 26.9956 27.6561 27.1306C27.5923 27.2656 27.5096 27.3931 27.4007 27.5131C27.2167 27.7156 27.0139 27.8619 26.7848 27.9556C26.5595 28.0494 26.3153 28.0981 26.0525 28.0981C25.6694 28.0981 25.26 28.0081 24.8281 27.8244C24.3962 27.6406 23.9643 27.3931 23.5362 27.0819C23.1043 26.7669 22.6949 26.4181 22.3043 26.0319C21.9175 25.6419 21.5682 25.2331 21.2565 24.8056C20.9485 24.3781 20.7007 23.9506 20.5204 23.5269C20.3401 23.0994 20.25 22.6906 20.25 22.3006C20.25 22.0456 20.2951 21.8019 20.3852 21.5769C20.4753 21.3481 20.6181 21.1381 20.8171 20.9506C21.0575 20.7144 21.3204 20.5981 21.5983 20.5981C21.7034 20.5981 21.8086 20.6206 21.9025 20.6656C22.0001 20.7106 22.0865 20.7781 22.1541 20.8756L23.0254 22.1019C23.093 22.1956 23.1418 22.2819 23.1756 22.3644C23.2094 22.4431 23.2282 22.5219 23.2282 22.5931C23.2282 22.6831 23.2019 22.7731 23.1493 22.8594C23.1005 22.9456 23.0292 23.0356 22.939 23.1256L22.6536 23.4219C22.6123 23.4631 22.5935 23.5119 22.5935 23.5719C22.5935 23.6019 22.5973 23.6281 22.6048 23.6581C22.616 23.6881 22.6273 23.7106 22.6348 23.7331C22.7024 23.8569 22.8189 24.0181 22.9841 24.2131C23.1531 24.4081 23.3334 24.6069 23.5287 24.8056C23.7315 25.0044 23.9268 25.1881 24.1258 25.3569C24.3211 25.5219 24.4826 25.6344 24.6103 25.7019C24.6291 25.7094 24.6516 25.7206 24.6779 25.7319C24.7079 25.7431 24.738 25.7469 24.7718 25.7469C24.8356 25.7469 24.8845 25.7244 24.9258 25.6831L25.2112 25.4019C25.3051 25.3081 25.3952 25.2369 25.4816 25.1919C25.568 25.1394 25.6544 25.1131 25.7482 25.1131C25.8196 25.1131 25.8947 25.1281 25.9773 25.1619C26.06 25.1956 26.1463 25.2444 26.2402 25.3081L27.4834 26.1894C27.581 26.2569 27.6486 26.3356 27.6899 26.4294C27.7275 26.5231 27.75 26.6169 27.75 26.7219Z" stroke="#6C63FF" stroke-miterlimit="10"/>
</svg>
