<svg width="509" height="315" viewBox="0 0 509 315" fill="none" xmlns="http://www.w3.org/2000/svg">
<g clip-path="url(#clip0_22_325)">
<rect width="508" height="314.126" transform="translate(0.5 0.437195)" fill="#FAFAFA"/>
<path d="M508.5 220.583H0.5V314.563H508.5V220.583Z" fill="url(#paint0_linear_22_325)"/>
<path d="M504.789 223.661H3.46558V309.567H504.789V223.661Z" fill="white"/>
<path d="M325.683 241.194H34.2575V292.32H325.683V241.194Z" fill="#F5F5F5"/>
<path d="M438.73 244.459C435.171 240.752 430.627 238.14 425.635 236.928C420.642 235.716 415.407 235.954 410.546 237.616C405.684 239.278 401.397 242.293 398.19 246.308C394.982 250.323 392.986 255.171 392.438 260.281C391.889 265.392 392.809 270.553 395.091 275.158C397.373 279.763 400.922 283.621 405.32 286.278C409.718 288.935 414.782 290.281 419.918 290.157C425.054 290.034 430.048 288.447 434.314 285.581L453.82 305.884C453.94 306.008 454.083 306.108 454.241 306.178C454.399 306.247 454.57 306.284 454.742 306.288C454.915 306.291 455.087 306.26 455.247 306.197C455.408 306.133 455.555 306.039 455.679 305.919L460.538 301.255C460.663 301.136 460.763 300.993 460.832 300.835C460.901 300.676 460.939 300.506 460.942 300.333C460.945 300.16 460.914 299.988 460.851 299.828C460.788 299.667 460.693 299.52 460.573 299.396L441.067 279.094C444.809 273.967 446.627 267.685 446.2 261.351C445.772 255.017 443.128 249.036 438.73 244.459ZM432.653 277.1C429.901 279.747 426.426 281.518 422.668 282.189C418.91 282.86 415.038 282.401 411.54 280.87C408.043 279.34 405.078 276.806 403.02 273.589C400.962 270.372 399.903 266.617 399.978 262.799C400.053 258.981 401.258 255.27 403.441 252.137C405.623 249.003 408.686 246.588 412.24 245.196C415.795 243.804 419.683 243.497 423.412 244.315C427.141 245.133 430.543 247.039 433.189 249.792C436.735 253.484 438.67 258.433 438.57 263.551C438.469 268.67 436.341 273.539 432.653 277.089V277.1Z" fill="url(#paint1_linear_22_325)"/>
<path d="M404.979 257.801C402.805 257.801 402.805 261.176 404.979 261.176C407.152 261.176 407.146 257.801 404.979 257.801Z" fill="url(#paint2_linear_22_325)"/>
<path d="M420.109 246.988C417.357 246.906 414.629 247.526 412.182 248.791C409.736 250.056 407.652 251.923 406.126 254.216C405.206 255.662 407.822 256.938 408.742 255.499C411.073 251.832 415.53 249.506 420.337 249.629C422.766 249.713 425.137 250.395 427.24 251.615C429.343 252.835 431.112 254.556 432.391 256.623C433.312 258.145 435.73 256.763 434.809 255.254C431.867 250.416 426.145 247.128 420.109 246.988Z" fill="url(#paint3_linear_22_325)"/>
<path d="M438.73 241.492C435.171 237.785 430.627 235.173 425.635 233.961C420.642 232.749 415.407 232.988 410.546 234.649C405.684 236.311 401.397 239.327 398.19 243.342C394.982 247.356 392.986 252.204 392.438 257.315C391.889 262.425 392.809 267.586 395.091 272.191C397.373 276.796 400.922 280.654 405.32 283.311C409.718 285.968 414.782 287.314 419.918 287.191C425.054 287.067 430.048 285.48 434.314 282.615L453.82 302.917C453.94 303.041 454.083 303.141 454.241 303.211C454.399 303.28 454.57 303.318 454.742 303.321C454.915 303.324 455.087 303.293 455.247 303.23C455.408 303.166 455.555 303.072 455.679 302.952L460.538 298.289C460.663 298.169 460.763 298.026 460.832 297.868C460.901 297.709 460.939 297.539 460.942 297.366C460.945 297.193 460.914 297.022 460.851 296.861C460.788 296.7 460.693 296.553 460.573 296.429L441.072 276.115C444.811 270.989 446.626 264.709 446.198 258.377C445.769 252.046 443.126 246.067 438.73 241.492ZM432.653 274.134C429.901 276.78 426.426 278.551 422.668 279.222C418.91 279.893 415.038 279.434 411.54 277.903C408.043 276.373 405.078 273.839 403.02 270.622C400.962 267.405 399.903 263.651 399.978 259.832C400.053 256.014 401.258 252.303 403.441 249.17C405.623 246.037 408.686 243.621 412.24 242.229C415.795 240.837 419.683 240.53 423.412 241.348C427.141 242.167 430.543 244.072 433.189 246.825C436.735 250.517 438.67 255.466 438.57 260.585C438.469 265.703 436.341 270.572 432.653 274.122V274.134Z" fill="#6C63FF"/>
<path d="M404.979 254.84C402.805 254.84 402.805 258.215 404.979 258.215C407.152 258.215 407.146 254.84 404.979 254.84Z" fill="#6C63FF"/>
<path d="M420.109 244.021C417.357 243.939 414.629 244.56 412.182 245.824C409.736 247.089 407.652 248.956 406.126 251.249C405.206 252.695 407.822 253.971 408.742 252.532C411.073 248.865 415.53 246.539 420.337 246.662C422.766 246.746 425.137 247.428 427.24 248.648C429.343 249.868 431.112 251.589 432.391 253.657C433.312 255.178 435.73 253.796 434.809 252.287C431.867 247.449 426.145 244.155 420.109 244.021Z" fill="#6C63FF"/>
<path d="M267.42 37.7655H224.917V55.3921H249.387C247.109 66.5894 237.572 73.0187 224.917 73.0187C217.838 72.9146 211.085 70.0282 206.115 64.9832C201.146 59.9383 198.361 53.1399 198.361 46.0571C198.361 38.9744 201.146 32.176 206.115 27.131C211.085 22.0861 217.838 19.1996 224.917 19.0955C231.043 19.0882 236.98 21.2151 241.708 25.111L254.975 11.8385C249.437 6.97055 242.801 3.51923 235.636 1.78058C228.472 0.0419323 220.993 0.067854 213.841 1.85612C206.688 3.64438 200.076 7.14161 194.572 12.0479C189.068 16.9541 184.835 23.123 182.237 30.0253C179.639 36.9276 178.753 44.3574 179.655 51.6774C180.558 58.9974 183.222 65.9891 187.418 72.0529C191.615 78.1168 197.219 83.0716 203.751 86.4926C210.282 89.9137 217.545 91.6986 224.917 91.6945C247.721 91.6945 268.451 75.0996 268.451 46.0659C268.415 43.2695 268.069 40.4857 267.42 37.7655Z" fill="url(#paint4_linear_22_325)"/>
<mask id="mask0_22_325" style="mask-type:luminance" maskUnits="userSpaceOnUse" x="185" y="7" width="78" height="79">
<path d="M261.157 38.9604H224.783V54.0573H245.729C243.777 63.6459 235.608 69.1542 224.783 69.1542C218.663 69.1542 212.794 66.722 208.467 62.3926C204.139 58.0633 201.708 52.1914 201.708 46.0688C201.708 39.9462 204.139 34.0743 208.467 29.745C212.794 25.4156 218.663 22.9834 224.783 22.9834C230.028 22.9759 235.112 24.7957 239.162 28.1303L250.524 16.764C245.782 12.5882 240.099 9.62594 233.961 8.13152C227.823 6.6371 221.415 6.65515 215.286 8.18413C209.157 9.71311 203.49 12.7073 198.772 16.9098C194.054 21.1122 190.426 26.3973 188.2 32.3113C185.973 38.2253 185.214 44.5916 185.988 50.8637C186.762 57.1357 189.046 63.1261 192.644 68.3206C196.242 73.5151 201.046 77.7585 206.644 80.6865C212.242 83.6146 218.466 85.1398 224.783 85.1312C244.307 85.1312 262.071 70.9262 262.071 46.0775C262.031 43.6786 261.724 41.2916 261.157 38.9604Z" fill="white"/>
</mask>
<g mask="url(#mask0_22_325)">
<path d="M180.393 69.1483V22.9776L210.567 46.0601L180.393 69.1483Z" fill="#FBBC05"/>
<path d="M180.393 22.9776L210.567 46.0601L222.994 35.2299L265.567 28.3052V3.44492H180.393V22.9776Z" fill="#EA4335"/>
<path d="M180.393 69.1483L233.645 28.3052L247.669 30.0539L265.567 3.44492V88.681H180.393V69.1483Z" fill="#34A853"/>
<path d="M265.567 88.681L210.544 46.0601L203.441 40.7324L265.567 22.9776V88.681Z" fill="#4285F4"/>
</g>
<path d="M125.66 108.727C150.405 108.727 169.311 127.047 169.311 151.033C169.311 175.019 150.405 193.351 125.66 193.351C100.916 193.351 82.0389 175.025 82.0389 151.033C82.0389 127.041 100.916 108.727 125.66 108.727Z" fill="url(#paint5_linear_22_325)"/>
<path d="M123.784 136.513C123.883 135.044 123.994 133.599 124.198 132.124H90.9881V136.513C94.3266 136.723 97.566 137.038 100.893 137.242C107.156 144.866 113.419 152.496 119.787 160.219V172.069C116.239 172.384 112.685 172.594 109.137 172.909V176.732H141.927V172.885C138.379 172.67 134.825 172.571 131.277 172.466C131.382 168.292 131.487 164.008 131.592 159.829C137.75 154.396 143.827 148.964 149.869 143.508C152.997 143.298 156.132 143.094 159.365 142.779V137.679C150.073 137.784 140.884 137.889 131.592 138.093V142.383C135.035 142.593 138.484 142.692 141.927 142.797C137.441 146.661 132.943 150.421 128.457 154.291C123.86 148.649 119.269 142.907 114.672 137.259C117.725 136.939 120.749 136.735 123.784 136.513Z" fill="url(#paint6_linear_22_325)"/>
<path d="M199.73 112.918L174.56 111.659C174.141 131.617 173.721 151.674 173.308 171.632C177.275 172.046 181.348 172.466 185.31 172.885C190.099 152.826 194.906 132.837 199.73 112.918ZM172.131 193.252H186.539V181.244L170.878 179.991C171.292 184.479 171.717 188.868 172.131 193.252Z" fill="url(#paint7_linear_22_325)"/>
<path d="M127.233 113.098C149.426 113.098 166.374 129.524 166.374 151.039C166.374 172.553 149.42 188.973 127.233 188.973C105.047 188.973 88.0924 172.542 88.0924 151.027C88.0924 129.513 105.041 113.098 127.233 113.098Z" fill="#6B0094"/>
<path d="M125.55 138.023C125.637 136.705 125.736 135.394 125.923 134.088H96.1443V138.023C99.1332 138.209 102.041 138.489 105.041 138.676C110.658 145.513 116.274 152.356 121.984 159.281V169.872C118.803 170.152 115.616 170.338 112.435 170.624V174.086H141.84V170.624C138.659 170.431 135.472 170.344 132.291 170.245C132.39 166.503 132.477 162.667 132.57 158.914C138.088 154.041 143.53 149.173 148.96 144.3C151.762 144.114 154.576 143.927 157.478 143.648V139.054C149.146 139.154 140.902 139.241 132.57 139.427V143.275C135.658 143.461 138.752 143.549 141.84 143.648C137.814 147.116 133.782 150.485 129.762 153.953C125.643 148.894 121.518 143.741 117.399 138.681C120.114 138.396 122.823 138.209 125.55 138.023Z" fill="white"/>
<path d="M193.624 116.852L171.053 115.721C170.674 133.616 170.301 151.604 169.928 169.505C173.483 169.878 177.136 170.251 180.695 170.63C185.003 152.642 189.313 134.716 193.624 116.852ZM168.903 188.892H181.826V178.12L167.784 176.995C168.151 181.023 168.53 184.957 168.903 188.892Z" fill="#6B0094"/>
<path d="M247.797 192.057L232.917 181.623V126.639L247.89 131.226V168.199L233.348 181.162L268.836 162.487L259.001 158.033L252.341 143.589L285.231 153.673V169.755L247.797 192.057Z" fill="url(#paint8_linear_22_325)"/>
<path d="M309.392 174.92H309.264V178.953H304.795V137.609L309.264 138.944V155.941H309.375C311.573 152.234 314.789 150.378 319.023 150.374C322.604 150.374 325.407 151.623 327.431 154.122C329.454 156.621 330.468 159.971 330.472 164.171C330.472 168.834 329.336 172.575 327.064 175.392C324.791 178.209 321.684 179.614 317.741 179.606C316.054 179.669 314.381 179.264 312.908 178.438C311.435 177.611 310.219 176.394 309.392 174.92ZM309.264 163.658V167.558C309.215 169.736 310.022 171.846 311.513 173.433C312.315 174.253 313.282 174.892 314.351 175.307C315.42 175.721 316.565 175.901 317.71 175.836C318.854 175.77 319.971 175.46 320.986 174.926C322 174.392 322.889 173.646 323.591 172.74C325.145 170.668 325.922 167.787 325.922 164.095C325.922 160.987 325.203 158.55 323.766 156.786C323.068 155.921 322.178 155.231 321.166 154.772C320.155 154.312 319.05 154.096 317.94 154.14C316.758 154.096 315.582 154.317 314.497 154.787C313.413 155.257 312.447 155.964 311.67 156.856C310.047 158.743 309.188 161.17 309.264 163.658Z" fill="url(#paint9_linear_22_325)"/>
<path d="M338.629 144.673C338.251 144.681 337.875 144.613 337.524 144.472C337.172 144.332 336.853 144.123 336.584 143.857C336.306 143.59 336.087 143.267 335.942 142.909C335.796 142.552 335.727 142.168 335.739 141.782C335.732 141.398 335.802 141.015 335.946 140.659C336.09 140.302 336.304 139.978 336.576 139.706C336.848 139.434 337.172 139.219 337.529 139.075C337.885 138.931 338.268 138.861 338.652 138.868C339.038 138.862 339.42 138.932 339.778 139.075C340.137 139.219 340.463 139.431 340.738 139.701C341.01 139.972 341.226 140.294 341.373 140.649C341.521 141.003 341.597 141.384 341.597 141.768C341.597 142.152 341.521 142.532 341.373 142.887C341.226 143.241 341.01 143.563 340.738 143.834C340.462 144.111 340.133 144.328 339.77 144.472C339.407 144.616 339.019 144.685 338.629 144.673ZM340.808 178.977H336.339V151.027H340.808V178.977Z" fill="url(#paint10_linear_22_325)"/>
<path d="M371.413 178.959H366.945V163.029C366.945 157.103 364.781 154.14 360.454 154.14C359.4 154.118 358.354 154.333 357.394 154.77C356.433 155.207 355.584 155.854 354.907 156.664C353.407 158.439 352.624 160.711 352.711 163.035V178.965H348.242V151.027H352.711V155.69H352.822C354.931 152.162 357.984 150.397 361.98 150.397C365.033 150.397 367.364 151.385 368.972 153.359C370.58 155.333 371.388 158.183 371.396 161.91L371.413 178.959Z" fill="url(#paint11_linear_22_325)"/>
<path d="M403.067 176.733C403.067 186.987 398.16 192.115 388.344 192.115C385.205 192.187 382.093 191.51 379.267 190.139L380.491 186.135C383.223 187.487 385.734 188.239 388.251 188.239C394.893 188.239 398.57 184.631 398.57 177.321V174.267H398.459C396.334 177.83 393.136 179.612 388.863 179.612C387.275 179.667 385.695 179.361 384.242 178.715C382.79 178.07 381.503 177.103 380.479 175.887C378.364 173.404 377.21 170.029 377.21 165.844C377.21 161.099 378.44 157.369 380.706 154.571C382.973 151.773 386.171 150.293 390.133 150.293C393.897 150.293 396.618 151.657 398.436 154.676H398.546V151.027H403.067V176.733ZM398.599 166.34V162.219C398.604 160.113 397.785 158.089 396.317 156.58C394.849 155.071 392.849 154.197 390.745 154.145C384.272 154.145 381.959 160.039 381.912 165.599C381.912 170.909 384.61 175.648 390.116 175.648C395.622 175.648 398.517 171.282 398.57 166.328L398.599 166.34Z" fill="url(#paint12_linear_22_325)"/>
<path d="M251.642 190.267L237.601 180.399V128.428L251.753 132.765V167.709L238.009 179.95L271.551 162.294L262.229 158.086L255.936 144.435L287.025 154V169.155L251.642 190.267Z" fill="#F4BD27"/>
<path d="M309.847 174.069H309.742V177.898H305.535V138.845L309.759 140.104V156.168H309.847C311.925 152.671 314.966 150.922 318.971 150.922C322.354 150.922 325.003 152.103 326.918 154.466C328.833 156.829 329.79 159.996 329.79 163.967C329.79 168.385 328.716 171.922 326.568 174.576C324.42 177.23 321.488 178.532 317.771 178.481C316.172 178.548 314.585 178.171 313.187 177.392C311.789 176.614 310.633 175.463 309.847 174.069ZM309.742 163.419V167.103C309.701 169.163 310.471 171.156 311.886 172.652C312.643 173.428 313.557 174.033 314.568 174.425C315.578 174.817 316.661 174.987 317.743 174.925C318.825 174.862 319.881 174.568 320.839 174.063C321.798 173.557 322.637 172.851 323.3 171.994C324.752 170.051 325.479 167.33 325.479 163.833C325.479 160.895 324.801 158.593 323.445 156.926C322.785 156.108 321.943 155.456 320.986 155.021C320.029 154.587 318.984 154.383 317.934 154.425C316.817 154.383 315.706 154.592 314.681 155.036C313.655 155.48 312.742 156.147 312.008 156.99C310.49 158.774 309.69 161.06 309.765 163.402L309.742 163.419Z" fill="#F4BD27"/>
<path d="M337.498 145.455C337.141 145.461 336.785 145.396 336.453 145.263C336.12 145.13 335.818 144.931 335.564 144.679C335.302 144.427 335.095 144.122 334.958 143.785C334.82 143.447 334.755 143.085 334.766 142.721C334.759 142.359 334.825 141.999 334.959 141.663C335.094 141.327 335.294 141.021 335.549 140.764C335.804 140.507 336.108 140.303 336.443 140.166C336.777 140.029 337.137 139.96 337.498 139.964C337.863 139.957 338.224 140.023 338.563 140.158C338.901 140.293 339.209 140.495 339.468 140.751C339.725 141.006 339.93 141.311 340.069 141.646C340.209 141.981 340.28 142.34 340.28 142.703C340.28 143.066 340.209 143.426 340.069 143.761C339.93 144.096 339.725 144.4 339.468 144.656C339.21 144.915 338.903 145.12 338.565 145.257C338.226 145.394 337.864 145.461 337.498 145.455ZM339.561 177.898H335.337V151.487H339.561V177.898Z" fill="#F4BD27"/>
<path d="M368.483 177.898H364.259V162.831C364.259 157.227 362.214 154.425 358.123 154.425C357.127 154.404 356.138 154.608 355.23 155.02C354.323 155.433 353.519 156.044 352.88 156.809C351.464 158.489 350.725 160.635 350.806 162.831V177.898H346.582V151.487H350.806V155.871H350.911C352.903 152.537 355.789 150.87 359.568 150.87C362.454 150.87 364.663 151.802 366.193 153.668C367.723 155.533 368.488 158.226 368.488 161.746L368.483 177.898Z" fill="#F4BD27"/>
<path d="M398.406 175.771C398.406 185.462 393.769 190.308 384.493 190.308C381.536 190.376 378.604 189.741 375.94 188.454L377.106 184.666C379.692 185.942 382.07 186.653 384.441 186.653C390.722 186.653 394.194 183.243 394.194 176.336V173.422H394.089C392.054 176.795 389.026 178.481 385.006 178.481C383.507 178.537 382.014 178.251 380.642 177.645C379.269 177.039 378.052 176.129 377.082 174.984C375.084 172.652 373.994 169.446 373.994 165.494C373.994 161.006 375.16 157.485 377.315 154.839C379.471 152.193 382.483 150.794 386.229 150.794C389.784 150.794 392.359 152.082 394.078 154.932H394.182V151.487H398.406V175.771ZM394.153 165.949V162.055C394.159 160.069 393.388 158.16 392.005 156.734C390.623 155.309 388.738 154.48 386.754 154.425C380.636 154.425 378.451 159.992 378.405 165.25C378.405 170.268 380.957 174.745 386.16 174.745C391.362 174.745 394.101 170.63 394.153 165.949Z" fill="#F4BD27"/>
<path d="M407.175 84.2744C404.081 84.2744 400.859 86.536 400.859 86.536V85.0846C400.859 84.764 400.731 84.6358 400.417 84.6358H396.466C396.403 84.6284 396.339 84.6345 396.278 84.6536C396.217 84.6728 396.161 84.7046 396.113 84.7469C396.065 84.7893 396.026 84.8412 396 84.8994C395.974 84.9576 395.96 85.0207 395.959 85.0846V116.065C395.959 116.386 396.088 116.578 396.408 116.578H400.422C400.486 116.577 400.549 116.562 400.607 116.535C400.665 116.508 400.717 116.469 400.758 116.421C400.8 116.372 400.831 116.316 400.85 116.254C400.868 116.193 400.873 116.129 400.865 116.065V89.5437C402.119 88.8123 403.539 88.4112 404.99 88.3779C407.146 88.3779 408.841 89.4504 408.841 91.6421V116.077C408.835 116.145 408.844 116.214 408.867 116.279C408.89 116.343 408.928 116.402 408.976 116.451C409.024 116.5 409.082 116.538 409.147 116.562C409.211 116.586 409.28 116.595 409.348 116.59H413.293C413.357 116.589 413.42 116.574 413.477 116.547C413.535 116.52 413.587 116.481 413.629 116.432C413.67 116.384 413.702 116.327 413.72 116.266C413.738 116.205 413.744 116.14 413.735 116.077V90.2373C413.735 86.3494 411.347 84.2744 407.175 84.2744Z" fill="url(#paint13_linear_22_325)"/>
<path d="M437.885 68.7345H433.947C433.883 68.7271 433.819 68.7332 433.758 68.7524C433.697 68.7715 433.641 68.8033 433.593 68.8457C433.545 68.888 433.507 68.94 433.481 68.9981C433.454 69.0563 433.44 69.1194 433.44 69.1833V84.8106C432.167 84.2783 430.81 83.9763 429.431 83.9188C423.023 83.9188 418.618 90.0566 418.618 101.854C418.618 111.962 422.9 117.388 428.488 117.388C430.818 117.388 432.787 116.036 434.209 114.771L435.071 116.234C435.116 116.348 435.198 116.443 435.304 116.505C435.409 116.566 435.533 116.59 435.654 116.572H437.926C437.991 116.572 438.054 116.558 438.113 116.531C438.171 116.505 438.224 116.466 438.266 116.417C438.309 116.369 438.34 116.312 438.359 116.25C438.378 116.188 438.383 116.123 438.375 116.059V69.1775C438.375 68.8569 438.247 68.7287 437.932 68.7287L437.885 68.7345ZM423.827 100.793C423.827 94.2943 425.726 87.8533 429.606 87.8533C431.007 87.8655 432.36 88.3688 433.428 89.2756V112.183C432.365 112.806 431.164 113.156 429.933 113.203C425.691 113.197 423.827 108.208 423.827 100.811V100.793Z" fill="url(#paint14_linear_22_325)"/>
<path d="M453.01 83.9829C446.438 83.9829 443.193 92.5922 443.193 101.965C443.193 111.775 447.819 117.272 453.774 117.272C456.209 117.182 458.587 116.502 460.701 115.29C460.806 115.239 460.889 115.152 460.934 115.045C460.979 114.937 460.983 114.817 460.946 114.707L460.445 112.632C460.437 112.574 460.418 112.517 460.388 112.466C460.358 112.416 460.318 112.371 460.271 112.336C460.224 112.301 460.17 112.275 460.113 112.261C460.056 112.247 459.996 112.244 459.938 112.253C458.5 112.617 457.027 112.828 455.545 112.883C450.674 112.883 448.443 108.546 448.443 102.793V101.394C449.727 101.574 451.021 101.687 452.317 101.732H461.505V99.074C461.505 89.2581 458.073 84.0062 453.016 84.0062L453.01 83.9829ZM452.696 97.7217C451.239 97.7217 448.617 98.0831 448.617 98.0831C448.617 98.0831 448.652 97.028 448.781 96.0138C449.363 90.6337 450.633 87.9116 452.859 87.9116C454.782 87.9116 456.104 90.6978 456.419 95.5708C456.483 96.585 456.483 97.7217 456.483 97.7217H452.737H452.696Z" fill="url(#paint15_linear_22_325)"/>
<path d="M388.455 88.0049C386.993 85.1254 384.377 83.8663 381.417 83.8663C379.04 83.9899 376.705 84.5429 374.525 85.4985C374.134 85.6733 373.889 85.8307 373.889 86.1338C373.906 86.3408 373.972 86.5407 374.082 86.7167L375.428 89.5962C375.465 89.7112 375.537 89.8117 375.634 89.8837C375.731 89.9558 375.849 89.9959 375.969 89.9984C376.165 89.9827 376.351 89.9097 376.505 89.7885C378.451 88.5411 379.879 87.8592 381.003 87.8592C382.495 87.8592 383.509 88.8501 384.132 90.3423C384.747 92.1168 385.022 93.9916 384.942 95.8681C384.942 96.1537 384.942 96.5209 384.942 96.5209C383.58 95.7996 382.071 95.4008 380.531 95.3551C374.827 95.3551 371.751 100.782 371.751 106.582C371.751 112.836 375.346 117.418 379.669 117.418C382.075 117.418 384.254 116.001 385.711 114.223C385.711 114.223 386.486 116.077 386.591 116.298C386.624 116.401 386.693 116.487 386.785 116.543C386.877 116.599 386.986 116.619 387.092 116.601H389.422C389.486 116.6 389.549 116.586 389.607 116.559C389.665 116.532 389.717 116.492 389.758 116.444C389.8 116.396 389.831 116.339 389.85 116.278C389.868 116.216 389.873 116.152 389.865 116.089V98.0889C389.865 93.6706 389.644 90.3015 388.478 88.0049H388.455ZM384.959 111.548C383.982 112.557 382.657 113.153 381.254 113.215C380.672 113.213 380.101 113.065 379.591 112.784C379.082 112.503 378.652 112.098 378.341 111.606C377.42 110.335 376.995 108.377 376.995 106.214C376.995 102.787 378.259 99.2721 380.939 99.2721C382.403 99.2789 383.822 99.7801 384.965 100.694V111.554L384.959 111.548Z" fill="url(#paint16_linear_22_325)"/>
<path d="M482.352 84.6358H478.856C478.704 84.6259 478.554 84.667 478.428 84.7525C478.302 84.8381 478.209 84.9632 478.163 85.1079C477.941 85.6908 476.45 89.6136 475.832 91.2399C475.395 92.4057 474.224 95.7223 474.224 95.7223H474.09C474.09 95.7223 473.228 93.3034 472.762 92.1026C472.389 91.1233 470.431 85.9589 470.175 85.3178C470.041 84.9739 469.895 84.6358 469.388 84.6358H465.525C465.437 84.6408 465.351 84.6657 465.274 84.7088C465.197 84.7518 465.131 84.8118 465.08 84.8842C465.03 84.9566 464.997 85.0396 464.983 85.1268C464.969 85.214 464.975 85.3032 465.001 85.3877C465.141 85.6791 471.276 99.6743 471.276 99.6743C471.276 99.6743 464.686 115.348 464.494 115.698C464.442 115.788 464.415 115.889 464.416 115.993C464.417 116.097 464.445 116.198 464.497 116.287C464.55 116.376 464.626 116.449 464.716 116.5C464.807 116.55 464.909 116.575 465.013 116.572H468.386C468.969 116.572 469.184 116.269 469.359 115.785C469.843 114.427 470.565 112.533 471.59 109.607C472.266 107.666 473.338 104.268 473.338 104.268H473.455C473.455 104.268 474.62 107.736 475.063 108.867C476.164 111.734 477.58 115.477 477.726 115.861C477.871 116.246 478.098 116.561 478.495 116.561H482.305C482.684 116.561 482.888 116.129 482.684 115.75C482.258 114.853 478.605 106.005 476.1 100.193C476.1 100.193 482.655 85.7141 482.783 85.3585C482.911 85.003 482.87 84.6241 482.334 84.6241L482.352 84.6358Z" fill="url(#paint17_linear_22_325)"/>
<path d="M375.742 64.0714H371.303C371.149 64.0523 370.995 64.0898 370.867 64.1767C370.739 64.2635 370.648 64.394 370.609 64.5435C370.551 64.8233 363.956 84.9447 363.472 86.6467C363.134 87.8125 362.021 92.0327 361.759 93.0585L359.464 86.7866C358.881 85.038 353.562 70.1101 353.404 69.5097C353.317 69.1833 353.165 68.7753 352.594 68.7753H348.26C348.175 68.7793 348.092 68.8017 348.017 68.8409C347.942 68.8801 347.877 68.9352 347.825 69.0023C347.774 69.0695 347.737 69.147 347.719 69.2296C347.7 69.3122 347.7 69.3979 347.718 69.4806C347.828 69.7138 355.653 90.5579 358.788 98.5202V116.007C358.788 116.328 358.916 116.52 359.236 116.52H363.315C363.379 116.519 363.442 116.504 363.5 116.477C363.557 116.45 363.609 116.411 363.651 116.362C363.693 116.314 363.724 116.257 363.742 116.196C363.76 116.135 363.766 116.07 363.758 116.007V98.6368C366.391 91.2691 375.993 65.0506 376.127 64.7534C376.261 64.4561 376.22 64.0189 375.678 64.0189L375.742 64.0714Z" fill="url(#paint18_linear_22_325)"/>
<path d="M407.729 84.7174C404.85 84.7174 401.844 86.8216 401.844 86.8216V85.4693C401.844 85.172 401.727 85.0554 401.43 85.0554H397.754C397.695 85.0489 397.636 85.0547 397.58 85.0725C397.523 85.0902 397.471 85.1195 397.427 85.1584C397.382 85.1973 397.347 85.2451 397.322 85.2986C397.297 85.3521 397.283 85.4102 397.282 85.4693V114.317C397.282 114.614 397.399 114.795 397.696 114.795H401.43C401.49 114.793 401.549 114.78 401.602 114.754C401.656 114.729 401.704 114.693 401.743 114.648C401.782 114.603 401.812 114.55 401.829 114.493C401.846 114.436 401.851 114.376 401.844 114.317V89.6253C403.01 88.9387 404.331 88.5596 405.683 88.5236C407.688 88.5236 409.272 89.5204 409.272 91.5605V114.293C409.266 114.357 409.274 114.421 409.296 114.482C409.317 114.542 409.352 114.597 409.397 114.643C409.442 114.688 409.496 114.724 409.556 114.746C409.616 114.768 409.681 114.777 409.744 114.771H413.421C413.481 114.771 413.54 114.758 413.594 114.733C413.649 114.708 413.697 114.672 413.736 114.626C413.775 114.581 413.804 114.528 413.821 114.47C413.838 114.413 413.843 114.353 413.834 114.293V90.2723C413.84 86.6467 411.62 84.7174 407.729 84.7174Z" fill="#010202"/>
<path d="M436.324 70.25H432.648C432.589 70.2435 432.53 70.2493 432.473 70.2671C432.417 70.2848 432.365 70.314 432.32 70.353C432.276 70.3919 432.24 70.4396 432.215 70.4932C432.19 70.5467 432.177 70.6048 432.176 70.6639V85.2361C430.99 84.7413 429.725 84.4611 428.441 84.4084C422.469 84.4084 418.373 90.1208 418.373 101.108C418.373 110.522 422.358 115.57 427.561 115.57C429.752 115.57 431.564 114.311 432.892 113.133L433.696 114.497C433.736 114.599 433.809 114.685 433.903 114.742C433.996 114.799 434.106 114.823 434.215 114.812H436.33C436.389 114.811 436.448 114.797 436.502 114.772C436.556 114.747 436.604 114.71 436.643 114.665C436.682 114.62 436.711 114.567 436.728 114.51C436.746 114.453 436.751 114.393 436.743 114.334V70.6464C436.743 70.3491 436.627 70.2325 436.33 70.2325L436.324 70.25ZM423.232 100.117C423.232 94.0611 424.98 88.069 428.616 88.069C429.921 88.0797 431.18 88.5479 432.176 89.3921V110.72C431.179 111.302 430.054 111.629 428.901 111.67C424.974 111.67 423.238 107.001 423.238 100.117H423.232Z" fill="#010202"/>
<path d="M450.406 84.4492C444.283 84.4492 441.265 92.464 441.265 101.19C441.265 110.324 445.576 115.442 451.111 115.442C453.379 115.36 455.592 114.728 457.561 113.6C457.667 113.551 457.75 113.463 457.793 113.354C457.835 113.245 457.833 113.124 457.788 113.017L457.322 111.087C457.316 111.032 457.298 110.979 457.271 110.931C457.243 110.883 457.206 110.842 457.162 110.808C457.118 110.775 457.068 110.751 457.014 110.738C456.96 110.725 456.904 110.723 456.85 110.732C455.515 111.068 454.148 111.264 452.772 111.315C448.239 111.315 446.159 107.281 446.159 101.918V100.619C447.355 100.787 448.558 100.892 449.765 100.933H458.318V98.4561C458.318 89.3164 455.12 84.4259 450.412 84.4259L450.406 84.4492ZM450.109 97.2437C448.757 97.2437 446.293 97.5759 446.293 97.5759C446.293 97.5759 446.328 96.5908 446.444 95.6466C446.974 90.6337 448.192 88.104 450.231 88.104C452.026 88.104 453.249 90.6978 453.546 95.2385C453.605 96.1828 453.605 97.2437 453.605 97.2437H450.109Z" fill="#010202"/>
<path d="M390.308 88.1972C388.95 85.5159 386.527 84.3443 383.753 84.3443C381.543 84.459 379.372 84.9724 377.344 85.8598C376.983 86.023 376.762 86.1688 376.762 86.4427C376.778 86.6333 376.84 86.8172 376.942 86.979L378.195 89.6603C378.229 89.7685 378.296 89.863 378.387 89.9302C378.478 89.9973 378.589 90.0335 378.702 90.0333C378.884 90.0201 379.059 89.9531 379.203 89.841C381.015 88.6752 382.343 88.0457 383.392 88.0457C384.785 88.0457 385.723 88.9666 386.305 90.3772C386.877 92.0303 387.132 93.7765 387.057 95.5242C387.057 95.7865 387.057 96.107 387.057 96.107C385.799 95.4319 384.404 95.0532 382.978 94.9996C377.665 94.9996 374.822 100.053 374.822 105.451C374.822 111.28 378.172 115.541 382.192 115.541C384.435 115.541 386.463 114.223 387.82 112.562C387.82 112.562 388.543 114.311 388.636 114.497C388.667 114.593 388.73 114.674 388.816 114.726C388.901 114.779 389.003 114.799 389.102 114.783H391.252C391.311 114.782 391.37 114.768 391.424 114.743C391.478 114.717 391.526 114.681 391.565 114.636C391.604 114.591 391.633 114.538 391.65 114.481C391.668 114.424 391.673 114.364 391.665 114.305V97.5818C391.665 93.4724 391.456 90.3364 390.372 88.1972H390.308ZM387.034 110.12C386.124 111.058 384.89 111.613 383.584 111.67C383.042 111.669 382.509 111.531 382.035 111.269C381.56 111.008 381.159 110.63 380.869 110.172C380.013 109.006 379.617 107.17 379.617 105.154C379.617 101.965 380.782 98.6892 383.287 98.6892C384.649 98.6956 385.969 99.1619 387.034 100.012V110.12Z" fill="#010202"/>
<path d="M477.726 85.0496H474.451C474.309 85.0404 474.169 85.0791 474.051 85.1594C473.934 85.2397 473.847 85.357 473.804 85.4926C473.595 86.0405 472.214 89.6894 471.643 91.1991C471.241 92.2775 470.146 95.3726 470.146 95.3726H470.017C470.017 95.3726 469.213 93.1226 468.782 91.9977C468.433 91.0884 466.609 86.2737 466.376 85.6791C466.254 85.3585 466.114 85.0438 465.648 85.0438H462.059C461.976 85.0458 461.894 85.0674 461.821 85.1066C461.748 85.1459 461.685 85.2018 461.637 85.2699C461.59 85.3379 461.559 85.4162 461.547 85.4984C461.535 85.5807 461.543 85.6645 461.569 85.7432C461.697 86.0114 467.396 99.0448 467.396 99.0448C467.396 99.0448 461.26 113.617 461.08 113.967C461.044 114.051 461.028 114.143 461.034 114.235C461.04 114.327 461.068 114.416 461.115 114.495C461.162 114.574 461.228 114.641 461.305 114.69C461.383 114.739 461.472 114.769 461.563 114.777H464.71C465.246 114.777 465.455 114.497 465.619 114.043C466.073 112.778 466.743 111.012 467.699 108.289C468.328 106.482 469.33 103.317 469.33 103.317H469.441C469.441 103.317 470.536 106.547 470.938 107.602C471.963 110.271 473.268 113.757 473.42 114.124C473.571 114.491 473.769 114.777 474.137 114.777H477.702C478.058 114.777 478.221 114.375 478.052 114.025C477.656 113.186 474.271 104.955 471.917 99.5403C471.917 99.5403 478.017 86.0638 478.133 85.7258C478.25 85.3877 478.215 85.0379 477.714 85.0379L477.726 85.0496Z" fill="#010202"/>
<path d="M378.469 65.9075H374.338C374.194 65.8876 374.049 65.922 373.929 66.0039C373.81 66.0858 373.725 66.2094 373.691 66.3505C373.639 66.6128 367.492 85.3702 367.049 86.9323C366.735 88.0398 365.698 91.9452 365.453 92.8836L363.315 87.0547C362.796 85.446 357.821 71.5265 357.675 70.9728C357.593 70.6697 357.453 70.285 356.917 70.285H352.886C352.803 70.287 352.721 70.3086 352.648 70.3478C352.575 70.3871 352.512 70.443 352.464 70.5111C352.417 70.5791 352.386 70.6574 352.374 70.7396C352.362 70.8219 352.37 70.9057 352.396 70.9844C352.495 71.2001 359.784 90.6104 362.726 98.0247V114.346C362.726 114.643 362.843 114.824 363.14 114.824H366.944C367.004 114.822 367.063 114.809 367.117 114.783C367.171 114.758 367.219 114.722 367.258 114.677C367.297 114.632 367.326 114.579 367.343 114.522C367.36 114.465 367.366 114.405 367.358 114.346V98.1413C369.811 91.2807 378.778 66.8692 378.871 66.5953C378.964 66.3213 378.952 65.9075 378.451 65.9075H378.469Z" fill="#E52620"/>
</g>
<defs>
<linearGradient id="paint0_linear_22_325" x1="254.497" y1="314.563" x2="254.497" y2="220.583" gradientUnits="userSpaceOnUse">
<stop stop-color="#808080" stop-opacity="0.25"/>
<stop offset="0.54" stop-color="#808080" stop-opacity="0.12"/>
<stop offset="1" stop-color="#808080" stop-opacity="0.1"/>
</linearGradient>
<linearGradient id="paint1_linear_22_325" x1="426.641" y1="306.286" x2="426.641" y2="236.17" gradientUnits="userSpaceOnUse">
<stop stop-color="#B3B3B3" stop-opacity="0.25"/>
<stop offset="0.54" stop-color="#B3B3B3" stop-opacity="0.1"/>
<stop offset="1" stop-color="#B3B3B3" stop-opacity="0.05"/>
</linearGradient>
<linearGradient id="paint2_linear_22_325" x1="404.979" y1="261.176" x2="404.979" y2="257.801" gradientUnits="userSpaceOnUse">
<stop stop-opacity="0.12"/>
<stop offset="0.55" stop-opacity="0.09"/>
<stop offset="1" stop-opacity="0.02"/>
</linearGradient>
<linearGradient id="paint3_linear_22_325" x1="420.476" y1="257.305" x2="420.476" y2="246.982" gradientUnits="userSpaceOnUse">
<stop stop-opacity="0.12"/>
<stop offset="0.55" stop-opacity="0.09"/>
<stop offset="1" stop-opacity="0.02"/>
</linearGradient>
<linearGradient id="paint4_linear_22_325" x1="223.88" y1="91.6946" x2="223.88" y2="0.43719" gradientUnits="userSpaceOnUse">
<stop stop-color="#808080" stop-opacity="0.25"/>
<stop offset="0.54" stop-color="#808080" stop-opacity="0.12"/>
<stop offset="1" stop-color="#808080" stop-opacity="0.1"/>
</linearGradient>
<linearGradient id="paint5_linear_22_325" x1="125.666" y1="193.357" x2="125.666" y2="108.727" gradientUnits="userSpaceOnUse">
<stop stop-color="#808080" stop-opacity="0.25"/>
<stop offset="0.54" stop-color="#808080" stop-opacity="0.12"/>
<stop offset="1" stop-color="#808080" stop-opacity="0.1"/>
</linearGradient>
<linearGradient id="paint6_linear_22_325" x1="125.194" y1="176.744" x2="125.194" y2="132.136" gradientUnits="userSpaceOnUse">
<stop stop-color="#808080" stop-opacity="0.25"/>
<stop offset="0.54" stop-color="#808080" stop-opacity="0.12"/>
<stop offset="1" stop-color="#808080" stop-opacity="0.1"/>
</linearGradient>
<linearGradient id="paint7_linear_22_325" x1="185.292" y1="193.252" x2="185.292" y2="111.653" gradientUnits="userSpaceOnUse">
<stop stop-color="#808080" stop-opacity="0.25"/>
<stop offset="0.54" stop-color="#808080" stop-opacity="0.12"/>
<stop offset="1" stop-color="#808080" stop-opacity="0.1"/>
</linearGradient>
<linearGradient id="paint8_linear_22_325" x1="259.071" y1="192.057" x2="259.071" y2="126.639" gradientUnits="userSpaceOnUse">
<stop stop-color="#808080" stop-opacity="0.25"/>
<stop offset="0.54" stop-color="#808080" stop-opacity="0.12"/>
<stop offset="1" stop-color="#808080" stop-opacity="0.1"/>
</linearGradient>
<linearGradient id="paint9_linear_22_325" x1="317.654" y1="179.612" x2="317.654" y2="137.609" gradientUnits="userSpaceOnUse">
<stop stop-color="#808080" stop-opacity="0.25"/>
<stop offset="0.54" stop-color="#808080" stop-opacity="0.12"/>
<stop offset="1" stop-color="#808080" stop-opacity="0.1"/>
</linearGradient>
<linearGradient id="paint10_linear_22_325" x1="338.658" y1="178.959" x2="338.658" y2="138.839" gradientUnits="userSpaceOnUse">
<stop stop-color="#808080" stop-opacity="0.25"/>
<stop offset="0.54" stop-color="#808080" stop-opacity="0.12"/>
<stop offset="1" stop-color="#808080" stop-opacity="0.1"/>
</linearGradient>
<linearGradient id="paint11_linear_22_325" x1="359.825" y1="178.959" x2="359.825" y2="150.374" gradientUnits="userSpaceOnUse">
<stop stop-color="#808080" stop-opacity="0.25"/>
<stop offset="0.54" stop-color="#808080" stop-opacity="0.12"/>
<stop offset="1" stop-color="#808080" stop-opacity="0.1"/>
</linearGradient>
<linearGradient id="paint12_linear_22_325" x1="390.127" y1="192.103" x2="390.127" y2="150.293" gradientUnits="userSpaceOnUse">
<stop stop-color="#808080" stop-opacity="0.25"/>
<stop offset="0.54" stop-color="#808080" stop-opacity="0.12"/>
<stop offset="1" stop-color="#808080" stop-opacity="0.1"/>
</linearGradient>
<linearGradient id="paint13_linear_22_325" x1="404.845" y1="116.572" x2="404.845" y2="84.2744" gradientUnits="userSpaceOnUse">
<stop stop-color="#808080" stop-opacity="0.25"/>
<stop offset="0.54" stop-color="#808080" stop-opacity="0.12"/>
<stop offset="1" stop-color="#808080" stop-opacity="0.1"/>
</linearGradient>
<linearGradient id="paint14_linear_22_325" x1="428.47" y1="117.388" x2="428.47" y2="68.7345" gradientUnits="userSpaceOnUse">
<stop stop-color="#808080" stop-opacity="0.25"/>
<stop offset="0.54" stop-color="#808080" stop-opacity="0.12"/>
<stop offset="1" stop-color="#808080" stop-opacity="0.1"/>
</linearGradient>
<linearGradient id="paint15_linear_22_325" x1="452.346" y1="117.272" x2="452.346" y2="83.9829" gradientUnits="userSpaceOnUse">
<stop stop-color="#808080" stop-opacity="0.25"/>
<stop offset="0.54" stop-color="#808080" stop-opacity="0.12"/>
<stop offset="1" stop-color="#808080" stop-opacity="0.1"/>
</linearGradient>
<linearGradient id="paint16_linear_22_325" x1="380.799" y1="117.388" x2="380.799" y2="83.8663" gradientUnits="userSpaceOnUse">
<stop stop-color="#808080" stop-opacity="0.25"/>
<stop offset="0.54" stop-color="#808080" stop-opacity="0.12"/>
<stop offset="1" stop-color="#808080" stop-opacity="0.1"/>
</linearGradient>
<linearGradient id="paint17_linear_22_325" x1="473.641" y1="116.572" x2="473.641" y2="84.6299" gradientUnits="userSpaceOnUse">
<stop stop-color="#808080" stop-opacity="0.25"/>
<stop offset="0.54" stop-color="#808080" stop-opacity="0.12"/>
<stop offset="1" stop-color="#808080" stop-opacity="0.1"/>
</linearGradient>
<linearGradient id="paint18_linear_22_325" x1="361.969" y1="116.572" x2="361.969" y2="64.0714" gradientUnits="userSpaceOnUse">
<stop stop-color="#808080" stop-opacity="0.25"/>
<stop offset="0.54" stop-color="#808080" stop-opacity="0.12"/>
<stop offset="1" stop-color="#808080" stop-opacity="0.1"/>
</linearGradient>
<clipPath id="clip0_22_325">
<rect width="508" height="314.126" fill="white" transform="translate(0.5 0.437195)"/>
</clipPath>
</defs>
</svg>
