<svg width="509" height="385" viewBox="0 0 509 385" fill="none" xmlns="http://www.w3.org/2000/svg">
<g clip-path="url(#clip0_22_561)">
<path d="M203.178 179.492C198.028 184.065 191.349 185.268 188.261 182.179C185.173 179.091 186.845 172.881 191.996 168.308C194.25 166.307 196.798 164.951 199.209 164.318L221.291 145.201L230.591 155.157L207.835 172.945C207.021 175.175 205.433 177.491 203.178 179.492Z" fill="#FFB6B6"/>
<path d="M319.353 376.219L308.708 376.218L303.644 337.528L319.355 337.529L319.353 376.219Z" fill="#FFB6B6"/>
<path d="M282.881 375.991C282.55 376.517 282.375 378.215 282.375 378.826C282.375 380.707 283.993 382.231 285.988 382.231H318.955C320.316 382.231 321.42 381.191 321.42 379.908V378.615C321.42 378.615 323.051 374.728 319.693 369.937C319.693 369.937 315.52 373.689 309.284 367.813L307.445 364.674L294.135 373.847L286.757 374.702C285.143 374.89 283.712 374.673 282.881 375.991Z" fill="#2F2E41"/>
<path d="M394.035 370.521L383.568 372.352L371.092 335.184L386.539 332.481L394.035 370.521Z" fill="#FFB6B6"/>
<path d="M358.132 376.573C357.908 377.147 358.065 378.846 358.184 379.447C358.548 381.296 360.434 382.516 362.396 382.173L394.808 376.501C396.147 376.266 397.03 375.054 396.782 373.793L396.531 372.522C396.531 372.522 397.381 368.419 393.152 364.287C393.152 364.287 389.776 368.693 382.506 363.989L380.09 361.219L368.781 372.528L361.693 374.639C360.142 375.101 358.693 375.134 358.132 376.573Z" fill="#2F2E41"/>
<path d="M367.949 185.012L394.17 350.435L369.761 353.435L327.31 222.435L322.004 357.435H299.253C299.253 357.435 279.603 208.435 285.415 190.435C291.227 172.435 367.949 185.012 367.949 185.012Z" fill="#2F2E41"/>
<path d="M311.391 52.4352H336.862L340.576 60.9352C340.576 60.9352 355.434 68.9352 355.434 71.9352C355.434 74.9352 364.455 150.435 364.455 150.435L369.23 191.935C369.23 191.935 313.513 218.435 285.92 191.435L291.227 145.435C291.227 145.435 286.982 73.4352 289.104 70.4352C291.227 67.4352 307.146 60.4352 307.146 60.4352L311.391 52.4352Z" fill="#6C63FF"/>
<path d="M303.425 65.3352C303.425 65.3352 311.187 76.3883 308.738 80.9352C306.289 85.4821 268.066 129.119 268.066 129.119L221.948 164.905L208.43 153.601L251.869 114.555L279.937 75.5518C284.403 67.5234 294.043 63.3305 303.425 65.3352Z" fill="#6C63FF"/>
<path d="M391.006 209.001C392.115 215.586 389.408 221.464 384.961 222.129C380.513 222.794 376.009 217.994 374.9 211.409C374.415 208.526 374.661 205.779 375.464 203.545L371.137 175.585L385.105 173.951L387.888 201.688C389.385 203.578 390.521 206.118 391.006 209.001Z" fill="#FFB6B6"/>
<path d="M336.68 66.4286C336.68 66.4286 358.643 61.7969 362.633 73.2735C366.623 84.7501 390.6 193.609 390.6 193.609L372.334 195.515L358.618 120.935L336.68 66.4286Z" fill="#6C63FF"/>
<path d="M324.999 46.8685C337.094 46.8685 346.898 37.6303 346.898 26.2344C346.898 14.8385 337.094 5.60028 324.999 5.60028C312.905 5.60028 303.101 14.8385 303.101 26.2344C303.101 37.6303 312.905 46.8685 324.999 46.8685Z" fill="#FFB6B6"/>
<path d="M337.812 43.7547C336.408 43.819 334.554 43.567 334.319 42.2611C334.153 41.3398 334.978 40.5457 335.754 39.9639C336.836 39.1528 337.977 38.3966 338.907 37.4323C339.837 36.468 340.553 35.2485 340.57 33.9457C340.588 32.643 339.764 31.2838 338.442 30.9047C337.119 30.5255 335.469 31.4523 335.449 32.755C334.174 30.9301 334.004 28.6308 333.937 26.4468C333.898 25.1687 333.881 23.8901 333.885 22.6115C333.892 20.8648 333.938 19.1185 333.985 17.3724C333.074 17.3271 325.718 19.9352 324.657 19.9352C323.744 19.9352 316.411 18.5636 316.899 16.5953C316.756 17.8533 309.76 20.1193 309.618 19.4609C309.475 18.8024 308.953 18.1074 308.241 18.1467C307.491 18.1882 307.083 18.9721 306.83 19.6395C306.267 21.1296 304.898 23.7048 303.431 22.9352C292.331 17.1101 301.281 15.2958 302.596 12.9269C304.213 10.0148 305.937 6.98524 308.814 5.1275C311.691 3.26976 313.961 1.05157 316.227 3.54955C321.912 -0.355094 327.553 0.586766 334.179 2.81333C340.805 5.03989 346.105 10.4877 347.885 16.9007C348.701 19.8402 350.886 21.13 349.258 23.7525C351.053 26.0206 350.08 24.7373 350.435 27.5467C350.715 29.7633 350.48 32.1029 349.314 34.0457C348.068 36.1212 345.862 37.5652 343.504 38.4306C341.146 39.296 340.738 43.6425 338.233 43.9828" fill="#2F2E41"/>
<path d="M446.602 366.483C448.794 366.612 450.006 364.046 448.347 362.55L448.182 361.932C448.204 361.882 448.226 361.833 448.248 361.783C450.465 356.801 457.98 356.836 460.178 361.825C462.129 366.253 464.614 370.689 465.225 375.371C465.5 377.438 465.376 379.543 464.889 381.571C469.461 372.161 471.867 361.885 471.867 351.551C471.867 348.954 471.717 346.358 471.408 343.768C471.155 341.649 470.805 339.544 470.353 337.457C467.906 326.18 462.607 315.439 454.964 306.468C451.29 304.575 448.226 301.617 446.375 298.071C445.71 296.792 445.189 295.417 444.943 294.015C445.361 294.067 446.519 288.066 446.204 287.698C446.786 286.865 447.829 286.451 448.466 285.638C451.631 281.594 455.991 282.3 458.268 287.795C463.131 290.108 463.178 293.943 460.194 297.632C458.296 299.979 458.035 303.154 456.369 305.667C456.541 305.873 456.719 306.074 456.89 306.28C460.033 310.078 462.751 314.16 465.042 318.449C464.394 313.683 465.35 307.941 466.98 304.239C468.835 300.022 472.313 296.47 475.375 292.824C479.054 288.445 486.597 290.356 487.245 295.908C487.251 295.961 487.257 296.015 487.263 296.069C486.808 296.311 486.362 296.568 485.927 296.839C483.444 298.386 484.302 302.013 487.244 302.441L487.311 302.45C487.146 303.994 486.865 305.525 486.454 307.03C490.383 321.345 481.901 326.559 469.791 326.794C469.523 326.923 469.263 327.052 468.995 327.175C470.222 330.43 471.203 333.769 471.929 337.154C472.58 340.144 473.033 343.167 473.286 346.203C473.602 350.033 473.574 353.882 473.232 357.706L473.252 357.57C474.123 353.359 476.549 349.426 480.072 346.7C485.321 342.637 492.736 341.141 498.399 337.876C501.125 336.304 504.617 338.335 504.142 341.313L504.118 341.455C503.275 341.778 502.453 342.153 501.658 342.573C501.203 342.815 500.757 343.071 500.322 343.343C497.839 344.89 498.697 348.517 501.639 348.944L501.706 348.954C501.754 348.961 501.795 348.967 501.843 348.973C500.396 352.209 498.381 355.213 495.859 357.803C493.402 370.3 482.852 371.486 471.566 367.846H471.559C470.325 372.91 468.522 377.858 466.206 382.572H447.081C447.013 382.372 446.951 382.166 446.889 381.965C448.658 382.069 450.44 381.972 452.181 381.668C450.762 380.028 449.343 378.374 447.924 376.734C447.89 376.701 447.863 376.669 447.835 376.637C447.115 375.797 446.389 374.964 445.669 374.124L445.669 374.123C445.624 371.546 445.952 368.976 446.602 366.483Z" fill="#F2F2F2"/>
<path d="M0.5 382.928C0.5 383.588 1.06251 384.118 1.76298 384.118H507.237C507.937 384.118 508.5 383.588 508.5 382.928C508.5 382.268 507.937 381.738 507.237 381.738H1.76298C1.06251 381.738 0.5 382.268 0.5 382.928Z" fill="#CCCCCC"/>
<path d="M114.575 274.73L114.431 272.734C118.572 272.469 122.723 271.935 126.77 271.145L127.2 273.104C123.059 273.912 118.812 274.459 114.575 274.73ZM101.819 274.552C97.5365 274.189 93.3028 273.611 89.2365 272.835L89.6583 270.874C93.6484 271.636 97.8044 272.204 102.01 272.56L101.819 274.552ZM139.472 269.866L138.76 267.981C142.661 266.673 146.503 265.097 150.179 263.297L151.158 265.073C147.396 266.915 143.464 268.527 139.472 269.866ZM76.9401 269.74C72.8743 268.455 68.9106 266.921 65.1593 265.177L66.0973 263.384C69.7641 265.087 73.6387 266.588 77.6148 267.843L76.9401 269.74ZM54.1554 259.118C50.6513 256.854 47.3001 254.331 44.1956 251.617L45.6393 250.15C48.6676 252.797 51.9369 255.259 55.3555 257.467L54.1554 259.118ZM162.034 258.825L160.808 257.192C164.188 254.938 167.437 252.444 170.462 249.78L171.911 251.241C168.816 253.966 165.493 256.518 162.034 258.825ZM35.5059 242.808C32.8651 239.703 30.4306 236.372 28.2708 232.909L30.101 231.895C32.2091 235.276 34.585 238.527 37.162 241.558L35.5059 242.808ZM180.61 242.467L178.964 241.204C181.583 238.173 184.003 234.948 186.156 231.618L187.969 232.659C185.765 236.066 183.29 239.366 180.61 242.467ZM22.5944 222.154C20.9833 218.486 19.6137 214.658 18.5239 210.775L20.576 210.263C21.6414 214.06 22.9805 217.803 24.5553 221.388L22.5944 222.154ZM193.841 221.998L191.895 221.199C193.548 217.621 194.951 213.898 196.068 210.134L198.111 210.673C196.969 214.524 195.533 218.335 193.841 221.998ZM16.0754 198.993C15.5329 195.041 15.2557 191.01 15.252 187.015L17.3746 187.013C17.3782 190.924 17.6492 194.869 18.1804 198.737L16.0754 198.993ZM200.691 198.914L198.588 198.644C199.145 194.79 199.427 190.85 199.427 186.935L199.426 186.755H201.549L201.549 186.927C201.549 190.94 201.26 194.97 200.691 198.914ZM18.1591 175.289L16.0532 175.035C16.5916 171.061 17.4077 167.096 18.4794 163.25L20.5325 163.758C19.4842 167.52 18.6856 171.4 18.1591 175.289ZM198.563 175.049C197.995 171.18 197.138 167.316 196.017 163.563L198.06 163.021C199.208 166.861 200.084 170.816 200.666 174.776L198.563 175.049ZM24.49 152.628L22.527 151.866C24.1506 148.151 26.0524 144.531 28.179 141.106L30.0114 142.116C27.9334 145.462 26.0757 148.998 24.49 152.628ZM191.823 152.514C190.167 148.946 188.231 145.448 186.068 142.117L187.879 141.073C190.092 144.482 192.073 148.062 193.768 151.713L191.823 152.514ZM178.862 132.549C176.242 129.529 173.377 126.648 170.345 123.987L171.791 122.524C174.893 125.246 177.825 128.193 180.506 131.284L178.862 132.549ZM37.0491 132.444L35.3898 131.197C38.0414 128.065 40.9558 125.098 44.051 122.379L45.4989 123.842C42.4788 126.495 39.6359 129.389 37.0491 132.444ZM160.674 116.589C157.282 114.338 153.7 112.288 150.024 110.497L150.999 108.72C154.76 110.553 158.427 112.651 161.896 114.955L160.674 116.589ZM55.197 116.504L53.9927 114.857C57.46 112.607 61.1573 110.56 64.9821 108.774L65.9253 110.566C62.1901 112.31 58.5808 114.308 55.197 116.504ZM77.4324 106.083L76.7536 104.188C80.695 102.935 84.8303 101.886 89.0443 101.073L89.4702 103.032C85.3417 103.829 81.2915 104.856 77.4324 106.083ZM138.59 105.832C134.685 104.53 130.645 103.473 126.583 102.688L127.009 100.729C131.167 101.532 135.301 102.614 139.298 103.946L138.59 105.832ZM101.818 101.326L101.624 99.3351C103.749 99.1515 105.933 99.0172 108.116 98.9361C110.182 98.9132 112.322 98.9996 114.38 99.1271L114.241 101.123C112.229 100.998 110.183 100.935 108.158 100.935C106.053 101.014 103.906 101.147 101.818 101.326Z" fill="#3F3D56"/>
<path d="M37.5112 268.757C53.3366 268.757 66.1656 256.669 66.1656 241.758C66.1656 226.846 53.3366 214.758 37.5112 214.758C21.6858 214.758 8.8568 226.846 8.8568 241.758C8.8568 256.669 21.6858 268.757 37.5112 268.757Z" fill="#6C63FF"/>
<path d="M26.2967 232.704C26.2967 231.868 27.034 231.19 27.9438 231.19H47.0786C47.9883 231.19 48.7257 231.868 48.7257 232.704V250.811C48.7257 251.647 47.9883 252.325 47.0786 252.325H27.9438C27.034 252.325 26.2967 251.647 26.2967 250.811V232.704ZM33.2259 248.882V239.339H29.8601V248.882H33.2259ZM31.5437 238.035C32.717 238.035 33.4473 237.303 33.4473 236.387C33.4263 235.45 32.7184 234.738 31.5661 234.738C30.4138 234.738 29.661 235.452 29.661 236.387C29.661 237.304 30.3914 238.035 31.5212 238.035H31.5437ZM38.4238 248.882V243.553C38.4238 243.267 38.4462 242.982 38.5359 242.779C38.7784 242.209 39.3321 241.619 40.2629 241.619C41.4811 241.619 41.9676 242.493 41.9676 243.777V248.882H45.3333V243.409C45.3333 240.476 43.6735 239.113 41.4587 239.113C39.6728 239.113 38.8723 240.038 38.4238 240.689V240.722H38.4013L38.4238 240.689V239.339H35.0594C35.1015 240.235 35.0594 248.882 35.0594 248.882H38.4238Z" fill="white"/>
<path d="M122.129 127.397C137.954 127.397 150.783 115.308 150.783 100.397C150.783 85.485 137.954 73.3967 122.129 73.3967C106.304 73.3967 93.4747 85.485 93.4747 100.397C93.4747 115.308 106.304 127.397 122.129 127.397Z" fill="#6C63FF"/>
<path fill-rule="evenodd" clip-rule="evenodd" d="M122.495 95.5054C124.062 93.5078 125.796 91.9352 128.012 91.9352C132.196 91.9352 135.642 96.9538 135.644 102.929C135.644 106.574 133.978 108.858 130.987 108.858C128.38 108.858 126.941 107.48 124.358 103.408L123.231 101.621L123.032 101.307C122.738 100.839 122.44 100.374 122.137 99.9112L120.147 103.222C117.321 107.878 115.729 108.858 113.52 108.858C110.449 108.858 108.614 106.606 108.614 103.034C108.614 97.3279 111.984 91.9352 116.381 91.9352C116.92 91.9352 117.437 91.9973 117.942 92.1294C118.466 92.2663 118.974 92.4795 119.485 92.7772C120.459 93.3486 121.434 94.2336 122.495 95.5054ZM125.056 99.0453C124.63 98.3927 124.221 97.7926 123.828 97.2419L123.817 97.2292C125.245 95.152 126.424 94.119 127.824 94.119C130.735 94.119 133.064 98.1571 133.064 103.117C133.064 105.008 132.405 106.104 131.046 106.104C129.74 106.104 129.117 105.293 126.637 101.536L125.054 99.0453H125.056ZM116.8 94.7302C118.025 94.8894 119.14 95.7394 120.753 97.9152C119.822 99.2582 118.902 100.608 117.991 101.963C115.699 105.347 114.907 106.106 113.631 106.106C112.319 106.106 111.537 105.021 111.537 103.082C111.537 98.9403 113.729 94.7032 116.344 94.7032C116.498 94.7032 116.65 94.7127 116.8 94.7318V94.7302Z" fill="white"/>
<path d="M29.9182 170.104C45.7435 170.104 58.5725 158.016 58.5725 143.104C58.5725 128.192 45.7435 116.104 29.9182 116.104C14.0928 116.104 1.26376 128.192 1.26376 143.104C1.26376 158.016 14.0928 170.104 29.9182 170.104Z" fill="#6C63FF"/>
<path d="M25.2936 152.629C34.6826 152.629 39.8188 145.298 39.8188 138.952C39.8188 138.747 39.8187 138.539 39.8094 138.334C40.8094 137.652 41.6724 136.807 42.358 135.84C41.424 136.228 40.4342 136.484 39.4207 136.599C40.4882 135.998 41.2878 135.052 41.6707 133.937C40.6677 134.497 39.57 134.89 38.4255 135.099C36.4938 133.16 33.2601 133.064 31.2029 134.885C29.8744 136.06 29.3108 137.813 29.7238 139.486C25.6191 139.292 21.7946 137.466 19.2012 134.461C17.8501 136.66 18.5428 139.47 20.7842 140.882C19.9749 140.856 19.1833 140.651 18.4735 140.284V140.35C18.4763 142.638 20.1868 144.609 22.5662 145.065C22.1281 145.179 21.6755 145.236 21.2211 145.234C20.9008 145.235 20.581 145.207 20.2663 145.15C20.9352 147.109 22.8521 148.45 25.0355 148.486C23.2263 149.825 20.9916 150.551 18.6912 150.548C18.2858 150.55 17.8807 150.528 17.4783 150.482C19.8131 151.885 22.5247 152.629 25.2936 152.629Z" fill="white"/>
<path d="M133.081 298.417C148.906 298.417 161.735 286.329 161.735 271.417C161.735 256.506 148.906 244.417 133.081 244.417C117.255 244.417 104.426 256.506 104.426 271.417C104.426 286.329 117.255 298.417 133.081 298.417Z" fill="#6C63FF"/>
<path d="M133.081 259.902C129.764 259.902 129.347 259.916 128.044 259.971C126.741 260.029 125.853 260.221 125.076 260.506C124.26 260.795 123.521 261.249 122.911 261.835C122.289 262.41 121.808 263.106 121.501 263.875C121.199 264.606 120.992 265.444 120.933 266.667C120.875 267.898 120.859 268.289 120.859 271.419C120.859 274.545 120.875 274.937 120.933 276.165C120.994 277.391 121.199 278.227 121.501 278.96C121.814 279.717 122.231 280.359 122.911 281C123.589 281.64 124.271 282.035 125.074 282.328C125.853 282.613 126.739 282.808 128.041 282.864C129.345 282.918 129.761 282.933 133.081 282.933C136.4 282.933 136.814 282.918 138.119 282.864C139.419 282.806 140.309 282.613 141.087 282.328C141.902 282.039 142.64 281.586 143.25 281C143.93 280.359 144.347 279.717 144.66 278.96C144.961 278.227 145.167 277.391 145.228 276.165C145.286 274.937 145.302 274.545 145.302 271.417C145.302 268.289 145.286 267.898 145.228 266.669C145.167 265.444 144.961 264.606 144.66 263.875C144.353 263.106 143.872 262.41 143.25 261.835C142.64 261.249 141.901 260.795 141.085 260.506C140.306 260.221 139.417 260.027 138.117 259.971C136.813 259.916 136.399 259.902 133.077 259.902H133.081ZM131.985 261.978H133.082C136.345 261.978 136.732 261.988 138.019 262.044C139.211 262.094 139.859 262.283 140.289 262.44C140.859 262.648 141.267 262.899 141.695 263.302C142.123 263.705 142.387 264.088 142.608 264.626C142.776 265.031 142.975 265.641 143.028 266.764C143.088 267.977 143.1 268.341 143.1 271.414C143.1 274.488 143.088 274.853 143.028 276.067C142.975 277.189 142.775 277.798 142.608 278.204C142.412 278.704 142.1 279.156 141.693 279.527C141.266 279.93 140.859 280.179 140.288 280.388C139.86 280.546 139.212 280.733 138.019 280.785C136.732 280.84 136.345 280.853 133.082 280.853C129.819 280.853 129.431 280.84 128.143 280.785C126.952 280.733 126.305 280.546 125.875 280.388C125.344 280.203 124.864 279.909 124.469 279.527C124.063 279.156 123.749 278.703 123.553 278.203C123.386 277.798 123.186 277.188 123.133 276.065C123.075 274.852 123.062 274.488 123.062 271.412C123.062 268.337 123.075 267.974 123.133 266.761C123.188 265.638 123.386 265.028 123.554 264.622C123.776 264.085 124.042 263.7 124.469 263.297C124.897 262.894 125.303 262.645 125.875 262.437C126.305 262.278 126.952 262.091 128.143 262.039C129.271 261.99 129.708 261.976 131.985 261.975L131.985 261.978ZM139.605 263.889C138.795 263.889 138.139 264.508 138.139 265.271C138.139 266.034 138.795 266.653 139.605 266.653C140.415 266.653 141.072 266.034 141.072 265.271C141.072 264.508 140.415 263.889 139.605 263.889ZM133.082 265.504C129.616 265.453 126.762 268.06 126.708 271.326C126.654 274.592 129.42 277.281 132.886 277.332C132.952 277.333 133.017 277.333 133.082 277.332C136.548 277.281 139.315 274.592 139.26 271.326C139.208 268.131 136.472 265.554 133.082 265.504ZM133.082 267.578C135.332 267.577 137.157 269.295 137.158 271.416C137.159 273.536 135.336 275.255 133.086 275.256H133.082C130.832 275.256 129.008 273.538 129.008 271.417C129.008 269.297 130.832 267.578 133.082 267.578Z" fill="white"/>
</g>
<defs>
<clipPath id="clip0_22_561">
<rect width="508" height="383.237" fill="white" transform="translate(0.5 0.881592)"/>
</clipPath>
</defs>
</svg>
