<svg width="509" height="385" viewBox="0 0 509 385" fill="none" xmlns="http://www.w3.org/2000/svg">
<path d="M293.246 18.738C297.603 28.0478 288.37 30.6848 277.793 35.6747C267.216 40.6646 259.301 46.1178 254.944 36.8081C250.586 27.4983 247.051 9.02022 262.013 1.96113C277.492 -5.34113 288.888 9.4283 293.246 18.738Z" fill="#2F2E41"/>
<path d="M271.666 37.0465C279.53 37.0465 285.905 30.6463 285.905 22.7512C285.905 14.8561 279.53 8.45581 271.666 8.45581C263.802 8.45581 257.427 14.8561 257.427 22.7512C257.427 30.6463 263.802 37.0465 271.666 37.0465Z" fill="#FFB8B8"/>
<path d="M342.207 86.1483C341.715 85.5022 341.222 84.8678 340.723 84.2509C340.08 83.4476 339.432 82.6697 338.781 81.9169C331.401 73.3668 323.552 67.983 314.908 67.4068H314.896L314.769 67.3951L297.545 84.2509L291.69 89.9781L291.817 90.2924L294.977 98.1906H350.335C347.841 94.0345 345.128 90.0147 342.207 86.1483Z" fill="#2F2E41"/>
<path d="M256.182 28.5065L261.279 26.1019L260.569 18.7198L263.978 24.8289L266.414 23.6796L266 19.3734L267.988 22.937L286.09 14.3971C284.389 10.7646 281.322 7.95904 277.561 6.59749C273.801 5.23593 269.655 5.42995 266.037 7.13685L263.414 8.37453C259.796 10.0814 257.001 13.1614 255.645 16.9369C254.289 20.7124 254.482 24.8741 256.182 28.5065Z" fill="#2F2E41"/>
<path d="M374.15 287.991H76.8431C74.307 287.988 71.8757 286.975 70.0824 285.175C68.2891 283.374 67.2804 280.933 67.2776 278.387V99.031C67.2796 97.1657 68.0186 95.3773 69.3323 94.0583C70.6461 92.7393 72.4273 91.9973 74.2853 91.9952H376.587C378.477 91.9973 380.289 92.7521 381.626 94.094C382.962 95.4358 383.714 97.2551 383.716 99.1527V278.387C383.713 280.933 382.704 283.374 380.911 285.175C379.118 286.975 376.686 287.988 374.15 287.991Z" fill="#F2F2F2"/>
<path d="M86.1187 278.387H364.875C367.335 278.387 369.694 277.406 371.434 275.66C373.173 273.913 374.15 271.545 374.15 269.075V116.845C374.15 114.375 373.173 112.006 371.434 110.26C369.694 108.513 367.335 107.532 364.875 107.532H86.1187C83.6587 107.532 81.2994 108.513 79.5599 110.26C77.8203 112.006 76.8431 114.375 76.8431 116.845V269.075C76.8431 271.545 77.8203 273.913 79.5599 275.66C81.2994 277.406 83.6587 278.387 86.1187 278.387Z" fill="white"/>
<path d="M383.583 98.4817H67.1433V93.5924C67.147 91.0378 68.1598 88.5889 69.9596 86.7831C71.7594 84.9773 74.1992 83.9619 76.7437 83.9598H373.982C376.527 83.9619 378.967 84.9773 380.766 86.7831C382.566 88.5889 383.579 91.0378 383.583 93.5924V98.4817Z" fill="#6C63FF"/>
<path d="M84.5905 93.7284C85.9619 93.7284 87.0737 92.6122 87.0737 91.2353C87.0737 89.8584 85.9619 88.7422 84.5905 88.7422C83.219 88.7422 82.1072 89.8584 82.1072 91.2353C82.1072 92.6122 83.219 93.7284 84.5905 93.7284Z" fill="white"/>
<path d="M94.0161 93.7284C95.3876 93.7284 96.4994 92.6122 96.4994 91.2353C96.4994 89.8584 95.3876 88.7422 94.0161 88.7422C92.6447 88.7422 91.5329 89.8584 91.5329 91.2353C91.5329 92.6122 92.6447 93.7284 94.0161 93.7284Z" fill="white"/>
<path d="M103.442 93.7284C104.813 93.7284 105.925 92.6122 105.925 91.2353C105.925 89.8584 104.813 88.7422 103.442 88.7422C102.07 88.7422 100.959 89.8584 100.959 91.2353C100.959 92.6122 102.07 93.7284 103.442 93.7284Z" fill="white"/>
<path d="M234.195 245.374H209.266C207.806 245.372 206.406 244.789 205.374 243.752C204.341 242.716 203.761 241.31 203.759 239.844V214.817C203.761 213.351 204.341 211.945 205.374 210.909C206.406 209.872 207.806 209.289 209.266 209.287H234.195C235.655 209.289 237.055 209.872 238.087 210.909C239.12 211.945 239.7 213.351 239.702 214.817V239.844C239.7 241.31 239.12 242.716 238.087 243.752C237.055 244.789 235.655 245.372 234.195 245.374ZM209.266 210.452C208.114 210.453 207.008 210.913 206.193 211.732C205.378 212.55 204.92 213.659 204.918 214.817V239.844C204.92 241.002 205.378 242.111 206.193 242.93C207.008 243.748 208.114 244.208 209.266 244.21H234.195C235.347 244.208 236.453 243.748 237.268 242.93C238.083 242.111 238.541 241.002 238.543 239.844V214.817C238.541 213.659 238.083 212.55 237.268 211.732C236.453 210.913 235.347 210.453 234.195 210.452H209.266Z" fill="#CCCCCC"/>
<path d="M229.267 238.389H214.194C213.733 238.389 213.291 238.205 212.965 237.877C212.639 237.55 212.455 237.106 212.455 236.643V218.018C212.455 217.555 212.639 217.111 212.965 216.784C213.291 216.456 213.733 216.272 214.194 216.272H225.116C225.512 216.272 225.896 216.408 226.205 216.657L230.356 220.006C230.56 220.169 230.724 220.376 230.836 220.612C230.949 220.847 231.007 221.106 231.006 221.367V236.643C231.006 237.106 230.822 237.55 230.496 237.877C230.17 238.205 229.728 238.389 229.267 238.389ZM214.194 217.436C214.04 217.436 213.893 217.498 213.784 217.607C213.676 217.716 213.614 217.864 213.614 218.018V236.643C213.614 236.797 213.676 236.945 213.784 237.054C213.893 237.164 214.04 237.225 214.194 237.225H229.267C229.421 237.225 229.568 237.164 229.677 237.054C229.785 236.945 229.847 236.797 229.847 236.643V221.367C229.847 221.28 229.828 221.194 229.79 221.115C229.753 221.037 229.698 220.968 229.63 220.913L225.479 217.564C225.376 217.481 225.248 217.436 225.116 217.436H214.194Z" fill="#CCCCCC"/>
<path d="M226.368 224.42H217.093C216.939 224.42 216.791 224.359 216.683 224.25C216.574 224.141 216.513 223.993 216.513 223.838C216.513 223.684 216.574 223.536 216.683 223.427C216.791 223.318 216.939 223.256 217.093 223.256H226.368C226.522 223.256 226.67 223.318 226.778 223.427C226.887 223.536 226.948 223.684 226.948 223.838C226.948 223.993 226.887 224.141 226.778 224.25C226.67 224.359 226.522 224.42 226.368 224.42Z" fill="#CCCCCC"/>
<path d="M226.368 227.913H217.093C216.939 227.913 216.791 227.851 216.683 227.742C216.574 227.633 216.513 227.485 216.513 227.331C216.513 227.176 216.574 227.028 216.683 226.919C216.791 226.81 216.939 226.748 217.093 226.748H226.368C226.522 226.748 226.67 226.81 226.778 226.919C226.887 227.028 226.948 227.176 226.948 227.331C226.948 227.485 226.887 227.633 226.778 227.742C226.67 227.851 226.522 227.913 226.368 227.913Z" fill="#CCCCCC"/>
<path d="M226.368 231.405H217.093C216.939 231.405 216.791 231.343 216.683 231.234C216.574 231.125 216.513 230.977 216.513 230.823C216.513 230.668 216.574 230.52 216.683 230.411C216.791 230.302 216.939 230.241 217.093 230.241H226.368C226.522 230.241 226.67 230.302 226.778 230.411C226.887 230.52 226.948 230.668 226.948 230.823C226.948 230.977 226.887 231.125 226.778 231.234C226.67 231.343 226.522 231.405 226.368 231.405Z" fill="#CCCCCC"/>
<path d="M293.327 245.374H268.399C266.939 245.372 265.539 244.789 264.506 243.752C263.474 242.716 262.893 241.31 262.891 239.844V214.817C262.893 213.351 263.474 211.945 264.506 210.909C265.539 209.872 266.939 209.289 268.399 209.287H293.327C294.787 209.289 296.187 209.872 297.22 210.909C298.252 211.945 298.833 213.351 298.834 214.817V239.844C298.833 241.31 298.252 242.716 297.22 243.752C296.187 244.789 294.787 245.372 293.327 245.374ZM268.399 210.452C267.246 210.453 266.141 210.913 265.326 211.732C264.51 212.55 264.052 213.659 264.051 214.817V239.844C264.052 241.002 264.51 242.111 265.326 242.93C266.141 243.748 267.246 244.208 268.399 244.21H293.327C294.48 244.208 295.585 243.748 296.4 242.93C297.215 242.111 297.674 241.002 297.675 239.844V214.817C297.674 213.659 297.215 212.55 296.4 211.732C295.585 210.913 294.48 210.453 293.327 210.452H268.399Z" fill="#CCCCCC"/>
<path d="M288.979 233.733H272.747C272.286 233.732 271.843 233.548 271.517 233.221C271.191 232.894 271.008 232.45 271.007 231.987V222.674C271.008 222.211 271.191 221.767 271.517 221.44C271.843 221.113 272.286 220.929 272.747 220.928H288.979C289.44 220.929 289.882 221.113 290.208 221.44C290.534 221.767 290.718 222.211 290.718 222.674V231.987C290.718 232.45 290.534 232.894 290.208 233.221C289.882 233.548 289.44 233.732 288.979 233.733ZM272.747 222.092C272.593 222.092 272.446 222.154 272.337 222.263C272.228 222.372 272.167 222.52 272.167 222.674V231.987C272.167 232.141 272.228 232.289 272.337 232.398C272.446 232.507 272.593 232.569 272.747 232.569H288.979C289.133 232.569 289.28 232.507 289.389 232.398C289.497 232.289 289.559 232.141 289.559 231.987V222.674C289.559 222.52 289.497 222.372 289.389 222.263C289.28 222.154 289.133 222.092 288.979 222.092H272.747Z" fill="#CCCCCC"/>
<path d="M280.863 228.866C280.537 228.867 280.218 228.775 279.941 228.603L271.28 223.168C271.15 223.086 271.057 222.955 271.023 222.805C270.989 222.655 271.015 222.497 271.096 222.366C271.178 222.235 271.308 222.142 271.457 222.108C271.607 222.073 271.764 222.099 271.895 222.181L280.556 227.615C280.648 227.673 280.755 227.703 280.863 227.703C280.972 227.703 281.078 227.673 281.17 227.615L289.831 222.181C289.961 222.099 290.119 222.073 290.268 222.108C290.418 222.142 290.548 222.235 290.629 222.366C290.711 222.497 290.737 222.655 290.703 222.805C290.668 222.955 290.576 223.086 290.446 223.168L281.785 228.603C281.508 228.775 281.189 228.867 280.863 228.866Z" fill="#CCCCCC"/>
<path d="M175.062 245.374H150.134C148.674 245.372 147.274 244.789 146.241 243.752C145.209 242.716 144.628 241.31 144.627 239.844V214.817C144.628 213.351 145.209 211.945 146.241 210.909C147.274 209.872 148.674 209.289 150.134 209.287H175.062C176.522 209.289 177.922 209.872 178.955 210.909C179.987 211.945 180.568 213.351 180.57 214.817V239.844C180.568 241.31 179.987 242.716 178.955 243.752C177.922 244.789 176.522 245.372 175.062 245.374ZM150.134 210.452C148.981 210.453 147.876 210.913 147.061 211.732C146.246 212.55 145.787 213.659 145.786 214.817V239.844C145.787 241.002 146.246 242.111 147.061 242.93C147.876 243.748 148.981 244.208 150.134 244.21H175.062C176.215 244.208 177.32 243.748 178.135 242.93C178.95 242.111 179.409 241.002 179.41 239.844V214.817C179.409 213.659 178.95 212.55 178.135 211.732C177.32 210.913 176.215 210.453 175.062 210.452H150.134Z" fill="#CCCCCC"/>
<path d="M170.714 233.733H154.482C154.021 233.732 153.579 233.548 153.253 233.221C152.927 232.894 152.743 232.45 152.743 231.987V222.674C152.743 222.211 152.927 221.767 153.253 221.44C153.579 221.113 154.021 220.929 154.482 220.928H170.714C171.175 220.929 171.618 221.113 171.944 221.44C172.27 221.767 172.453 222.211 172.454 222.674V231.987C172.453 232.45 172.27 232.894 171.944 233.221C171.618 233.548 171.175 233.732 170.714 233.733ZM154.482 222.092C154.328 222.092 154.181 222.154 154.072 222.263C153.963 222.372 153.902 222.52 153.902 222.674V231.987C153.902 232.141 153.963 232.289 154.072 232.398C154.181 232.507 154.328 232.569 154.482 232.569H170.714C170.868 232.569 171.015 232.507 171.124 232.398C171.233 232.289 171.294 232.141 171.294 231.987V222.674C171.294 222.52 171.233 222.372 171.124 222.263C171.015 222.154 170.868 222.092 170.714 222.092H154.482Z" fill="#CCCCCC"/>
<path d="M168.142 233.733H156.475C156.272 233.733 156.072 233.679 155.895 233.577C155.719 233.475 155.573 233.328 155.471 233.151C155.369 232.974 155.315 232.773 155.315 232.569C155.316 232.364 155.369 232.164 155.471 231.987L158.985 225.875C159.087 225.698 159.233 225.552 159.409 225.449C159.586 225.347 159.786 225.293 159.989 225.293C160.193 225.293 160.393 225.347 160.569 225.449C160.745 225.552 160.892 225.698 160.993 225.875L163.263 229.822L164.578 227.536C164.68 227.359 164.826 227.212 165.002 227.11C165.179 227.007 165.379 226.954 165.582 226.954C165.786 226.954 165.986 227.007 166.162 227.11C166.338 227.212 166.485 227.359 166.586 227.536L169.146 231.987C169.248 232.164 169.301 232.365 169.301 232.569C169.301 232.773 169.248 232.974 169.146 233.151C169.044 233.328 168.898 233.475 168.721 233.577C168.545 233.679 168.345 233.733 168.142 233.733ZM168.142 232.569L165.582 228.118L163.765 231.277C163.714 231.366 163.641 231.439 163.553 231.491C163.465 231.542 163.365 231.568 163.263 231.568C163.161 231.568 163.061 231.542 162.973 231.491C162.885 231.439 162.812 231.366 162.761 231.277L159.989 226.457L156.475 232.569H168.142Z" fill="#CCCCCC"/>
<path d="M168.975 225.584C169.615 225.584 170.135 225.063 170.135 224.42C170.135 223.777 169.615 223.256 168.975 223.256C168.335 223.256 167.816 223.777 167.816 224.42C167.816 225.063 168.335 225.584 168.975 225.584Z" fill="#CCCCCC"/>
<path d="M446.21 377.246L439.103 377.245L435.722 349.722L446.211 349.722L446.21 377.246Z" fill="#FFB8B8"/>
<path d="M448.023 384.163L425.106 384.162V383.871C425.106 382.695 425.336 381.53 425.785 380.444C426.233 379.357 426.89 378.37 427.718 377.538C428.546 376.707 429.53 376.047 430.612 375.597C431.694 375.147 432.854 374.915 434.026 374.915H434.026L448.023 374.916L448.023 384.163Z" fill="#2F2E41"/>
<path d="M475.197 377.246L468.089 377.245L464.708 349.722L475.198 349.722L475.197 377.246Z" fill="#FFB8B8"/>
<path d="M477.009 384.163L454.092 384.162V383.871C454.092 382.695 454.323 381.53 454.771 380.444C455.219 379.357 455.876 378.37 456.705 377.538C457.533 376.707 458.516 376.047 459.598 375.597C460.681 375.147 461.841 374.915 463.012 374.915H463.013L477.009 374.916L477.009 384.163Z" fill="#2F2E41"/>
<path d="M473.066 365.314L466.483 363.304C465.993 363.154 465.557 362.863 465.23 362.466C464.904 362.069 464.701 361.585 464.648 361.073L458.511 302.68C458.506 302.609 458.475 302.543 458.424 302.494C458.372 302.446 458.304 302.419 458.234 302.419C458.163 302.412 458.093 302.434 458.038 302.478C457.982 302.522 457.946 302.587 457.938 302.657L447.659 359.231C447.596 359.574 447.466 359.901 447.276 360.193C447.086 360.485 446.839 360.736 446.551 360.931C446.263 361.127 445.939 361.262 445.598 361.33C445.257 361.397 444.906 361.396 444.566 361.326L436.153 359.586C435.536 359.456 434.986 359.108 434.605 358.604C434.224 358.1 434.036 357.475 434.077 356.843L440.329 264.118L482.729 259.525L476.429 362.968C476.388 363.633 476.097 364.257 475.614 364.714C475.131 365.171 474.493 365.427 473.829 365.428C473.571 365.428 473.313 365.39 473.066 365.314Z" fill="#2F2E41"/>
<path d="M473.026 183.369C480.889 183.369 487.264 176.969 487.264 169.073C487.264 161.178 480.889 154.778 473.026 154.778C465.162 154.778 458.787 161.178 458.787 169.073C458.787 176.969 465.162 183.369 473.026 183.369Z" fill="#FFB8B8"/>
<path d="M440.264 264.663L449.457 206.546C449.946 203.456 451.085 200.506 452.798 197.892C454.511 195.278 456.758 193.061 459.391 191.387C462.024 189.713 464.982 188.621 468.067 188.184C471.153 187.747 474.296 187.975 477.288 188.852C482.518 190.371 486.996 193.793 489.847 198.449C492.699 203.105 493.719 208.661 492.709 214.032L483.091 265.933L440.264 264.663Z" fill="#6C63FF"/>
<path d="M476.956 275.061C477.668 274.59 478.267 273.967 478.713 273.238C479.159 272.509 479.44 271.69 479.536 270.84C479.633 269.99 479.543 269.129 479.272 268.318C479.001 267.506 478.556 266.765 477.969 266.144L487.475 247.664L476.77 248.811L469.385 266.184C468.412 267.244 467.861 268.625 467.835 270.065C467.809 271.505 468.31 272.905 469.243 273.999C470.177 275.093 471.477 275.806 472.899 276.002C474.321 276.197 475.764 275.863 476.956 275.061Z" fill="#FFB8B8"/>
<path d="M478.992 262.885C478.466 262.81 477.975 262.577 477.585 262.215L473.948 258.841C473.555 258.475 473.284 257.996 473.171 257.47C473.058 256.944 473.108 256.396 473.315 255.899L480.584 238.602L479.553 204.425C479.701 203.327 480.063 202.268 480.619 201.31C481.175 200.352 481.914 199.514 482.793 198.843C483.672 198.171 484.674 197.681 485.742 197.398C486.809 197.116 487.922 197.048 489.016 197.198C490.111 197.348 491.165 197.713 492.118 198.272C493.072 198.831 493.906 199.573 494.574 200.456C495.242 201.339 495.73 202.346 496.01 203.418C496.29 204.49 496.357 205.608 496.206 206.706L497.969 228.19C498.505 234.711 496.664 241.205 492.788 246.464L481.453 261.849C481.235 262.145 480.957 262.391 480.638 262.572C480.319 262.753 479.966 262.864 479.601 262.899C479.398 262.918 479.194 262.913 478.992 262.885Z" fill="#6C63FF"/>
<path d="M391.029 161.285C391.184 162.126 391.521 162.923 392.016 163.619C392.511 164.316 393.153 164.895 393.895 165.316C394.637 165.736 395.462 165.989 396.312 166.055C397.161 166.121 398.015 165.999 398.813 165.698L412.057 181.691L415.179 171.347L402.123 157.745C401.531 156.434 400.479 155.385 399.168 154.8C397.857 154.214 396.378 154.132 395.01 154.568C393.643 155.004 392.482 155.929 391.748 157.167C391.015 158.405 390.759 159.87 391.029 161.285Z" fill="#FFB8B8"/>
<path d="M401.404 167.914C401.677 167.457 402.083 167.094 402.567 166.875L407.079 164.828C407.568 164.607 408.113 164.543 408.64 164.644C409.166 164.744 409.65 165.004 410.024 165.39L423.055 178.853L454.805 191.225C455.755 191.791 456.585 192.538 457.247 193.426C457.909 194.313 458.391 195.323 458.664 196.398C458.937 197.472 458.996 198.59 458.839 199.687C458.681 200.785 458.31 201.841 457.746 202.794C457.182 203.747 456.436 204.579 455.551 205.243C454.666 205.907 453.66 206.389 452.59 206.662C451.519 206.935 450.406 206.993 449.313 206.834C448.22 206.675 447.169 206.301 446.22 205.733L425.827 198.986C419.637 196.94 414.399 192.705 411.086 187.071L401.394 170.593C401.208 170.277 401.09 169.924 401.049 169.558C401.008 169.193 401.043 168.822 401.154 168.472C401.215 168.276 401.299 168.089 401.404 167.914Z" fill="#6C63FF"/>
<path opacity="0.1" d="M484.575 218.642L483.995 237.268L473.315 255.899L482.233 235.136L484.575 218.642Z" fill="black"/>
<path d="M471.394 171.76C470.5 171.877 469.594 171.664 468.844 171.16C468.095 170.657 467.552 169.897 467.318 169.023C467.093 168.017 466.598 167.091 465.889 166.345C465.179 165.599 464.28 165.062 463.289 164.79C460.677 164.19 457.485 165.425 455.571 163.438C455.161 162.984 454.864 162.439 454.706 161.848C454.547 161.257 454.53 160.636 454.657 160.037C455.01 158.107 456.385 156.648 457.883 155.482C461.033 153.038 464.845 151.608 468.82 151.378C470.877 151.318 472.936 151.421 474.977 151.685C477.114 151.821 479.228 152.209 481.275 152.841C483.607 153.724 485.679 155.184 487.301 157.084C488.922 158.984 490.04 161.265 490.552 163.714C491.019 166.17 490.948 168.699 490.341 171.125C489.735 173.551 488.608 175.815 487.04 177.758C485.163 180.105 482.743 181.955 479.99 183.147C479.335 183.458 478.583 183.496 477.9 183.254C476.185 182.569 476.465 180.437 477.247 179.015C478.084 177.493 479.371 176.019 478.698 174.167C478.361 173.308 477.713 172.609 476.885 172.208C475.181 171.335 473.274 171.542 471.442 171.754L471.394 171.76Z" fill="#2F2E41"/>
<path d="M386.271 179.833H210.033C207.497 179.83 205.066 178.817 203.273 177.017C201.479 175.216 200.471 172.775 200.468 170.229V132.397C200.471 129.851 201.479 127.41 203.273 125.609C205.066 123.809 207.497 122.796 210.033 122.793H386.271C388.807 122.796 391.238 123.809 393.031 125.609C394.825 127.41 395.833 129.851 395.836 132.397V170.229C395.833 172.775 394.825 175.216 393.031 177.017C391.238 178.817 388.807 179.83 386.271 179.833Z" fill="white"/>
<path d="M386.271 180.124H210.033C207.42 180.121 204.915 179.078 203.068 177.223C201.22 175.368 200.181 172.853 200.178 170.229V132.397C200.181 129.774 201.22 127.259 203.068 125.404C204.915 123.549 207.42 122.505 210.033 122.502H386.271C388.884 122.505 391.389 123.549 393.236 125.404C395.084 127.259 396.123 129.774 396.126 132.397V170.229C396.123 172.853 395.084 175.368 393.236 177.223C391.389 179.078 388.884 180.121 386.271 180.124ZM210.033 123.667C207.728 123.669 205.517 124.59 203.887 126.227C202.257 127.863 201.34 130.082 201.337 132.397V170.229C201.34 172.544 202.257 174.763 203.887 176.4C205.517 178.037 207.728 178.957 210.033 178.96H386.271C388.576 178.957 390.787 178.037 392.417 176.4C394.047 174.763 394.964 172.544 394.967 170.229V132.397C394.964 130.082 394.047 127.863 392.417 126.227C390.787 124.59 388.576 123.669 386.271 123.667H210.033Z" fill="#3F3D56"/>
<path d="M364.821 170.52H231.483C228.947 170.517 226.516 169.505 224.722 167.704C222.929 165.904 221.92 163.463 221.918 160.917V141.127C221.92 138.581 222.929 136.14 224.722 134.34C226.516 132.54 228.947 131.527 231.483 131.524H364.821C367.357 131.527 369.788 132.54 371.581 134.34C373.375 136.14 374.383 138.581 374.386 141.127V160.917C374.383 163.463 373.375 165.904 371.581 167.704C369.788 169.505 367.357 170.517 364.821 170.52Z" fill="#F2F2F2"/>
<path d="M260.177 159.854C266.495 159.854 271.616 154.712 271.616 148.369C271.616 142.026 266.495 136.884 260.177 136.884C253.859 136.884 248.737 142.026 248.737 148.369C248.737 154.712 253.859 159.854 260.177 159.854Z" fill="#FF6584"/>
<path d="M356.535 169.361L340.388 155.765L324.52 142.404C324.101 142.051 323.572 141.858 323.025 141.859C322.478 141.86 321.95 142.055 321.532 142.41L305.716 155.832L301.852 159.111L296.027 154.206L278.324 139.3C277.905 138.947 277.376 138.754 276.829 138.755C276.283 138.756 275.754 138.951 275.337 139.305L257.691 154.28L239.767 169.491C239.677 169.568 239.612 169.671 239.581 169.786C239.551 169.902 239.556 170.024 239.597 170.136C239.638 170.248 239.713 170.345 239.81 170.413C239.908 170.481 240.024 170.518 240.143 170.517L276.89 170.446L288.522 170.424L288.408 170.52L323.08 170.453L356.163 170.389C356.282 170.389 356.398 170.352 356.496 170.284C356.593 170.215 356.667 170.118 356.707 170.006C356.748 169.893 356.753 169.771 356.722 169.656C356.691 169.541 356.626 169.438 356.535 169.361Z" fill="#3F3D56"/>
<path d="M507.92 385H396.612C396.459 385 396.311 384.939 396.202 384.83C396.094 384.72 396.033 384.572 396.033 384.418C396.033 384.264 396.094 384.116 396.202 384.006C396.311 383.897 396.459 383.836 396.612 383.836H507.92C508.074 383.836 508.221 383.897 508.33 384.006C508.439 384.116 508.5 384.264 508.5 384.418C508.5 384.572 508.439 384.72 508.33 384.83C508.221 384.939 508.074 385 507.92 385Z" fill="#CCCCCC"/>
<path d="M350.689 76.7775C350.226 76.0221 349.614 75.3693 348.892 74.859C348.169 74.3486 347.35 73.9914 346.486 73.8091C346.169 73.7423 345.847 73.7014 345.524 73.6869L301.354 34.0387C300.486 33.1434 299.329 32.5882 298.09 32.473C297.846 32.4448 297.599 32.4371 297.354 32.4498C296.335 32.4962 295.351 32.8399 294.523 33.4386C293.696 34.0373 293.06 34.8652 292.693 35.821C292.327 36.7768 292.245 37.8191 292.46 38.8205C292.674 39.8219 293.174 40.739 293.899 41.4596L310.809 56.2608L338.578 80.5607C338.601 81.0184 338.669 81.4727 338.781 81.9169C339.113 83.2037 339.828 84.3587 340.829 85.2287C341.83 86.0988 343.071 86.6427 344.387 86.7885C345.587 86.9293 346.803 86.7275 347.895 86.2065C348.76 85.8001 349.527 85.2104 350.144 84.4778C350.208 84.4022 350.266 84.3323 350.324 84.2508C351.134 83.1902 351.604 81.9067 351.669 80.5714C351.734 79.2362 351.392 77.9127 350.689 76.7775Z" fill="#FFB8B8"/>
<path d="M275.139 114.988L274.727 98.1905L274.379 84.2508L274.141 74.4959L273.672 55.4808C273.579 54.4628 273.193 53.4939 272.561 52.6924C271.928 51.891 271.077 51.2916 270.112 50.9676C269.146 50.6436 268.107 50.6089 267.122 50.8677C266.137 51.1265 265.248 51.6677 264.564 52.4252C264.403 52.5982 264.258 52.7852 264.129 52.9839C263.416 54.0102 263.095 55.2604 263.225 56.5052L264.257 84.2508L264.773 98.1905L265.434 115.972C265.243 116.233 265.071 116.507 264.918 116.792C264.506 117.577 264.257 118.438 264.186 119.322C264.115 120.207 264.224 121.097 264.506 121.938C264.801 122.819 265.278 123.629 265.907 124.312C266.535 124.995 267.301 125.537 268.153 125.901C269.005 126.266 269.925 126.445 270.851 126.427C271.777 126.409 272.689 126.194 273.527 125.796C274.499 125.335 275.344 124.639 275.986 123.772C276.627 122.905 277.046 121.892 277.206 120.824C277.365 119.756 277.26 118.664 276.899 117.646C276.539 116.629 275.934 115.716 275.139 114.988Z" fill="#FFB8B8"/>
<path d="M314.908 67.4067L310.809 56.2608L304.177 38.2061C303.699 36.8924 302.932 35.7038 301.933 34.7285C300.934 33.7531 299.73 33.0161 298.409 32.572C298.305 32.5371 298.194 32.5021 298.09 32.473C296.81 32.083 295.462 31.9758 294.137 32.1586C292.812 32.3415 291.542 32.8101 290.414 33.5323L268.077 47.7572C266.032 49.057 264.569 51.1042 263.999 53.4664C263.429 55.8286 263.796 58.3208 265.022 60.4165C267.816 65.2659 270.859 69.9654 274.141 74.4959C276.744 78.0521 281.591 78.4304 282.432 84.2508H298.902L315.575 69.2227L314.908 67.4067Z" fill="#CCCCCC"/>
<path d="M59.1481 203.627C66.5671 203.627 72.5813 197.589 72.5813 190.14C72.5813 182.692 66.5671 176.654 59.1481 176.654C51.7291 176.654 45.7148 182.692 45.7148 190.14C45.7148 197.589 51.7291 203.627 59.1481 203.627Z" fill="#A0616A"/>
<path d="M92.1269 180.857C92.2593 180.963 92.3876 181.075 92.5118 181.193C93.1289 181.777 93.6162 182.485 93.9418 183.271C94.2674 184.057 94.4239 184.903 94.4011 185.754C94.3783 186.604 94.1766 187.441 93.8094 188.208C93.4421 188.975 92.9175 189.656 92.27 190.205C92.1191 190.332 91.9616 190.452 91.7982 190.562L92.7074 221.378C92.7333 222.387 92.4345 223.377 91.8554 224.202C91.2763 225.027 90.4478 225.642 89.4928 225.957L89.4374 225.969L64.5156 228.633C63.8381 228.706 63.1529 228.643 62.4998 228.448C61.8467 228.253 61.2386 227.93 60.7104 227.497C60.1823 227.065 59.7447 226.532 59.4229 225.929C59.1011 225.326 58.9015 224.665 58.8356 223.984C58.7696 223.304 58.8387 222.616 59.0388 221.962C59.2388 221.308 59.566 220.701 60.0013 220.174C60.4365 219.648 60.9714 219.214 61.5748 218.896C62.1783 218.578 62.8385 218.384 63.5172 218.324L81.2826 216.753L84.3549 190.066C84.154 189.888 83.9658 189.695 83.7917 189.49C82.8284 188.345 82.3232 186.882 82.3741 185.385C82.4251 183.887 83.0286 182.462 84.0674 181.386C85.1062 180.31 86.5063 179.66 87.9956 179.562C89.485 179.464 90.9574 179.926 92.1269 180.857Z" fill="#A0616A"/>
<path d="M81.2725 377.842H87.9782L91.1679 351.875H81.2713L81.2725 377.842Z" fill="#A0616A"/>
<path d="M79.5624 375.644L92.7675 375.643C93.8726 375.643 94.9674 375.862 95.9884 376.286C97.0094 376.711 97.9371 377.333 98.7186 378.118C99.5 378.902 100.12 379.834 100.543 380.859C100.966 381.884 101.183 382.982 101.183 384.092V384.367L79.5628 384.367L79.5624 375.644Z" fill="#2F2E41"/>
<path d="M14.6257 368.534L20.387 371.978L36.3603 351.306L27.8568 346.223L14.6257 368.534Z" fill="#A0616A"/>
<path d="M14.2761 365.767L25.6223 372.549C26.5718 373.117 27.4012 373.867 28.0621 374.756C28.723 375.646 29.203 376.657 29.4746 377.732C29.7462 378.808 29.8042 379.926 29.6452 381.024C29.4862 382.122 29.1134 383.178 28.548 384.132L28.4081 384.367L9.83093 373.263L14.2761 365.767Z" fill="#2F2E41"/>
<path d="M89.5602 368.67H82.0517C81.4438 368.671 80.857 368.446 80.405 368.038C79.9529 367.63 79.6677 367.068 79.6044 366.461L72.0348 295.023C72.0157 294.843 71.9382 294.675 71.8142 294.544C71.6903 294.412 71.5268 294.326 71.3489 294.297C71.1711 294.268 70.9888 294.299 70.8302 294.385C70.6715 294.471 70.5454 294.606 70.4712 294.771L56.8154 325.129L32.6387 364.709C32.3257 365.217 31.8413 365.594 31.2739 365.772C30.7066 365.95 30.0944 365.917 29.5493 365.679L19.8909 361.412C19.5716 361.271 19.2857 361.063 19.0524 360.803C18.8191 360.543 18.6436 360.235 18.5375 359.902C18.4314 359.568 18.3973 359.215 18.4372 358.867C18.4772 358.519 18.5904 358.184 18.7693 357.883L40.9944 320.521L47.8106 289.041C45.6668 275.39 54.8572 255.094 54.9504 254.89L54.996 254.791L80.3113 244.857L80.4382 245.013C90.4219 277.906 96.5054 313.304 92.0135 366.406C91.9581 367.022 91.6761 367.596 91.2225 368.014C90.7689 368.433 90.1763 368.667 89.5602 368.67Z" fill="#2F2E41"/>
<path d="M53.9761 258.117L53.8582 257.868C53.8019 257.749 48.1728 245.83 43.8335 233.09C42.9996 230.626 42.6843 228.016 42.9077 225.424C43.1311 222.831 43.8883 220.314 45.1313 218.031C46.3904 215.724 48.1131 213.705 50.19 212.102C52.267 210.498 54.653 209.345 57.197 208.716C61.6133 207.653 66.263 208.219 70.2989 210.309C74.3347 212.4 77.4882 215.877 79.1848 220.106C82.6268 228.748 81.5298 237.971 80.4975 245.225L80.4769 245.37L80.3452 245.434L53.9761 258.117Z" fill="#3F3D56"/>
<path d="M75.4355 182.522H54.1051V173.187C58.7869 171.32 63.3682 169.732 66.1376 173.187C68.6036 173.187 70.9685 174.171 72.7122 175.921C74.4559 177.672 75.4355 180.046 75.4355 182.522Z" fill="#2F2E41"/>
<path d="M52.9241 171.54C40.1724 171.54 36.6031 187.587 36.6031 196.64C36.6031 201.689 38.8774 203.495 42.4512 204.106L43.7133 197.348L46.6694 204.397C47.6732 204.402 48.7278 204.382 49.8212 204.362L50.8235 202.29L53.0585 204.325C62.01 204.338 69.2449 205.648 69.2449 196.64C69.2449 187.587 66.1147 171.54 52.9241 171.54Z" fill="#2F2E41"/>
<path d="M112.388 385H1.07973C0.925975 385 0.778518 384.939 0.669798 384.83C0.561078 384.72 0.5 384.572 0.5 384.418C0.5 384.264 0.561078 384.116 0.669798 384.006C0.778518 383.897 0.925975 383.836 1.07973 383.836H112.388C112.541 383.836 112.689 383.897 112.798 384.006C112.906 384.116 112.967 384.264 112.967 384.418C112.967 384.572 112.906 384.72 112.798 384.83C112.689 384.939 112.541 385 112.388 385Z" fill="#CCCCCC"/>
<path d="M114.481 193.511H89.5523C88.0921 193.509 86.6923 192.926 85.6598 191.889C84.6273 190.853 84.0465 189.447 84.0449 187.981V162.954C84.0465 161.488 84.6273 160.082 85.6598 159.046C86.6923 158.009 88.0921 157.426 89.5523 157.424H114.481C115.941 157.426 117.341 158.009 118.373 159.046C119.406 160.082 119.986 161.488 119.988 162.954V187.981C119.986 189.447 119.406 190.853 118.373 191.889C117.341 192.926 115.941 193.509 114.481 193.511Z" fill="white"/>
<path d="M114.481 193.511H89.5523C88.0921 193.509 86.6923 192.926 85.6598 191.889C84.6273 190.853 84.0465 189.447 84.0449 187.981V162.954C84.0465 161.488 84.6273 160.082 85.6598 159.046C86.6923 158.009 88.0921 157.426 89.5523 157.424H114.481C115.941 157.426 117.341 158.009 118.373 159.046C119.406 160.082 119.986 161.488 119.988 162.954V187.981C119.986 189.447 119.406 190.853 118.373 191.889C117.341 192.926 115.941 193.509 114.481 193.511ZM89.5523 158.589C88.3995 158.59 87.2944 159.05 86.4792 159.869C85.6641 160.687 85.2056 161.796 85.2043 162.954V187.981C85.2056 189.139 85.6641 190.248 86.4792 191.067C87.2944 191.885 88.3995 192.345 89.5523 192.347H114.481C115.633 192.345 116.739 191.885 117.554 191.067C118.369 190.248 118.827 189.139 118.829 187.981V162.954C118.827 161.796 118.369 160.687 117.554 159.869C116.739 159.05 115.633 158.59 114.481 158.589H89.5523Z" fill="#3F3D56"/>
<path d="M110.133 183.325H93.9003C93.4392 183.325 92.9971 183.14 92.671 182.813C92.345 182.486 92.1616 182.042 92.1611 181.579V169.356C92.1616 168.893 92.345 168.449 92.671 168.122C92.9971 167.795 93.4392 167.611 93.9003 167.61H98.4699C98.7671 167.609 99.0596 167.685 99.3191 167.83C99.5785 167.976 99.7963 168.186 99.9512 168.441L101.226 170.52H110.133C110.594 170.521 111.036 170.705 111.362 171.032C111.688 171.36 111.871 171.803 111.872 172.266V181.579C111.871 182.042 111.688 182.486 111.362 182.813C111.036 183.14 110.594 183.325 110.133 183.325Z" fill="#6C63FF"/>
<path d="M109.605 189.5C109.686 189.649 109.761 189.802 109.829 189.96C110.173 190.738 110.348 191.581 110.344 192.432C110.341 193.283 110.158 194.124 109.808 194.899C109.458 195.674 108.949 196.367 108.314 196.931C107.679 197.495 106.933 197.917 106.123 198.172C105.935 198.23 105.744 198.278 105.551 198.317L94.4781 227.072C94.112 228.012 93.4539 228.808 92.6014 229.343C91.7489 229.877 90.7474 230.122 89.7456 230.04L89.69 230.029L65.6911 222.776C65.0386 222.579 64.4315 222.254 63.9049 221.819C63.3782 221.385 62.9424 220.851 62.6227 220.247C62.303 219.642 62.1057 218.981 62.0421 218.3C61.9786 217.618 62.05 216.931 62.2524 216.278C62.4549 215.625 62.7842 215.018 63.2213 214.494C63.6585 213.969 64.195 213.536 64.7996 213.221C65.4043 212.905 66.0652 212.713 66.7442 212.656C67.4232 212.598 68.1068 212.676 68.7556 212.885L85.7361 218.359L98.8822 194.96C98.766 194.717 98.667 194.466 98.5858 194.209C98.1405 192.779 98.2404 191.234 98.8662 189.873C99.492 188.513 100.599 187.435 101.972 186.848C103.346 186.261 104.887 186.207 106.297 186.697C107.708 187.187 108.887 188.186 109.605 189.5Z" fill="#A0616A"/>
</svg>
