<svg width="509" height="401" viewBox="0 0 509 401" fill="none" xmlns="http://www.w3.org/2000/svg">
<g clip-path="url(#clip0_22_489)">
<rect width="508" height="399.887" transform="translate(0.5 0.556412)" fill="#FAFAFA"/>
<path d="M250.503 91.4127H248.402V33.864C248.402 25.0303 244.892 16.5584 238.645 10.312C232.398 4.06561 223.925 0.556423 215.09 0.556412H93.1516C88.777 0.556396 84.4454 1.41791 80.4038 3.09176C76.3623 4.76561 72.69 7.21901 69.5968 10.3119C66.5035 13.4048 64.0498 17.0766 62.3757 21.1176C60.7016 25.1587 59.84 29.4899 59.84 33.8639V349.58C59.84 353.954 60.7016 358.286 62.3756 362.327C64.0497 366.368 66.5034 370.04 69.5967 373.132C72.6899 376.225 76.3621 378.679 80.4037 380.353C84.4452 382.027 88.7769 382.888 93.1514 382.888H215.09C219.465 382.888 223.796 382.027 227.838 380.353C231.88 378.679 235.552 376.225 238.645 373.133C241.738 370.04 244.192 366.368 245.866 362.327C247.54 358.286 248.402 353.955 248.402 349.581V132.377H250.503V91.4127Z" fill="#3F3D56"/>
<path d="M216.184 10.0097H200.266C200.998 11.804 201.278 13.7509 201.08 15.6787C200.882 17.6064 200.213 19.456 199.132 21.0645C198.051 22.6729 196.591 23.9908 194.881 24.9021C193.17 25.8134 191.262 26.2901 189.324 26.2903H119.467C117.529 26.2901 115.62 25.8134 113.91 24.9021C112.199 23.9908 110.739 22.6729 109.658 21.0644C108.577 19.456 107.908 17.6064 107.71 15.6787C107.513 13.7509 107.792 11.804 108.524 10.0097H93.6575C87.0598 10.0097 80.7323 12.6303 76.067 17.295C71.4018 21.9597 68.7808 28.2864 68.7808 34.8834V350.137C68.7808 353.403 69.4243 356.637 70.6744 359.655C71.9246 362.673 73.757 365.415 76.067 367.725C78.377 370.035 81.1194 371.867 84.1376 373.117C87.1558 374.367 90.3906 375.01 93.6574 375.01H216.184C222.781 375.01 229.109 372.39 233.774 367.725C238.439 363.06 241.06 356.734 241.06 350.137V34.8834C241.06 31.6169 240.417 28.3824 239.167 25.3646C237.916 22.3468 236.084 19.6047 233.774 17.295C231.464 14.9853 228.722 13.1531 225.703 11.9031C222.685 10.653 219.45 10.0097 216.184 10.0097ZM213.509 156.258C213.504 157.965 212.824 159.601 211.617 160.808C210.409 162.015 208.773 162.695 207.066 162.7H175.922C174.215 162.695 172.578 162.015 171.371 160.808C170.164 159.601 169.483 157.965 169.478 156.258V154.647C169.483 152.94 170.164 151.304 171.371 150.097C172.578 148.89 174.215 148.209 175.922 148.204H207.066C208.773 148.209 210.409 148.89 211.617 150.097C212.824 151.304 213.504 152.94 213.509 154.647V156.258ZM217 127.802C216.995 129.509 216.314 131.145 215.107 132.352C213.9 133.559 212.263 134.24 210.556 134.245H98.8677C97.1603 134.24 95.5243 133.559 94.3169 132.352C93.1096 131.145 92.4291 129.509 92.4241 127.802V126.191C92.4291 124.484 93.1096 122.848 94.3169 121.641C95.5243 120.434 97.1603 119.753 98.8677 119.748H210.556C212.263 119.753 213.9 120.434 215.107 121.641C216.314 122.848 216.995 124.484 217 126.191V127.802ZM217 99.3461C216.995 101.053 216.314 102.689 215.107 103.896C213.9 105.104 212.263 105.784 210.556 105.789H98.8677C97.1603 105.784 95.5243 105.104 94.3169 103.896C93.1096 102.689 92.4291 101.053 92.4241 99.3461V97.7354C92.4291 96.0282 93.1096 94.3924 94.3169 93.1852C95.5243 91.978 97.1603 91.2976 98.8677 91.2926H210.556C212.263 91.2976 213.9 91.978 215.107 93.1852C216.314 94.3924 216.995 96.0282 217 97.7354V99.3461ZM217 70.8904C216.995 72.5976 216.314 74.2335 215.107 75.4406C213.9 76.6478 212.263 77.3282 210.556 77.3332H98.8677C97.1603 77.3282 95.5243 76.6478 94.3169 75.4406C93.1096 74.2335 92.4291 72.5976 92.4241 70.8904V69.2797C92.4291 67.5725 93.1096 65.9366 94.3169 64.7295C95.5243 63.5223 97.1603 62.8419 98.8677 62.8369H210.556C212.263 62.8419 213.9 63.5223 215.107 64.7295C216.314 65.9366 216.995 67.5725 217 69.2797V70.8904Z" fill="white"/>
<path d="M101.284 131.023C103.36 131.023 105.043 129.341 105.043 127.265C105.043 125.189 103.36 123.507 101.284 123.507C99.2082 123.507 97.5253 125.189 97.5253 127.265C97.5253 129.341 99.2082 131.023 101.284 131.023Z" fill="white"/>
<path d="M113.634 131.023C115.71 131.023 117.393 129.341 117.393 127.265C117.393 125.189 115.71 123.507 113.634 123.507C111.558 123.507 109.875 125.189 109.875 127.265C109.875 129.341 111.558 131.023 113.634 131.023Z" fill="white"/>
<path d="M125.984 131.023C128.06 131.023 129.743 129.341 129.743 127.265C129.743 125.189 128.06 123.507 125.984 123.507C123.908 123.507 122.226 125.189 122.226 127.265C122.226 129.341 123.908 131.023 125.984 131.023Z" fill="white"/>
<path d="M138.335 131.023C140.41 131.023 142.093 129.341 142.093 127.265C142.093 125.189 140.41 123.507 138.335 123.507C136.259 123.507 134.576 125.189 134.576 127.265C134.576 129.341 136.259 131.023 138.335 131.023Z" fill="white"/>
<path d="M178.607 159.479C180.683 159.479 182.366 157.796 182.366 155.721C182.366 153.645 180.683 151.962 178.607 151.962C176.531 151.962 174.848 153.645 174.848 155.721C174.848 157.796 176.531 159.479 178.607 159.479Z" fill="white"/>
<path d="M190.957 159.479C193.033 159.479 194.716 157.796 194.716 155.721C194.716 153.645 193.033 151.962 190.957 151.962C188.881 151.962 187.198 153.645 187.198 155.721C187.198 157.796 188.881 159.479 190.957 159.479Z" fill="white"/>
<path d="M203.307 159.479C205.383 159.479 207.066 157.796 207.066 155.721C207.066 153.645 205.383 151.962 203.307 151.962C201.231 151.962 199.548 153.645 199.548 155.721C199.548 157.796 201.231 159.479 203.307 159.479Z" fill="white"/>
<path d="M217.864 204.417H90.4861C87.4936 204.417 84.6236 205.605 82.5076 207.721C80.3915 209.837 79.2028 212.706 79.2028 215.699V277.752C79.2028 280.744 80.3915 283.614 82.5076 285.73C84.6236 287.846 87.4936 289.034 90.4861 289.034H217.864C220.856 289.034 223.726 287.846 225.842 285.73C227.958 283.614 229.147 280.745 229.147 277.752V215.699C229.147 212.706 227.958 209.837 225.842 207.721C223.726 205.605 220.856 204.417 217.864 204.417ZM87.3346 212.113C87.5862 212.067 93.5507 211.052 98.4897 214.024C103.428 216.995 105.326 222.74 105.404 222.983L105.604 223.602L104.963 223.716C104.048 223.859 103.124 223.926 102.199 223.919C99.263 223.975 96.3658 223.245 93.8075 221.804C88.8688 218.834 86.9716 213.089 86.8934 212.846L86.6937 212.226L87.3346 212.113ZM114.985 269.726H92.2661C90.6091 269.726 89.02 269.067 87.8483 267.896C86.6767 266.724 86.0184 265.135 86.0184 263.479C86.0184 261.822 86.6767 260.233 87.8483 259.061C89.02 257.89 90.6091 257.232 92.2661 257.232H114.985C116.642 257.232 118.231 257.89 119.403 259.061C120.574 260.233 121.233 261.822 121.233 263.479C121.233 265.135 120.574 266.724 119.403 267.896C118.231 269.067 116.642 269.726 114.985 269.726ZM218.356 268.59C218.35 270.396 217.631 272.126 216.354 273.403C215.077 274.68 213.346 275.399 211.54 275.405H194.501C192.695 275.399 190.964 274.68 189.687 273.403C188.41 272.126 187.691 270.396 187.685 268.59V258.367C187.691 256.562 188.41 254.831 189.687 253.554C190.964 252.278 192.695 251.558 194.501 251.553H211.54C213.346 251.558 215.077 252.278 216.354 253.554C217.631 254.831 218.35 256.562 218.356 258.367L218.356 268.59Z" fill="#6C63FF"/>
<path d="M199.995 266.483H193.144C192.655 266.483 192.185 266.678 191.839 267.024C191.494 267.369 191.299 267.838 191.299 268.328C191.299 268.817 191.494 269.286 191.839 269.632C192.185 269.978 192.655 270.172 193.144 270.172H199.995C200.484 270.172 200.953 269.978 201.299 269.632C201.645 269.286 201.839 268.817 201.839 268.328C201.839 267.838 201.645 267.369 201.299 267.024C200.953 266.678 200.484 266.483 199.995 266.483Z" fill="#3F3D56"/>
<path d="M212.643 266.483H205.792C205.302 266.483 204.833 266.678 204.487 267.024C204.141 267.369 203.947 267.838 203.947 268.328C203.947 268.817 204.141 269.286 204.487 269.632C204.833 269.978 205.302 270.172 205.792 270.172H212.643C213.132 270.172 213.601 269.978 213.947 269.632C214.293 269.286 214.487 268.817 214.487 268.328C214.487 267.838 214.293 267.369 213.947 267.024C213.601 266.678 213.132 266.483 212.643 266.483Z" fill="#3F3D56"/>
<path d="M199.994 261.277H193.143C192.653 261.277 192.184 261.471 191.838 261.817C191.493 262.163 191.298 262.632 191.298 263.121C191.298 263.611 191.493 264.08 191.838 264.426C192.184 264.771 192.653 264.966 193.143 264.966H199.994C200.483 264.966 200.952 264.771 201.298 264.426C201.644 264.08 201.838 263.611 201.838 263.121C201.838 262.632 201.644 262.163 201.298 261.817C200.952 261.471 200.483 261.277 199.994 261.277Z" fill="#3F3D56"/>
<path d="M212.642 261.277H205.791C205.301 261.277 204.832 261.471 204.486 261.817C204.14 262.163 203.946 262.632 203.946 263.121C203.946 263.611 204.14 264.08 204.486 264.426C204.832 264.771 205.301 264.966 205.791 264.966H212.642C213.131 264.966 213.6 264.771 213.946 264.426C214.292 264.08 214.486 263.611 214.486 263.121C214.486 262.632 214.292 262.163 213.946 261.817C213.6 261.471 213.131 261.277 212.642 261.277Z" fill="#3F3D56"/>
<path d="M199.994 256.176H193.143C192.653 256.176 192.184 256.371 191.838 256.717C191.493 257.062 191.298 257.532 191.298 258.021C191.298 258.51 191.493 258.979 191.838 259.325C192.184 259.671 192.653 259.865 193.143 259.865H199.994C200.483 259.865 200.952 259.671 201.298 259.325C201.644 258.979 201.838 258.51 201.838 258.021C201.838 257.532 201.644 257.062 201.298 256.717C200.952 256.371 200.483 256.176 199.994 256.176Z" fill="#3F3D56"/>
<path d="M212.642 256.176H205.791C205.301 256.176 204.832 256.371 204.486 256.717C204.14 257.062 203.946 257.532 203.946 258.021C203.946 258.51 204.14 258.979 204.486 259.325C204.832 259.671 205.301 259.865 205.791 259.865H212.642C213.131 259.865 213.6 259.671 213.946 259.325C214.292 258.979 214.486 258.51 214.486 258.021C214.486 257.532 214.292 257.062 213.946 256.717C213.6 256.371 213.131 256.176 212.642 256.176Z" fill="#3F3D56"/>
<path d="M306.087 227.792H289.473V244.405H306.087V227.792Z" fill="#E6E6E6"/>
<path d="M269.892 237.878H297.187V265.17H269.892V237.878ZM296 239.065H271.078V263.984H296V239.065Z" fill="#3F3D56"/>
<path d="M17.1145 90.7387H0.5V107.351H17.1145V90.7387Z" fill="#E6E6E6"/>
<path d="M36.6958 97.265H9.4006V69.973H36.6958V97.265ZM10.5874 96.0784H35.509V71.1596H10.5874V96.0784Z" fill="#3F3D56"/>
<path d="M388.019 392.978H380.744L377.283 364.922H388.02L388.019 392.978Z" fill="#FFB8B8"/>
<path d="M375.548 390.899H389.577V399.732H366.714C366.714 397.389 367.645 395.143 369.301 393.486C370.958 391.83 373.205 390.899 375.548 390.899Z" fill="#2F2E41"/>
<path d="M424.214 392.978H416.939L413.479 364.922H424.215L424.214 392.978Z" fill="#FFB8B8"/>
<path d="M411.743 390.899H425.773V399.732H402.91C402.91 397.389 403.841 395.143 405.497 393.486C407.154 391.83 409.401 390.899 411.743 390.899Z" fill="#2F2E41"/>
<path d="M351.525 292.642C351.002 291.871 350.654 290.995 350.506 290.075C350.358 289.155 350.414 288.214 350.669 287.318C350.924 286.421 351.373 285.592 351.983 284.888C352.593 284.184 353.351 283.622 354.202 283.242L378.931 215.092L391.099 221.731L362.864 286.859C363.407 288.331 363.392 289.951 362.82 291.412C362.249 292.873 361.161 294.073 359.764 294.786C358.366 295.499 356.756 295.675 355.237 295.279C353.719 294.884 352.398 293.946 351.525 292.642Z" fill="#FFB8B8"/>
<path d="M420.498 305.448C419.69 304.985 418.993 304.35 418.457 303.588C417.92 302.826 417.557 301.955 417.394 301.038C417.23 300.121 417.269 299.179 417.509 298.278C417.749 297.378 418.183 296.541 418.782 295.827L411.121 223.735L424.969 224.367L428.153 295.279C429.286 296.364 429.983 297.826 430.11 299.39C430.237 300.954 429.786 302.51 428.843 303.763C427.899 305.016 426.529 305.88 424.991 306.191C423.453 306.501 421.854 306.237 420.498 305.448Z" fill="#FFB8B8"/>
<path d="M398.407 202.468C406.456 202.468 412.981 195.944 412.981 187.896C412.981 179.848 406.456 173.324 398.407 173.324C390.358 173.324 383.833 179.848 383.833 187.896C383.833 195.944 390.358 202.468 398.407 202.468Z" fill="#FFB8B8"/>
<path d="M420.405 289.052H376.468L376.521 288.71C376.6 288.199 384.351 237.426 378.634 220.815C378.061 219.183 378.111 217.396 378.776 215.798C379.441 214.201 380.673 212.906 382.236 212.162C390.407 208.315 406.094 203.577 419.333 215.075C421.282 216.795 422.803 218.944 423.777 221.354C424.751 223.763 425.152 226.366 424.946 228.956L420.405 289.052Z" fill="#CCCCCC"/>
<path d="M384.907 244.929L365.126 240.917L374.398 218.947C374.953 216.819 376.329 214.998 378.225 213.883C380.121 212.768 382.381 212.451 384.511 213.001C386.64 213.55 388.465 214.922 389.584 216.815C390.704 218.708 391.026 220.968 390.482 223.098L384.907 244.929Z" fill="#CCCCCC"/>
<path d="M410.241 252.38L409.052 225.122C408.15 219.998 411.084 215.155 415.595 214.363C420.108 213.574 424.515 217.128 425.421 222.289L429.891 247.759L410.241 252.38Z" fill="#CCCCCC"/>
<path d="M418.944 285.789C426.013 312.711 426.785 346.94 424.877 384.277L415.383 383.091L398.176 311.894L388.682 384.277L378.001 383.684C374.81 344.508 371.703 310.877 376.814 288.755L418.944 285.789Z" fill="#2F2E41"/>
<path d="M408.01 199.158C405.291 202.054 400.242 200.499 399.887 196.543C399.859 196.236 399.861 195.927 399.893 195.62C400.076 193.868 401.089 192.277 400.846 190.426C400.791 189.966 400.62 189.527 400.348 189.152C398.181 186.251 393.095 190.449 391.051 187.823C389.797 186.213 391.271 183.677 390.308 181.878C389.039 179.502 385.277 180.674 382.919 179.373C380.294 177.926 380.451 173.9 382.179 171.451C384.286 168.465 387.979 166.871 391.627 166.641C395.275 166.412 398.898 167.398 402.303 168.725C406.173 170.233 410.01 172.316 412.391 175.718C415.287 179.856 415.566 185.418 414.117 190.255C413.236 193.198 410.23 196.793 408.01 199.158Z" fill="#2F2E41"/>
<path d="M507.907 400.444H281.831C281.674 400.444 281.523 400.381 281.412 400.27C281.301 400.159 281.238 400.008 281.238 399.85C281.238 399.693 281.301 399.542 281.412 399.431C281.523 399.319 281.674 399.257 281.831 399.257H507.907C508.064 399.257 508.215 399.319 508.326 399.431C508.437 399.542 508.5 399.693 508.5 399.85C508.5 400.008 508.437 400.159 508.326 400.27C508.215 400.381 508.064 400.444 507.907 400.444Z" fill="#3F3D56"/>
</g>
<defs>
<clipPath id="clip0_22_489">
<rect width="508" height="399.887" fill="white" transform="translate(0.5 0.556412)"/>
</clipPath>
</defs>
</svg>
