<svg width="509" height="445" viewBox="0 0 509 445" fill="none" xmlns="http://www.w3.org/2000/svg">
<g clip-path="url(#clip0_22_591)">
<path d="M47.0365 396.493C46.1163 390.561 44.3211 384.798 41.7095 379.392L41.3288 378.605L38.5011 381.74L40.5963 377.07L40.4593 376.799C38.6104 373.139 36.5613 369.584 34.3214 366.149L33.906 365.513L33.3519 366.127L33.7398 365.262L33.5455 364.971C30.7713 360.81 28.64 358.178 28.6189 358.152L28.0162 357.41L27.6285 358.294C27.5574 358.456 20.5131 374.689 19.5799 390.729L19.5652 390.979L24.3062 396.71L19.4712 393.674L19.4796 394.776C19.4943 396.661 19.6226 398.544 19.8638 400.413C20.0767 402.022 20.3273 403.592 20.6156 405.124C21.0727 405.138 21.5172 405.277 21.9013 405.525C21.5673 403.813 21.2793 402.054 21.0372 400.247C20.8504 398.804 20.7327 397.338 20.6859 395.877L30.038 401.749L20.7767 390.554C21.6199 376.993 26.8536 363.329 28.3229 359.723C29.1115 360.746 30.5991 362.731 32.3786 365.383L29.1436 372.595L33.7557 367.481C35.7553 370.594 37.5972 373.805 39.2744 377.103L34.2928 388.208L41.0282 380.739C43.3807 385.798 45.0092 391.163 45.8655 396.676C47.0444 405.581 46.8143 414.135 45.2174 420.763C43.6879 427.113 40.9923 431.015 37.8215 431.471C37.1689 431.562 36.505 431.522 35.8677 431.355C35.3566 431.718 34.7416 431.906 34.1148 431.89H33.942C34.9256 432.436 36.0281 432.732 37.1529 432.753C37.4308 432.753 37.7083 432.733 37.9834 432.693C41.7113 432.158 44.6884 428.027 46.3659 421.064C47.9985 414.286 48.2376 405.565 47.0365 396.493Z" fill="#E6E6E6"/>
<path d="M36.6031 432.284C31.7267 432.284 24.6959 429.602 17.7223 424.719C16.6959 423.994 15.7158 423.206 14.7877 422.359L14.0066 421.646L16.9598 420.796L13.0275 420.652L12.8616 420.478C5.49085 412.758 0.904154 401.854 0.85848 401.746L0.500031 400.884L1.432 400.926C1.52479 400.931 3.74053 401.035 7.07063 401.508L7.27819 401.537V401.535L8.00838 401.646C10.7277 402.06 13.4216 402.626 16.0772 403.342L16.3608 403.419L17.2468 405.601L17.1124 403.644L17.9253 403.878C21.778 404.991 25.4374 406.687 28.7756 408.909C39.3808 416.335 45.249 425.617 42.1469 430.046C41.0866 431.561 39.1348 432.284 36.6031 432.284ZM16.3897 422.192C17.0375 422.74 17.7116 423.262 18.4031 423.75C28.1162 430.552 38.5454 433.124 41.1768 429.368C43.8076 425.611 37.8227 416.69 28.1081 409.887C25.1111 407.893 21.8458 406.336 18.4103 405.261L18.9356 412.908L15.4852 404.409C13.2128 403.806 10.8881 403.31 8.56078 402.931L8.94204 408.482L6.56731 402.633C4.72737 402.38 3.24415 402.243 2.34195 402.173C3.57195 404.874 7.6363 413.215 13.5527 419.486L24.4045 419.883L16.3897 422.192Z" fill="#E6E6E6"/>
<path d="M192.533 431.616H0.699738V432.943H192.533V431.616Z" fill="#3F3D56"/>
<path d="M460.608 102.877H458.241V38.0237C458.241 33.0945 457.27 28.2136 455.384 23.6596C453.498 19.1056 450.733 14.9678 447.247 11.4823C443.762 7.99688 439.624 5.23205 435.07 3.34573C430.516 1.45941 425.635 0.488531 420.706 0.488525H283.306C273.351 0.488503 263.804 4.44306 256.765 11.4822C249.726 18.5214 245.771 28.0686 245.771 38.0235V393.812C245.771 403.767 249.726 413.314 256.765 420.353C263.804 427.392 273.351 431.347 283.306 431.347H420.706C430.661 431.347 440.208 427.392 447.247 420.353C454.286 413.314 458.241 403.767 458.241 393.812V149.04H460.608L460.608 102.877Z" fill="#E6E6E6"/>
<path d="M422.22 10.2538H404.285C405.11 12.2759 405.425 14.4699 405.202 16.6423C404.979 18.8148 404.225 20.8991 403.007 22.7117C401.789 24.5243 400.144 26.0095 398.217 27.0364C396.289 28.0634 394.139 28.6006 391.955 28.6008H313.241C311.057 28.6006 308.906 28.0634 306.979 27.0364C305.052 26.0095 303.406 24.5243 302.188 22.7117C300.97 20.8991 300.216 18.8148 299.994 16.6423C299.771 14.4698 300.086 12.2759 300.91 10.2538H284.159C280.478 10.2538 276.833 10.9788 273.432 12.3875C270.031 13.7962 266.941 15.8609 264.338 18.4638C261.735 21.0667 259.67 24.1568 258.262 27.5576C256.853 30.9585 256.128 34.6035 256.128 38.2846V393.551C256.128 397.232 256.853 400.877 258.262 404.278C259.67 407.679 261.735 410.769 264.338 413.372C266.941 415.974 270.031 418.039 273.432 419.448C276.833 420.857 280.478 421.582 284.159 421.582H422.22C425.901 421.582 429.546 420.857 432.947 419.448C436.348 418.039 439.438 415.974 442.041 413.372C444.644 410.769 446.709 407.679 448.117 404.278C449.526 400.877 450.251 397.232 450.251 393.551V38.2846C450.251 34.6035 449.526 30.9585 448.117 27.5577C446.709 24.1568 444.644 21.0667 442.041 18.4638C439.438 15.8609 436.348 13.7962 432.947 12.3875C429.546 10.9788 425.901 10.2538 422.22 10.2538Z" fill="white"/>
<path d="M356.943 145.547C348.396 145.547 340.04 143.012 332.933 138.263C325.826 133.515 320.287 126.765 317.015 118.868C313.744 110.971 312.889 102.282 314.556 93.8982C316.224 85.5148 320.34 77.8142 326.384 71.7702C332.428 65.7261 340.128 61.61 348.512 59.9425C356.895 58.2749 365.585 59.1308 373.482 62.4018C381.379 65.6728 388.128 71.2121 392.877 78.3192C397.626 85.4262 400.161 93.7819 400.161 102.329C400.148 113.787 395.59 124.772 387.488 132.874C379.386 140.976 368.401 145.534 356.943 145.547ZM356.943 60.2961C348.63 60.2961 340.503 62.7613 333.591 67.38C326.678 71.9987 321.291 78.5634 318.109 86.244C314.928 93.9246 314.096 102.376 315.717 110.53C317.339 118.683 321.343 126.173 327.221 132.052C333.1 137.93 340.589 141.933 348.743 143.555C356.897 145.177 365.348 144.345 373.029 141.163C380.709 137.982 387.274 132.594 391.893 125.682C396.511 118.77 398.976 110.643 398.976 102.329C398.964 91.1854 394.531 80.5014 386.651 72.6213C378.771 64.7413 368.087 60.3087 356.943 60.2961Z" fill="#3F3D56"/>
<path d="M348.655 394.787C344.323 394.787 340.087 393.502 336.485 391.095C332.883 388.688 330.075 385.267 328.418 381.265C326.76 377.262 326.326 372.858 327.171 368.609C328.016 364.36 330.102 360.457 333.166 357.393C336.229 354.33 340.132 352.244 344.381 351.398C348.631 350.553 353.035 350.987 357.037 352.645C361.04 354.303 364.461 357.11 366.868 360.713C369.275 364.315 370.56 368.55 370.56 372.882C370.553 378.69 368.243 384.257 364.137 388.364C360.03 392.47 354.462 394.78 348.655 394.787ZM348.655 352.161C344.557 352.161 340.551 353.377 337.143 355.654C333.736 357.93 331.08 361.166 329.511 364.953C327.943 368.739 327.533 372.905 328.332 376.925C329.132 380.944 331.105 384.636 334.003 387.534C336.901 390.432 340.593 392.405 344.612 393.205C348.632 394.004 352.798 393.594 356.584 392.026C360.371 390.457 363.607 387.801 365.883 384.394C368.16 380.986 369.376 376.98 369.376 372.882C369.369 367.389 367.184 362.122 363.3 358.237C359.415 354.353 354.148 352.168 348.655 352.161Z" fill="#3F3D56"/>
<path d="M508.5 265.961H419.946V177.408H508.5V265.961ZM421.13 264.777H507.316V178.592H421.13V264.777Z" fill="#3F3D56"/>
<path d="M321.488 313.323H273.468V265.303H321.488V313.323ZM274.652 312.139H320.304V266.487H274.652V312.139Z" fill="#3F3D56"/>
<path d="M51.5788 142.79C62.3451 142.79 71.073 134.062 71.073 123.296C71.073 112.529 62.3451 103.802 51.5788 103.802C40.8124 103.802 32.0846 112.529 32.0846 123.296C32.0846 134.062 40.8124 142.79 51.5788 142.79Z" fill="#2F2E41"/>
<path d="M84.0691 169.711C96.8862 169.711 107.277 159.32 107.277 146.503C107.277 133.686 96.8862 123.296 84.0691 123.296C71.2521 123.296 60.8618 133.686 60.8618 146.503C60.8618 159.32 71.2521 169.711 84.0691 169.711Z" fill="#2F2E41"/>
<path d="M110.824 346.252L99.4412 366.39C99.4412 366.39 84.5562 351.505 92.4365 347.565L104.695 343.625L110.824 346.252Z" fill="#FFB8B8"/>
<path d="M90.6852 400.1L94.1876 414.985L83.6805 418.488L80.1781 401.414L90.6852 400.1Z" fill="#FFB8B8"/>
<path d="M112.594 249.871L114.85 272.899C114.85 272.899 155.479 310.352 141.47 324.362C127.46 338.371 109.948 349.754 109.948 349.754L102.068 344.063L120.018 319.546L83.6806 293.716L91.9987 401.852L79.3027 405.354L50.846 295.905C50.846 295.905 42.0901 260.882 63.5421 243.37L112.594 249.871Z" fill="#2F2E41"/>
<path d="M86.7452 414.548C86.7452 414.548 93.3121 406.229 96.3767 413.672C98.3962 418.79 100.007 424.06 101.192 429.433C101.192 429.433 112.575 446.507 95.0633 444.318C77.5515 442.129 82.805 434.248 82.805 434.248C81.8735 433.646 81.1321 432.791 80.6671 431.783C80.2021 430.776 80.0326 429.657 80.1782 428.557C80.616 424.617 82.805 415.423 82.805 415.423C82.805 415.423 84.994 411.483 86.7452 414.548Z" fill="#2F2E41"/>
<path d="M104.914 357.415C104.914 357.415 108.635 361.137 102.506 367.266C102.506 367.266 101.63 384.34 93.7499 382.589C85.8696 380.837 83.2428 359.385 84.1184 357.196C84.994 355.007 82.805 338.809 88.0586 339.247C93.3121 339.685 99.879 345.376 99.879 345.376C99.879 345.376 88.4964 355.883 99.4412 362.888C99.4412 362.888 102.287 361.793 104.914 357.415Z" fill="#2F2E41"/>
<path d="M72.2979 188.208L105.57 189.083C98.2383 178.678 96.8582 166.403 99.879 152.746L77.9893 157.124C82.2047 168.27 82.2773 177.831 72.2979 188.208Z" fill="#FFB8B8"/>
<path d="M61.7909 244.683L113.451 259.13L123.365 190.83C123.163 187.76 121.89 184.857 119.768 182.628C117.646 180.399 114.809 178.986 111.752 178.633L99.879 177.263L78.4271 179.452L68.281 182.319C65.4379 183.123 62.9499 184.864 61.2209 187.259C59.492 189.655 58.6237 192.565 58.757 195.516L61.7909 244.683Z" fill="#6C63FF"/>
<path d="M111.262 245.997L119.58 255.628L139.718 234.176L132.231 197.053C131.338 192.625 129.147 188.563 125.938 185.384C122.728 182.206 118.645 180.055 114.208 179.205L108.635 178.138L120.893 228.047L111.262 245.997Z" fill="#6C63FF"/>
<path d="M111.674 259.535L117.829 251.25L112.575 245.997L104.042 248.223C102.836 248.537 101.732 249.158 100.837 250.025C99.9413 250.892 99.2851 251.975 98.9317 253.171C98.5784 254.366 98.5398 255.632 98.8198 256.846C99.0998 258.061 99.6888 259.182 100.53 260.102C101.249 260.889 102.134 261.507 103.12 261.912C104.107 262.318 105.171 262.499 106.236 262.445C107.301 262.391 108.341 262.102 109.281 261.599C110.221 261.096 111.038 260.391 111.674 259.535Z" fill="#FFB8B8"/>
<path d="M70.9846 248.623L62.6665 258.255L42.5279 236.803L50.0149 199.68C50.908 195.252 53.0989 191.19 56.3087 188.011C59.5185 184.833 63.6018 182.682 68.0383 181.832L73.6113 180.765L61.3531 230.674L70.9846 248.623Z" fill="#6C63FF"/>
<path d="M70.5719 262.161L64.4177 253.877L69.6712 248.623L78.2041 250.849C79.41 251.164 80.5142 251.785 81.4096 252.652C82.305 253.519 82.9612 254.602 83.3146 255.797C83.6679 256.992 83.7065 258.259 83.4265 259.473C83.1465 260.688 82.5575 261.809 81.7165 262.729C80.9969 263.516 80.1123 264.134 79.1258 264.539C78.1393 264.944 77.0755 265.126 76.0105 265.072C74.9455 265.018 73.9056 264.729 72.9654 264.225C72.0252 263.722 71.2078 263.017 70.5719 262.161Z" fill="#FFB8B8"/>
<path d="M87.2778 163.579C95.6718 163.579 102.477 156.774 102.477 148.38C102.477 139.986 95.6718 133.182 87.2778 133.182C78.8838 133.182 72.0791 139.986 72.0791 148.38C72.0791 156.774 78.8838 163.579 87.2778 163.579Z" fill="#FFB8B8"/>
<path d="M103.563 146.967H77.571L69.6805 136.292C77.4432 129.497 87.1587 128.279 97.9935 130.258L103.563 146.967Z" fill="#2F2E41"/>
<path d="M333.262 130.746C352.88 130.746 368.784 114.843 368.784 95.2252C368.784 75.6075 352.88 59.7041 333.262 59.7041C313.645 59.7041 297.741 75.6075 297.741 95.2252C297.741 114.843 313.645 130.746 333.262 130.746Z" fill="#E6E6E6"/>
<path d="M483.639 162.225H405.977V239.886H483.639V162.225Z" fill="#6C63FF"/>
<path d="M287.07 299.07H328.702V257.438H287.07V299.07Z" fill="#E6E6E6"/>
<path d="M336.814 387.091C346.623 387.091 354.575 379.139 354.575 369.33C354.575 359.521 346.623 351.569 336.814 351.569C327.006 351.569 319.054 359.521 319.054 369.33C319.054 379.139 327.006 387.091 336.814 387.091Z" fill="#6C63FF"/>
</g>
<defs>
<clipPath id="clip0_22_591">
<rect width="508" height="444.023" fill="white" transform="translate(0.5 0.488525)"/>
</clipPath>
</defs>
</svg>
