<svg width="48" height="49" viewBox="0 0 48 49" fill="none" xmlns="http://www.w3.org/2000/svg">
<rect y="0.348145" width="48" height="48" rx="24" fill="#F9FFFB"/>
<path d="M28.1667 31.0147H19.8333C17.3333 31.0147 15.6667 29.3481 15.6667 26.8481V21.8481C15.6667 19.3481 17.3333 17.6814 19.8333 17.6814H28.1667C30.6667 17.6814 32.3333 19.3481 32.3333 21.8481V26.8481C32.3333 29.3481 30.6667 31.0147 28.1667 31.0147Z" stroke="#6C63FF" stroke-miterlimit="10" stroke-linecap="round" stroke-linejoin="round"/>
<path d="M23.5 22.2649L25.5833 23.5149C26.3333 24.0149 26.3333 24.7649 25.5833 25.2649L23.5 26.5149C22.6667 27.0149 22 26.5982 22 25.6816V23.1816C22 22.0982 22.6667 21.7649 23.5 22.2649Z" stroke="#6C63FF" stroke-miterlimit="10" stroke-linecap="round" stroke-linejoin="round"/>
</svg>
